<?xml version="1.0" encoding="utf-8"?>
<!-- Generator: Adobe Illustrator 23.0.1, SVG Export Plug-In . SVG Version: 6.00 Build 0)  -->
<svg version="1.1" id="Layer_1" xmlns="http://www.w3.org/2000/svg" xmlns:xlink="http://www.w3.org/1999/xlink" x="0px" y="0px"
	 viewBox="0 0 722 660" style="enable-background:new 0 0 722 660;" xml:space="preserve">
<style type="text/css">
	.st0{fill-rule:evenodd;clip-rule:evenodd;}
	.st1{fill-rule:evenodd;clip-rule:evenodd;fill:#213648;}
	.st2{opacity:0.596;fill-rule:evenodd;clip-rule:evenodd;fill:url(#SVGID_1_);fill-opacity:0.65;enable-background:new    ;}
	.st3{opacity:0.75;fill-rule:evenodd;clip-rule:evenodd;fill:url(#SVGID_2_);enable-background:new    ;}
	.st4{opacity:0.75;fill-rule:evenodd;clip-rule:evenodd;fill:url(#SVGID_3_);enable-background:new    ;}
	.st5{fill-rule:evenodd;clip-rule:evenodd;fill:url(#SVGID_4_);}
	.st6{fill-rule:evenodd;clip-rule:evenodd;fill:#36536B;}
	.st7{fill-rule:evenodd;clip-rule:evenodd;fill:#FBFCFE;}
	.st8{fill:#36536B;}
	.st9{font-family:'ArialMT';}
	.st10{font-size:13px;}
	.st11{font-family:'Arial-BoldMT';}
	.st12{opacity:0.25;fill-rule:evenodd;clip-rule:evenodd;fill:#BA4270;enable-background:new    ;}
	.st13{fill:none;stroke:#BA4270;stroke-width:3;}
	.st14{fill-rule:evenodd;clip-rule:evenodd;fill:#BA4270;}
	.st15{fill:#FBFCFE;}
	.st16{font-size:11px;}
	.st17{opacity:0.596;fill-rule:evenodd;clip-rule:evenodd;fill:url(#SVGID_5_);fill-opacity:0.65;enable-background:new    ;}
	.st18{opacity:0.75;fill-rule:evenodd;clip-rule:evenodd;fill:url(#SVGID_6_);enable-background:new    ;}
	.st19{opacity:0.75;fill-rule:evenodd;clip-rule:evenodd;fill:url(#SVGID_7_);enable-background:new    ;}
	.st20{fill-rule:evenodd;clip-rule:evenodd;fill:url(#SVGID_8_);}
	.st21{fill-rule:evenodd;clip-rule:evenodd;fill:#EDF3F8;}
	.st22{filter:url(#Adobe_OpacityMaskFilter);}
	.st23{fill-rule:evenodd;clip-rule:evenodd;fill:#FFFFFF;}
	.st24{mask:url(#l_1_);}
	.st25{enable-background:new    ;}
	.st26{font-size:10px;}
	.st27{filter:url(#Adobe_OpacityMaskFilter_1_);}
	.st28{mask:url(#l_2_);fill-rule:evenodd;clip-rule:evenodd;fill:#36536B;}
	.st29{filter:url(#Adobe_OpacityMaskFilter_2_);}
	.st30{mask:url(#l_3_);}
	.st31{fill:#BA4270;}
	.st32{font-size:20px;}
	.st33{filter:url(#Adobe_OpacityMaskFilter_3_);}
	.st34{mask:url(#l_4_);}
	.st35{opacity:0.5;fill-rule:evenodd;clip-rule:evenodd;fill:#FFFFFF;enable-background:new    ;}
	.st36{opacity:0.25;fill-rule:evenodd;clip-rule:evenodd;fill:#FFFFFF;enable-background:new    ;}
</style>
<g>
	<g transform="translate(356 55)">
		<g>
			<path id="b" class="st0" d="M35.8,0.6H227c18.3,0,33.2,14.2,33.2,31.8v435.3c0,17.6-14.9,31.8-33.2,31.8H35.8
				c-18.3,0-33.2-14.2-33.2-31.8V32.4C2.6,14.8,17.4,0.6,35.8,0.6L35.8,0.6z"/>
		</g>
		<g>
			<path class="st1" d="M35.8,0.6H227c18.3,0,33.2,14.2,33.2,31.8v435.3c0,17.6-14.9,31.8-33.2,31.8H35.8
				c-18.3,0-33.2-14.2-33.2-31.8V32.4C2.6,14.8,17.4,0.6,35.8,0.6L35.8,0.6z"/>
		</g>
	</g>
	
		<linearGradient id="SVGID_1_" gradientUnits="userSpaceOnUse" x1="55.2733" y1="721.7258" x2="55.2733" y2="720.7258" gradientTransform="matrix(242.642 0 0 -12.324 -12924.2949 8949.5479)">
		<stop  offset="0" style="stop-color:#454545"/>
		<stop  offset="0.2263" style="stop-color:#999999"/>
		<stop  offset="1" style="stop-color:#FFFFFF"/>
	</linearGradient>
	<path class="st2" d="M583.7,55H390.9c-9,0.5-17.3,4.7-24.9,12.3c4.9-4.3,13.6-10,25.1-10h192.4c11.5,0,20.3,5.7,25.1,10
		C601.1,59.7,592.8,55.5,583.7,55z"/>
	
		<linearGradient id="SVGID_2_" gradientUnits="userSpaceOnUse" x1="51.9713" y1="726.3619" x2="51.2784" y2="726.3619" gradientTransform="matrix(13.6522 0 0 -470.6551 -93.4189 342169.7813)">
		<stop  offset="0" style="stop-color:#FFFFFF;stop-opacity:0"/>
		<stop  offset="0.2222" style="stop-color:#BABABA"/>
		<stop  offset="0.5468" style="stop-color:#FFFFFF;stop-opacity:0"/>
		<stop  offset="1" style="stop-color:#FFFFFF;stop-opacity:0"/>
	</linearGradient>
	<path class="st3" d="M611,517.7V90c0-11.5-4.2-15.7-6.7-18.4c-2.5-2.7-2.6-4.1,1-2.1c3.6,2.1,10.8,8,10.8,20.5v427.7
		c0,12.5-7.2,18.4-10.8,20.5c-3.6,2.1-3.5,0.7-1-2.1S611,529.1,611,517.7L611,517.7z"/>
	
		<linearGradient id="SVGID_3_" gradientUnits="userSpaceOnUse" x1="60.0287" y1="726.3619" x2="59.3346" y2="726.3619" gradientTransform="matrix(-13.6522 0 0 -470.6551 1178.0892 342169.7813)">
		<stop  offset="0" style="stop-color:#FFFFFF;stop-opacity:0"/>
		<stop  offset="0.2222" style="stop-color:#BABABA"/>
		<stop  offset="0.5468" style="stop-color:#FFFFFF;stop-opacity:0"/>
		<stop  offset="1" style="stop-color:#FFFFFF;stop-opacity:0"/>
	</linearGradient>
	<path class="st4" d="M363.7,517.7V90c0-11.5,4.2-15.7,6.7-18.4c2.5-2.7,2.6-4.1-1-2.1c-3.6,2.1-10.8,8-10.8,20.5v427.7
		c0,12.5,7.2,18.4,10.8,20.5c3.6,2.1,3.5,0.7,1-2.1S363.7,529.1,363.7,517.7L363.7,517.7z"/>
	<g>
		
			<linearGradient id="SVGID_4_" gradientUnits="userSpaceOnUse" x1="86.2932" y1="727.0074" x2="86.2932" y2="727.0074" gradientTransform="matrix(-13.6522 0 0 -470.6551 1178.0892 342169.7813)">
			<stop  offset="0" style="stop-color:#FFFFFF;stop-opacity:0"/>
			<stop  offset="0.2222" style="stop-color:#BABABA"/>
			<stop  offset="0.5468" style="stop-color:#FFFFFF;stop-opacity:0"/>
			<stop  offset="1" style="stop-color:#FFFFFF;stop-opacity:0"/>
		</linearGradient>
		<path class="st5" d="M0,0"/>
	</g>
	<g transform="translate(371.074 67.444)">
		<g>
			<path id="f" class="st6" d="M93.6,0H19.2C8.1,0,0,7.6,0,17.4v422.4c0,12.9,12.5,24.3,26.6,24.3H206c13.6,0,26.6-11.5,26.6-24.3
				V18.6c0-11.8-8.8-18.5-19.2-18.6h-75.6c-0.3,0-5.5,2.2-7.7,7.6c-2.2,5.4-6.6,9.7-11.4,9.7h-5.6c-2.3,0-8.3-2.2-11.4-9.7
				C98.6,0.1,93.9,0,93.6,0z"/>
		</g>
	</g>
	<g>
		<g transform="translate(399 197)">
			<g>
				<path id="h" class="st0" d="M5,0h166c2.8,0,5,2.2,5,5v181c0,2.8-2.2,5-5,5H5c-2.8,0-5-2.2-5-5V5C0,2.2,2.2,0,5,0z"/>
			</g>
			<g>
				<path class="st7" d="M5,0h166c2.8,0,5,2.2,5,5v181c0,2.8-2.2,5-5,5H5c-2.8,0-5-2.2-5-5V5C0,2.2,2.2,0,5,0z"/>
			</g>
		</g>
		<text transform="matrix(1 0 0 1 431.222 313)" class="st8 st9 st10">Payment of </text>
		<text transform="matrix(1 0 0 1 501.749 313)" class="st8 st11 st10">$9204</text>
		<text transform="matrix(1 0 0 1 537.3989 313)" class="st8 st9 st10"> </text>
		<text transform="matrix(1 0 0 1 436.736 331)" class="st8 st9 st10">is completed and </text>
		<text transform="matrix(1 0 0 1 417.676 349)" class="st8 st9 st10">processed successfully</text>
		<g transform="translate(458 233)">
			<circle class="st12" cx="28" cy="28" r="28"/>
			<path class="st13" d="M19,29.7l4.6,4.6L36.8,21"/>
		</g>
		<g transform="translate(422 373)">
			<path class="st14" d="M15,0h101c8.3,0,15,6.7,15,15l0,0c0,8.3-6.7,15-15,15H15C6.7,30,0,23.3,0,15l0,0C0,6.7,6.7,0,15,0z"/>
			<text transform="matrix(1 0 0 1 45.726 19)" class="st15 st11 st16">Dismiss</text>
		</g>
	</g>
	<g>
		<g transform="translate(53 55)">
			<g>
				<path id="j" class="st0" d="M35.8,0.6H227c18.3,0,33.2,14.2,33.2,31.8v435.3c0,17.6-14.9,31.8-33.2,31.8H35.8
					c-18.3,0-33.2-14.2-33.2-31.8V32.4C2.6,14.8,17.4,0.6,35.8,0.6L35.8,0.6z"/>
			</g>
			<g>
				<path class="st1" d="M35.8,0.6H227c18.3,0,33.2,14.2,33.2,31.8v435.3c0,17.6-14.9,31.8-33.2,31.8H35.8
					c-18.3,0-33.2-14.2-33.2-31.8V32.4C2.6,14.8,17.4,0.6,35.8,0.6L35.8,0.6z"/>
			</g>
		</g>
		
			<linearGradient id="SVGID_5_" gradientUnits="userSpaceOnUse" x1="55.2733" y1="721.7258" x2="55.2733" y2="720.7258" gradientTransform="matrix(242.642 0 0 -12.324 -13227.2949 8949.5479)">
			<stop  offset="0" style="stop-color:#454545"/>
			<stop  offset="0.2263" style="stop-color:#999999"/>
			<stop  offset="1" style="stop-color:#FFFFFF"/>
		</linearGradient>
		<path class="st17" d="M280.7,55H87.9c-9,0.5-17.3,4.7-24.9,12.3c4.9-4.3,13.6-10,25.1-10h192.4c11.5,0,20.3,5.7,25.1,10
			C298.1,59.7,289.8,55.5,280.7,55z"/>
		
			<linearGradient id="SVGID_6_" gradientUnits="userSpaceOnUse" x1="51.9713" y1="726.3619" x2="51.2784" y2="726.3619" gradientTransform="matrix(13.6522 0 0 -470.6551 -396.4189 342169.7813)">
			<stop  offset="0" style="stop-color:#FFFFFF;stop-opacity:0"/>
			<stop  offset="0.2222" style="stop-color:#BABABA"/>
			<stop  offset="0.5468" style="stop-color:#FFFFFF;stop-opacity:0"/>
			<stop  offset="1" style="stop-color:#FFFFFF;stop-opacity:0"/>
		</linearGradient>
		<path class="st18" d="M308,517.7V90c0-11.5-4.2-15.7-6.7-18.4c-2.5-2.7-2.6-4.1,1-2.1c3.6,2.1,10.8,8,10.8,20.5v427.7
			c0,12.5-7.2,18.4-10.8,20.5c-3.6,2.1-3.5,0.7-1-2.1S308,529.1,308,517.7L308,517.7z"/>
		
			<linearGradient id="SVGID_7_" gradientUnits="userSpaceOnUse" x1="60.0287" y1="726.3619" x2="59.3346" y2="726.3619" gradientTransform="matrix(-13.6522 0 0 -470.6551 875.0892 342169.7813)">
			<stop  offset="0" style="stop-color:#FFFFFF;stop-opacity:0"/>
			<stop  offset="0.2222" style="stop-color:#BABABA"/>
			<stop  offset="0.5468" style="stop-color:#FFFFFF;stop-opacity:0"/>
			<stop  offset="1" style="stop-color:#FFFFFF;stop-opacity:0"/>
		</linearGradient>
		<path class="st19" d="M60.7,517.7V90c0-11.5,4.2-15.7,6.7-18.4c2.5-2.7,2.6-4.1-1-2.1c-3.6,2.1-10.8,8-10.8,20.5v427.7
			c0,12.5,7.2,18.4,10.8,20.5c3.6,2.1,3.5,0.7,1-2.1S60.7,529.1,60.7,517.7L60.7,517.7z"/>
		<g>
			
				<linearGradient id="SVGID_8_" gradientUnits="userSpaceOnUse" x1="64.0989" y1="727.0074" x2="64.0989" y2="727.0074" gradientTransform="matrix(-13.6522 0 0 -470.6551 875.0892 342169.7813)">
				<stop  offset="0" style="stop-color:#FFFFFF;stop-opacity:0"/>
				<stop  offset="0.2222" style="stop-color:#BABABA"/>
				<stop  offset="0.5468" style="stop-color:#FFFFFF;stop-opacity:0"/>
				<stop  offset="1" style="stop-color:#FFFFFF;stop-opacity:0"/>
			</linearGradient>
			<path class="st20" d="M0,0"/>
		</g>
		<g transform="translate(68.074 67.444)">
			<g>
				<path class="st21" d="M93.6,0H19.2C8.1,0,0,7.6,0,17.4v422.4c0,12.9,12.5,24.3,26.6,24.3H206c13.6,0,26.6-11.5,26.6-24.3V18.6
					c0-11.8-8.8-18.5-19.2-18.6h-75.6c-0.3,0-5.5,2.2-7.7,7.6c-2.2,5.4-6.6,9.7-11.4,9.7h-5.6c-2.3,0-8.3-2.2-11.4-9.7
					C98.6,0.1,93.9,0,93.6,0z"/>
			</g>
			<defs>
				<filter id="Adobe_OpacityMaskFilter" filterUnits="userSpaceOnUse" x="14.9" y="160.6" width="204" height="328">
					<feColorMatrix  type="matrix" values="1 0 0 0 0  0 1 0 0 0  0 0 1 0 0  0 0 0 1 0"/>
				</filter>
			</defs>
			<mask maskUnits="userSpaceOnUse" x="14.9" y="160.6" width="204" height="328" id="l_1_">
				<g class="st22">
					<path id="k_1_" class="st23" d="M93.6,0H19.2C8.1,0,0,7.6,0,17.4v422.4c0,12.9,12.5,24.3,26.6,24.3H206
						c13.6,0,26.6-11.5,26.6-24.3V18.6c0-11.8-8.8-18.5-19.2-18.6h-75.6c-0.3,0-5.5,2.2-7.7,7.6c-2.2,5.4-6.6,9.7-11.4,9.7h-5.6
						c-2.3,0-8.3-2.2-11.4-9.7C98.6,0.1,93.9,0,93.6,0z"/>
				</g>
			</mask>
			<g class="st24">
				<g transform="translate(14.926 160.556)">
					<g>
						<path id="n" class="st0" d="M5,0h194c2.8,0,5,2.2,5,5v30c0,2.8-2.2,5-5,5H5c-2.8,0-5-2.2-5-5V5C0,2.2,2.2,0,5,0z"/>
					</g>
					<g>
						<path class="st7" d="M5,0h194c2.8,0,5,2.2,5,5v30c0,2.8-2.2,5-5,5H5c-2.8,0-5-2.2-5-5V5C0,2.2,2.2,0,5,0z"/>
					</g>
				</g>
				<g>
					<g class="st25">
						<text transform="matrix(1 0 0 1 30.926 180.556)" class="st8 st9 st26">Item #001</text>
					</g>
					<g class="st25">
						<text transform="matrix(1 0 0 1 177.557 184.556)" class="st8 st11 st10">$29</text>
					</g>
				</g>
				<g transform="translate(14.926 208.556)">
					<g>
						<path id="p" class="st0" d="M5,0h194c2.8,0,5,2.2,5,5v30c0,2.8-2.2,5-5,5H5c-2.8,0-5-2.2-5-5V5C0,2.2,2.2,0,5,0z"/>
					</g>
					<g>
						<path class="st7" d="M5,0h194c2.8,0,5,2.2,5,5v30c0,2.8-2.2,5-5,5H5c-2.8,0-5-2.2-5-5V5C0,2.2,2.2,0,5,0z"/>
					</g>
				</g>
				<g>
					<g class="st25">
						<text transform="matrix(1 0 0 1 30.926 228.556)" class="st8 st9 st26">Item #002</text>
					</g>
					<g class="st25">
						<text transform="matrix(1 0 0 1 171.762 232.556)" class="st8 st11 st10">$105</text>
					</g>
				</g>
				<g transform="translate(14.926 256.556)">
					<g>
						<path id="r" class="st0" d="M5,0h194c2.8,0,5,2.2,5,5v30c0,2.8-2.2,5-5,5H5c-2.8,0-5-2.2-5-5V5C0,2.2,2.2,0,5,0z"/>
					</g>
					<g>
						<path class="st7" d="M5,0h194c2.8,0,5,2.2,5,5v30c0,2.8-2.2,5-5,5H5c-2.8,0-5-2.2-5-5V5C0,2.2,2.2,0,5,0z"/>
					</g>
				</g>
				<g>
					<g class="st25">
						<text transform="matrix(1 0 0 1 30.926 276.556)" class="st8 st9 st26">Item #003</text>
					</g>
					<g class="st25">
						<text transform="matrix(1 0 0 1 171.814 280.556)" class="st8 st11 st10">$810</text>
					</g>
				</g>
				<g transform="translate(14.926 304.556)">
					<g>
						<path id="t" class="st0" d="M5,0h194c2.8,0,5,2.2,5,5v30c0,2.8-2.2,5-5,5H5c-2.8,0-5-2.2-5-5V5C0,2.2,2.2,0,5,0z"/>
					</g>
					<g>
						<path class="st7" d="M5,0h194c2.8,0,5,2.2,5,5v30c0,2.8-2.2,5-5,5H5c-2.8,0-5-2.2-5-5V5C0,2.2,2.2,0,5,0z"/>
					</g>
				</g>
				<g>
					<g class="st25">
						<text transform="matrix(1 0 0 1 30.926 324.556)" class="st8 st9 st26">Item #004</text>
					</g>
					<g class="st25">
						<text transform="matrix(1 0 0 1 163.627 328.556)" class="st8 st11 st10">$1044</text>
					</g>
				</g>
				<g>
					<g transform="translate(14.926 352.556)">
						<g>
							<path id="v" class="st0" d="M5,0h194c2.8,0,5,2.2,5,5v30c0,2.8-2.2,5-5,5H5c-2.8,0-5-2.2-5-5V5C0,2.2,2.2,0,5,0z"/>
						</g>
						<g>
							<path class="st7" d="M5,0h194c2.8,0,5,2.2,5,5v30c0,2.8-2.2,5-5,5H5c-2.8,0-5-2.2-5-5V5C0,2.2,2.2,0,5,0z"/>
						</g>
					</g>
					<g>
						<g class="st25">
							<text transform="matrix(1 0 0 1 30.926 372.556)" class="st8 st9 st26">Item #005</text>
						</g>
						<g class="st25">
							<text transform="matrix(1 0 0 1 177.473 376.556)" class="st8 st11 st10">$40</text>
						</g>
					</g>
				</g>
				<g>
					<g transform="translate(14.926 400.556)">
						<g>
							<path id="x" class="st0" d="M5,0h194c2.8,0,5,2.2,5,5v30c0,2.8-2.2,5-5,5H5c-2.8,0-5-2.2-5-5V5C0,2.2,2.2,0,5,0z"/>
						</g>
						<g>
							<path class="st7" d="M5,0h194c2.8,0,5,2.2,5,5v30c0,2.8-2.2,5-5,5H5c-2.8,0-5-2.2-5-5V5C0,2.2,2.2,0,5,0z"/>
						</g>
					</g>
					<g>
						<g class="st25">
							<text transform="matrix(1 0 0 1 30.926 420.556)" class="st8 st9 st26">Item #006</text>
						</g>
						<g class="st25">
							<text transform="matrix(1 0 0 1 160.415 424.556)" class="st8 st11 st10">$2566</text>
						</g>
					</g>
				</g>
				<g>
					<g transform="translate(14.926 448.556)">
						<g>
							<path id="z" class="st0" d="M5,0h194c2.8,0,5,2.2,5,5v30c0,2.8-2.2,5-5,5H5c-2.8,0-5-2.2-5-5V5C0,2.2,2.2,0,5,0z"/>
						</g>
						<g>
							<path class="st7" d="M5,0h194c2.8,0,5,2.2,5,5v30c0,2.8-2.2,5-5,5H5c-2.8,0-5-2.2-5-5V5C0,2.2,2.2,0,5,0z"/>
						</g>
					</g>
					<g>
						<g class="st25">
							<text transform="matrix(1 0 0 1 30.926 468.556)" class="st8 st9 st26">Item #001</text>
						</g>
						<g class="st25">
							<text transform="matrix(1 0 0 1 163.392 472.556)" class="st8 st11 st10">$4199</text>
						</g>
					</g>
				</g>
			</g>
			<defs>
				<filter id="Adobe_OpacityMaskFilter_1_" filterUnits="userSpaceOnUse" x="0" y="0" width="233" height="114">
					<feColorMatrix  type="matrix" values="1 0 0 0 0  0 1 0 0 0  0 0 1 0 0  0 0 0 1 0"/>
				</filter>
			</defs>
			<mask maskUnits="userSpaceOnUse" x="0" y="0" width="233" height="114" id="l_2_">
				<g class="st27">
					<path id="k_2_" class="st23" d="M93.6,0H19.2C8.1,0,0,7.6,0,17.4v422.4c0,12.9,12.5,24.3,26.6,24.3H206
						c13.6,0,26.6-11.5,26.6-24.3V18.6c0-11.8-8.8-18.5-19.2-18.6h-75.6c-0.3,0-5.5,2.2-7.7,7.6c-2.2,5.4-6.6,9.7-11.4,9.7h-5.6
						c-2.3,0-8.3-2.2-11.4-9.7C98.6,0.1,93.9,0,93.6,0z"/>
				</g>
			</mask>
			<path class="st28" d="M0,0h233v114H0V0z"/>
			<defs>
				<filter id="Adobe_OpacityMaskFilter_2_" filterUnits="userSpaceOnUse" x="14.9" y="80.6" width="204" height="56">
					<feColorMatrix  type="matrix" values="1 0 0 0 0  0 1 0 0 0  0 0 1 0 0  0 0 0 1 0"/>
				</filter>
			</defs>
			<mask maskUnits="userSpaceOnUse" x="14.9" y="80.6" width="204" height="56" id="l_3_">
				<g class="st29">
					<path id="k_3_" class="st23" d="M93.6,0H19.2C8.1,0,0,7.6,0,17.4v422.4c0,12.9,12.5,24.3,26.6,24.3H206
						c13.6,0,26.6-11.5,26.6-24.3V18.6c0-11.8-8.8-18.5-19.2-18.6h-75.6c-0.3,0-5.5,2.2-7.7,7.6c-2.2,5.4-6.6,9.7-11.4,9.7h-5.6
						c-2.3,0-8.3-2.2-11.4-9.7C98.6,0.1,93.9,0,93.6,0z"/>
				</g>
			</mask>
			<g class="st30">
				<g transform="translate(14.926 80.556)">
					<g>
						<path id="B" class="st0" d="M5,0h194c2.8,0,5,2.2,5,5v46c0,2.8-2.2,5-5,5H5c-2.8,0-5-2.2-5-5V5C0,2.2,2.2,0,5,0z"/>
					</g>
					<g>
						<path class="st7" d="M5,0h194c2.8,0,5,2.2,5,5v46c0,2.8-2.2,5-5,5H5c-2.8,0-5-2.2-5-5V5C0,2.2,2.2,0,5,0z"/>
					</g>
				</g>
				<g class="st25">
					<text transform="matrix(1 0 0 1 31.157 108.556)" class="st8 st9 st26">Total payment</text>
				</g>
				<g class="st25">
					<text transform="matrix(1 0 0 1 138.265 115.556)" class="st31 st11 st32">$9204</text>
				</g>
			</g>
			<defs>
				<filter id="Adobe_OpacityMaskFilter_3_" filterUnits="userSpaceOnUse" x="0" y="0" width="96.8" height="56.5">
					<feColorMatrix  type="matrix" values="1 0 0 0 0  0 1 0 0 0  0 0 1 0 0  0 0 0 1 0"/>
				</filter>
			</defs>
			<mask maskUnits="userSpaceOnUse" x="0" y="0" width="96.8" height="56.5" id="l_4_">
				<g class="st33">
					<path id="k_4_" class="st23" d="M93.6,0H19.2C8.1,0,0,7.6,0,17.4v422.4c0,12.9,12.5,24.3,26.6,24.3H206
						c13.6,0,26.6-11.5,26.6-24.3V18.6c0-11.8-8.8-18.5-19.2-18.6h-75.6c-0.3,0-5.5,2.2-7.7,7.6c-2.2,5.4-6.6,9.7-11.4,9.7h-5.6
						c-2.3,0-8.3-2.2-11.4-9.7C98.6,0.1,93.9,0,93.6,0z"/>
				</g>
			</mask>
			<g class="st34">
				<path class="st31" d="M0,0"/>
				<g transform="translate(73.926 33.556)">
					<circle class="st23" cx="12.1" cy="3.2" r="1.9"/>
					<circle class="st23" cx="16.6" cy="7.6" r="1.9"/>
					<circle class="st23" cx="21" cy="12.1" r="1.9"/>
					<circle class="st23" cx="7.6" cy="7.6" r="1.9"/>
					<circle class="st35" cx="12.1" cy="12.1" r="1.9"/>
					<circle class="st35" cx="16.6" cy="16.6" r="1.9"/>
					<circle class="st23" cx="3.2" cy="12.1" r="1.9"/>
					<circle class="st35" cx="7.6" cy="16.6" r="1.9"/>
					<circle class="st36" cx="12.1" cy="21" r="1.9"/>
				</g>
			</g>
		</g>
	</g>
</g>
</svg>
