<svg id="Layer_1" data-name="Layer 1" xmlns="http://www.w3.org/2000/svg" xmlns:xlink="http://www.w3.org/1999/xlink" viewBox="0 0 565.5 501"><defs><style>.cls-1,.cls-22,.cls-23,.cls-24{fill:#fff;}.cls-1,.cls-15,.cls-16,.cls-17,.cls-18,.cls-3,.cls-4,.cls-5,.cls-6,.cls-7,.cls-8{fill-rule:evenodd;}.cls-13,.cls-2{fill:none;}.cls-3{fill:#213648;}.cls-15,.cls-4{fill-opacity:0.65;opacity:0.6;}.cls-12,.cls-15,.cls-16,.cls-17,.cls-20,.cls-23,.cls-24,.cls-4,.cls-5,.cls-6{isolation:isolate;}.cls-4{fill:url(#linear-gradient);}.cls-16,.cls-17,.cls-5,.cls-6{opacity:0.75;}.cls-5{fill:url(#linear-gradient-2);}.cls-6{fill:url(#linear-gradient-3);}.cls-7{fill:#2e423c;}.cls-11,.cls-20,.cls-8{fill:#36536b;}.cls-9{mask:url(#mask);}.cls-10{fill:#fbfcfe;}.cls-12,.cls-14{fill:#ba4270;}.cls-12,.cls-24{opacity:0.25;}.cls-13{stroke:#ba4270;stroke-width:3px;}.cls-15{fill:url(#linear-gradient-4);}.cls-16{fill:url(#linear-gradient-5);}.cls-17{fill:url(#linear-gradient-6);}.cls-18{fill:#edf3f8;}.cls-19{mask:url(#mask-2);}.cls-20{opacity:0.7;}.cls-21{clip-path:url(#clip-path);}.cls-23{opacity:0.5;}</style><linearGradient id="linear-gradient" x1="438.34" y1="552" x2="438.34" y2="539.68" gradientTransform="matrix(1, 0, 0, -1, 0, 552)" gradientUnits="userSpaceOnUse"><stop offset="0" stop-color="#454545"/><stop offset="0.23" stop-color="#999"/><stop offset="1" stop-color="#fff"/></linearGradient><linearGradient id="linear-gradient-2" x1="567.1" y1="303.17" x2="557.64" y2="303.17" gradientTransform="matrix(1, 0, 0, -1, 0, 552)" gradientUnits="userSpaceOnUse"><stop offset="0" stop-color="#fff" stop-opacity="0.01"/><stop offset="0.22" stop-color="#bababa"/><stop offset="0.55" stop-color="#fff" stop-opacity="0.01"/><stop offset="1" stop-color="#fff" stop-opacity="0.01"/></linearGradient><linearGradient id="linear-gradient-3" x1="309.57" y1="303.17" x2="319.04" y2="303.17" xlink:href="#linear-gradient-2"/><mask id="mask" x="318.07" y="12.44" width="232.61" height="464.12" maskUnits="userSpaceOnUse"><g transform="translate(-4)"><g id="mask0"><path class="cls-1" d="M415.7,12.4H341.3c-11.1,0-19.2,7.6-19.2,17.5V452.3c0,12.9,12.5,24.3,26.6,24.3H528c13.7,0,26.7-11.5,26.7-24.3V31c0-11.8-8.8-18.5-19.2-18.6H459.9a14.6,14.6,0,0,0-7.7,7.6c-2.2,5.4-6.6,9.7-11.4,9.7h-5.6c-2.3,0-8.4-2.3-11.4-9.7S416,12.5,415.7,12.4Z"/></g></g></mask><linearGradient id="linear-gradient-4" x1="135.34" x2="135.34" y2="539.68" xlink:href="#linear-gradient"/><linearGradient id="linear-gradient-5" x1="264.1" y1="303.17" x2="254.64" y2="303.17" xlink:href="#linear-gradient-2"/><linearGradient id="linear-gradient-6" x1="6.57" y1="303.17" x2="16.04" y2="303.17" xlink:href="#linear-gradient-2"/><mask id="mask-2" x="15.07" y="12.44" width="233" height="488.56" maskUnits="userSpaceOnUse"><g transform="translate(-4)"><g id="mask1"><path class="cls-1" d="M112.7,12.4H38.3c-11.1,0-19.2,7.6-19.2,17.5V452.3c0,12.9,12.5,24.3,26.6,24.3H225c13.7,0,26.7-11.5,26.7-24.3V31c0-11.8-8.8-18.5-19.2-18.6H156.9a14.6,14.6,0,0,0-7.7,7.6c-2.2,5.4-6.6,9.7-11.4,9.7h-5.6c-2.3,0-8.4-2.3-11.4-9.7S113,12.5,112.7,12.4Z"/></g></g></mask><clipPath id="clip-path" transform="translate(-4)"><rect class="cls-2" x="34" y="93" width="204" height="56"/></clipPath></defs><title>illustration-simple-ui4</title><path class="cls-3" d="M342.8.6H534c18.3,0,33.2,14.2,33.2,31.8V467.6c0,17.6-14.9,31.8-33.2,31.8H342.8c-18.4,0-33.2-14.2-33.2-31.8V32.4C309.6,14.8,324.4.6,342.8.6Z" transform="translate(-4)"/><path class="cls-4" d="M534.7,0H341.9c-9,.5-17.3,4.7-24.9,12.3,4.9-4.2,13.6-10,25.2-10H534.5c11.5,0,20.3,5.8,25.2,10C552.1,4.7,543.8.5,534.7,0Z" transform="translate(-4)"/><path class="cls-5" d="M562,462.7V35c0-11.5-4.2-15.7-6.7-18.5s-2.7-4.1,1-2,10.8,8,10.8,20.5V462.7c0,12.4-7.2,18.4-10.8,20.5s-3.5.6-1-2.1S562,474.1,562,462.7Z" transform="translate(-4)"/><path class="cls-6" d="M314.7,462.7V35c0-11.5,4.2-15.7,6.7-18.5s2.6-4.1-1-2-10.8,8-10.8,20.5V462.7c0,12.4,7.2,18.4,10.8,20.5s3.5.6,1-2.1S314.7,474.1,314.7,462.7Z" transform="translate(-4)"/><path class="cls-7" d="M307,103.6a2,2,0,0,1,2-2h1a2,2,0,0,1,2,2v60.3a2,2,0,0,1-2,2h-1a2,2,0,0,1-2-2Z" transform="translate(-4)"/><path class="cls-7" d="M564.5,156a2,2,0,0,1,2-2h1a2,2,0,0,1,2,2v43a2,2,0,0,1-2,2h-1a2,2,0,0,1-2-2Z" transform="translate(-4)"/><path class="cls-8" d="M415.7,12.4H341.3c-11.1,0-19.2,7.6-19.2,17.5V452.3c0,12.9,12.5,24.3,26.6,24.3H528c13.7,0,26.7-11.5,26.7-24.3V31c0-11.8-8.8-18.5-19.2-18.6H459.9a14.6,14.6,0,0,0-7.7,7.6c-2.2,5.4-6.6,9.7-11.4,9.7h-5.6c-2.3,0-8.4-2.3-11.4-9.7S416,12.5,415.7,12.4Z" transform="translate(-4)"/><rect class="cls-10" x="346" y="142" width="176" height="191" rx="5"/><path class="cls-11" d="M383.6,260v-9.4h3.2a5.7,5.7,0,0,1,1.8.3,4,4,0,0,1,1.2,1,3.1,3.1,0,0,1,.5,1.7,3,3,0,0,1-.5,1.6,2.7,2.7,0,0,1-1.1,1,4.8,4.8,0,0,1-1.8.3h-2.1V260Zm1.2-4.5h2.1a2.5,2.5,0,0,0,1.6-.5,2,2,0,0,0,.6-1.5,1.7,1.7,0,0,0-.6-1.4,3,3,0,0,0-1.6-.5h-2.1Zm8.5,4.6a2.2,2.2,0,0,1-1.2-.2,2.7,2.7,0,0,1-.8-.7,1.7,1.7,0,0,1-.3-1,2,2,0,0,1,.8-1.7,6.5,6.5,0,0,1,2.5-.6h1.2v-.5a1.5,1.5,0,0,0-.3-1,2.1,2.1,0,0,0-1.2-.4,1.7,1.7,0,0,0-1,.3,1.5,1.5,0,0,0-.6.9h-1a1.8,1.8,0,0,1,.3-1.1,2.3,2.3,0,0,1,1-.7,3.4,3.4,0,0,1,2.8,0,2.2,2.2,0,0,1,.9.7,2.1,2.1,0,0,1,.3,1.2V260h-1v-1.3a2.2,2.2,0,0,1-1,1.1A3.1,3.1,0,0,1,393.3,260.1Zm.3-.8.7-.2c.2,0,.4-.2.6-.3s.3-.3.5-.5a.7.7,0,0,0,.1-.5v-1.2h-2.3a1.3,1.3,0,0,0-.7.5,1,1,0,0,0-.3.8.9.9,0,0,0,.4.8A1.3,1.3,0,0,0,393.6,259.3Zm5.5,2.8h-1v-.8h1.3l.4-.2.2-.3c0-.1.1-.1.1-.2l.3-.7-2.7-6.5h1.2l2,5.2,2-5.2h1.2l-2.9,7.2a2.3,2.3,0,0,1-.5,1l-.8.5Zm6.2-2.1v-6.7h1.1v1a3,3,0,0,1,.8-.8,2.1,2.1,0,0,1,1.2-.4l.8.2.7.3.5.6a2.7,2.7,0,0,1,.8-.7,2.8,2.8,0,0,1,1.2-.4l.8.2.7.3a2.8,2.8,0,0,1,.7,2V260h-1.2v-4.3a2,2,0,0,0-.2-.9,1.2,1.2,0,0,0-.5-.5h-1.3a.9.9,0,0,0-.6.4,1.1,1.1,0,0,0-.3.8V260h-1.2v-4.6a.8.8,0,0,0-.2-.7,1,1,0,0,0-.5-.4h-1.3a.9.9,0,0,0-.6.4,1.1,1.1,0,0,0-.2.8V260Zm12-3.1a2.5,2.5,0,0,0,.2,1.2,1.6,1.6,0,0,0,.6.8,2.2,2.2,0,0,0,2.2,0,1.5,1.5,0,0,0,.6-.9H422a1.7,1.7,0,0,1-.5,1.2l-1,.7a3.8,3.8,0,0,1-2.9-.2,2.8,2.8,0,0,1-1.2-1.2,4.8,4.8,0,0,1-.4-1.8,5.8,5.8,0,0,1,.4-1.9,3.2,3.2,0,0,1,1.1-1.2,2.8,2.8,0,0,1,1.6-.5,2.5,2.5,0,0,1,1.6.5,1.8,1.8,0,0,1,1,1.1,3.4,3.4,0,0,1,.4,1.8v.4Zm0-.8h3.6a1.6,1.6,0,0,0-.2-1,1.6,1.6,0,0,0-.6-.8,1.5,1.5,0,0,0-1-.2,1.7,1.7,0,0,0-1,.3,1.3,1.3,0,0,0-.6.7A2,2,0,0,0,417.3,256.1Zm6.3,3.9v-6.7h1.2v1l.4-.6.7-.4h1l1.2.2.8.8a2.9,2.9,0,0,1,.4,1.4V260H428v-4.3a1.2,1.2,0,0,0-.4-1.1,1.2,1.2,0,0,0-1-.4h-.9a1.5,1.5,0,0,0-.6.5.9.9,0,0,0-.3.7V260Zm10.5-5.8h-1.5v4.1c0,.3,0,.5.1.6s.1.1.2.2h1.3v.8h-1c-.5,0-.9,0-1.1-.2a.8.8,0,0,1-.5-.5,2.9,2.9,0,0,1-.2-.9v-4.2h-1.1v-.9h1.1l.3-2h.9v2h1.5Zm7.1,5.9a3.1,3.1,0,0,1-1.7-.4,2.2,2.2,0,0,1-1-1.1,4.1,4.1,0,0,1-.4-1.9,5.4,5.4,0,0,1,.3-1.9,3.2,3.2,0,0,1,1.1-1.2,2.9,2.9,0,0,1,1.7-.5,3,3,0,0,1,1.6.5,2.2,2.2,0,0,1,1,1.1,4.2,4.2,0,0,1,.4,2,4.8,4.8,0,0,1-.3,1.8,3.2,3.2,0,0,1-1.1,1.2A2.7,2.7,0,0,1,441.2,260.1Zm0-.9a1.7,1.7,0,0,0,1-.3,1.5,1.5,0,0,0,.6-.9,4.7,4.7,0,0,0,0-2.7,2.4,2.4,0,0,0-.6-.9,1.5,1.5,0,0,0-1-.3,2,2,0,0,0-1.1.3,1.5,1.5,0,0,0-.6.9,2.5,2.5,0,0,0-.2,1.3,2.7,2.7,0,0,0,.2,1.3,1.5,1.5,0,0,0,.6.9A1.2,1.2,0,0,0,441.2,259.2Zm8-5.9v.9h-1.6V260h-1.2v-5.8H445v-.9h1.4v-1.1a1.4,1.4,0,0,1,1.6-1.6h1.3v.9h-1c-.3,0-.5,0-.6.2s-.1.3-.1.6v1Zm7.9,6.8a5.4,5.4,0,0,1-2.7-.6,2.8,2.8,0,0,1-1.2-2.1h1.9a1.8,1.8,0,0,0,.7,1,2.5,2.5,0,0,0,1.3.3h.8l.6-.4a1.4,1.4,0,0,0,.2-.6,1,1,0,0,0-.3-.8,2.3,2.3,0,0,0-1-.4l-1.6-.4a3,3,0,0,1-1.7-.8,2.4,2.4,0,0,1-.7-1.7,3,3,0,0,1,.5-1.6,4.5,4.5,0,0,1,1.3-1,5.8,5.8,0,0,1,1.9-.3,4.1,4.1,0,0,1,1.9.4,2.2,2.2,0,0,1,1.1,1,2.4,2.4,0,0,1,.5,1.4h-2a1.8,1.8,0,0,0-.4-1,1.6,1.6,0,0,0-1.1-.3h-.7l-.5.2-.3.4a.6.6,0,0,0-.1.4,1.4,1.4,0,0,0,.2.7l1.1.4,1.5.4a3.8,3.8,0,0,1,1.9,1,3.5,3.5,0,0,1,.5,1.8,2.4,2.4,0,0,1-.4,1.5,2.5,2.5,0,0,1-1.3.9A5.4,5.4,0,0,1,457.1,260.1Zm-.8-10.8h1.6v1.6h-1.6Zm0,10.3h1.6v1.6h-1.6Zm9,.5a5.1,5.1,0,0,1-1.7-.3,2.7,2.7,0,0,1-1.2-.9,2.7,2.7,0,0,1-.5-1.5h1.8a1.3,1.3,0,0,0,.5.9,1.7,1.7,0,0,0,1,.3,2.1,2.1,0,0,0,1.2-.3,2.1,2.1,0,0,0,.8-1,5.1,5.1,0,0,0,.1-1.8,1.3,1.3,0,0,1-.5.6l-.7.4h-1a4.7,4.7,0,0,1-1.7-.3,2.9,2.9,0,0,1-1.1-1.1,2.4,2.4,0,0,1-.4-1.5,3.1,3.1,0,0,1,.4-1.7,3.2,3.2,0,0,1,1.2-1.1,4.1,4.1,0,0,1,1.9-.4,4.6,4.6,0,0,1,2.1.5,4.5,4.5,0,0,1,1.3,1.7,5.7,5.7,0,0,1,.5,2.4,7.4,7.4,0,0,1-.5,2.8,3.4,3.4,0,0,1-1.4,1.7A3.6,3.6,0,0,1,465.3,260.1Zm.2-5a1,1,0,0,0,.7-.2.9.9,0,0,0,.6-.4.9.9,0,0,0,.3-.6,3.6,3.6,0,0,0-.2-1.1,2,2,0,0,0-.6-.7l-.8-.2-.8.2c-.3.2-.5.3-.6.6a2.4,2.4,0,0,0-.2.9,1.4,1.4,0,0,0,.4,1.1A1.6,1.6,0,0,0,465.5,255.1Zm5,4.9v-1.4a5.1,5.1,0,0,1,.2-1.3l.7-.9,1-.6,1.1-.6.9-.5.7-.6a1.1,1.1,0,0,0,.3-.8,1,1,0,0,0-.4-.9,1.8,1.8,0,0,0-1.1-.4,1.7,1.7,0,0,0-1.2.5,1.7,1.7,0,0,0-.6,1.2h-1.8a2.7,2.7,0,0,1,.4-1.6,3.4,3.4,0,0,1,1.2-1.2,4.6,4.6,0,0,1,2.1-.4,4.8,4.8,0,0,1,1.8.3,4,4,0,0,1,1.2,1,3.3,3.3,0,0,1,.4,1.5,2.1,2.1,0,0,1-.3,1.2,1.6,1.6,0,0,1-.7.9,2.4,2.4,0,0,1-.9.6l-1,.6-1,.4-.7.6a1.4,1.4,0,0,0-.2.7h4.8V260Zm11.6-9.5a3.1,3.1,0,0,1,2.6,1.2,5.7,5.7,0,0,1,1,3.6,5.3,5.3,0,0,1-1,3.6,3.1,3.1,0,0,1-2.6,1.2,3.3,3.3,0,0,1-2.7-1.2,6,6,0,0,1-.9-3.6,6.8,6.8,0,0,1,.4-2.6,3.7,3.7,0,0,1,1.3-1.7A3.6,3.6,0,0,1,482.1,250.5Zm0,8.1a1.3,1.3,0,0,0,1.2-.8,5.1,5.1,0,0,0,.4-2.5,5.9,5.9,0,0,0-.4-2.6,1.3,1.3,0,0,0-1.2-.7,1.3,1.3,0,0,0-1.3.8,8,8,0,0,0,0,5A1.4,1.4,0,0,0,482.1,258.6Zm8.9-8h1.8v5.7h1.5v1.6h-1.5V260H491v-2.1h-4.3v-1.5Zm-2.6,5.7H491v-3.4Zm-98.1,15V278h-1.2v-6.7Zm0-2.7v1.3h-1.2v-1.3Zm4.4,9.5a2.7,2.7,0,0,1-1.3-.2,2.3,2.3,0,0,1-1-.7,2.2,2.2,0,0,1-.5-1.2H393l.3.7.6.4h.8l1.1-.2a.9.9,0,0,0,.4-.8,1.4,1.4,0,0,0-.2-.6,1.5,1.5,0,0,0-.7-.3l-1.4-.4a3.1,3.1,0,0,1-1.3-.6,1.4,1.4,0,0,1-.5-1.1,2,2,0,0,1,.3-1.1,2.2,2.2,0,0,1,.9-.7,2.9,2.9,0,0,1,1.4-.3,3.5,3.5,0,0,1,1.8.5,2.4,2.4,0,0,1,.7,1.5h-1.1a1.2,1.2,0,0,0-.4-.8,1.7,1.7,0,0,0-1-.3,2,2,0,0,0-1.1.3,1,1,0,0,0-.4.8.9.9,0,0,0,.3.6l.9.3,1.3.3a2,2,0,0,1,.8.4l.5.4c.1.2.2.3.2.5a1.1,1.1,0,0,1,.1.5,2,2,0,0,1-.3,1.1,2.2,2.2,0,0,1-.9.7Zm9.5-7a2.8,2.8,0,0,1,1.3.3,3.9,3.9,0,0,1,1,.8,2.1,2.1,0,0,1,.4,1.2h-1l-.3-.6a1,1,0,0,0-.6-.5l-.8-.2a2,2,0,0,0-1.4.6,3.7,3.7,0,0,0-.5,2,3.5,3.5,0,0,0,.5,1.8,1.6,1.6,0,0,0,1.5.7,1.2,1.2,0,0,0,.8-.2,1,1,0,0,0,.5-.4l.3-.7h1a2.1,2.1,0,0,1-.4,1.2,3.9,3.9,0,0,1-1,.8l-1.3.2a2.9,2.9,0,0,1-1.6-.4,2.9,2.9,0,0,1-1.1-1.1,4.7,4.7,0,0,1,0-3.8,2.9,2.9,0,0,1,1-1.2A3.4,3.4,0,0,1,404.2,271.1Zm6.9,7a2.9,2.9,0,0,1-1.6-.4,2.3,2.3,0,0,1-1.1-1.1,5.8,5.8,0,0,1-.4-1.9,5.3,5.3,0,0,1,.4-1.9,2.9,2.9,0,0,1,1-1.2,3.4,3.4,0,0,1,1.7-.5,2.5,2.5,0,0,1,1.6.5,2,2,0,0,1,1.1,1.1,4.2,4.2,0,0,1,.4,2,3.4,3.4,0,0,1-.4,1.8,2.3,2.3,0,0,1-1,1.2A2.9,2.9,0,0,1,411.1,278.1Zm0-.9a2,2,0,0,0,1.1-.3,3.5,3.5,0,0,0,.6-.9,5.2,5.2,0,0,0,.2-1.4,5.9,5.9,0,0,0-.2-1.3,2.4,2.4,0,0,0-.6-.9,1.8,1.8,0,0,0-1.1-.3,1.7,1.7,0,0,0-1,.3,1.5,1.5,0,0,0-.6.9,2.5,2.5,0,0,0-.3,1.3,5.1,5.1,0,0,0,.2,1.3,3.5,3.5,0,0,0,.6.9A1.5,1.5,0,0,0,411.1,277.2Zm4.6.8v-6.7h1.1v1a3,3,0,0,1,.8-.8,2.2,2.2,0,0,1,1.3-.4l.7.2.7.3.5.6a2.7,2.7,0,0,1,.8-.7,2.8,2.8,0,0,1,1.2-.4l.8.2.7.3a2.8,2.8,0,0,1,.7,2V278h-1.2v-4.3c0-.4,0-.7-.2-.9a1.2,1.2,0,0,0-.5-.5h-1.3a.9.9,0,0,0-.6.4,1.1,1.1,0,0,0-.3.8V278h-1.2v-4.6a.8.8,0,0,0-.2-.7,1,1,0,0,0-.5-.4h-1.3a1.3,1.3,0,0,0-.6.4,1.1,1.1,0,0,0-.2.8V278Zm11.1,2.1v-8.8H428v1.1l.3-.4.5-.4.6-.3.8-.2a2.9,2.9,0,0,1,1.4.4,2.1,2.1,0,0,1,1,1.1,5.3,5.3,0,0,1,.4,1.9,5.4,5.4,0,0,1-.4,2,2.7,2.7,0,0,1-.9,1.2,2.9,2.9,0,0,1-1.6.4h-.8l-.6-.3-.4-.5-.3-.4v3.3Zm3.1-2.9a1.8,1.8,0,0,0,1.4-.6,3.7,3.7,0,0,0,.5-2,3,3,0,0,0-.5-1.8,1.8,1.8,0,0,0-2.8,0,3,3,0,0,0-.5,1.8,5.1,5.1,0,0,0,.2,1.3,2.2,2.2,0,0,0,.7.9A1.2,1.2,0,0,0,429.9,277.2Zm6.2.9-.9-.2a1,1,0,0,1-.5-.4.8.8,0,0,1-.2-.5,2,2,0,0,1-.1-.7v-8h1.2v7.9a1.4,1.4,0,0,0,.2.7.6.6,0,0,0,.6.3h.3v.8h-.6Zm2.8-3.2a2.7,2.7,0,0,0,.3,1.2,1.6,1.6,0,0,0,.6.8,1.8,1.8,0,0,0,1.1.3,2,2,0,0,0,1.1-.3,1.5,1.5,0,0,0,.6-.9h1.1a2.2,2.2,0,0,1-.5,1.2l-1,.7a3,3,0,0,1-1.3.2,3.3,3.3,0,0,1-1.7-.4,3.2,3.2,0,0,1-1.1-1.2,4.8,4.8,0,0,1-.4-1.8,4.1,4.1,0,0,1,.4-1.9,2.9,2.9,0,0,1,1-1.2,3.4,3.4,0,0,1,1.7-.5,2.8,2.8,0,0,1,1.6.5,1.8,1.8,0,0,1,1,1.1,4.8,4.8,0,0,1,.4,1.8v.4Zm.1-.8h3.6a3,3,0,0,0-.2-1,1.6,1.6,0,0,0-.6-.8,1.6,1.6,0,0,0-1-.2,1.5,1.5,0,0,0-1,.3,2.3,2.3,0,0,0-.7.7A1.8,1.8,0,0,0,439,274.1Zm9.5-1.9H447v4.1c0,.3,0,.5.1.6s.1.1.2.2h1.2v.8c0,.1-.2.1-.3.1h-.6c-.5,0-.9,0-1.1-.2a1,1,0,0,1-.6-.5,2.8,2.8,0,0,1-.1-.9v-4.2h-1.1v-.9h1.1l.3-2h.9v2h1.5Zm2.3,2.7a5,5,0,0,0,.2,1.2,2.7,2.7,0,0,0,.7.8,1.8,1.8,0,0,0,1.1.3,2,2,0,0,0,1.1-.3,1.5,1.5,0,0,0,.6-.9h1.1a2.3,2.3,0,0,1-.6,1.2,2.8,2.8,0,0,1-2.2.9,3.3,3.3,0,0,1-1.7-.4,2.6,2.6,0,0,1-1.1-1.2,3.4,3.4,0,0,1-.4-1.8,4.1,4.1,0,0,1,.4-1.9,2.9,2.9,0,0,1,1-1.2,3.1,3.1,0,0,1,1.7-.5,2.8,2.8,0,0,1,1.6.5,2.2,2.2,0,0,1,1,1.1,4.8,4.8,0,0,1,.3,1.8v.4Zm0-.8h3.7a3,3,0,0,0-.2-1,1.6,1.6,0,0,0-.6-.8,1.6,1.6,0,0,0-1-.2,2,2,0,0,0-1.1.3l-.6.7A4.4,4.4,0,0,0,450.8,274.1Zm8.8,4a2.6,2.6,0,0,1-2.1-.9,3.8,3.8,0,0,1-.7-2.6,4.8,4.8,0,0,1,.3-1.8,2.7,2.7,0,0,1,.9-1.2,2.5,2.5,0,0,1,1.5-.5l.9.2.6.3.5.4c.1.1.2.2.2.3v-4h1.2V278H462v-1.4l-.2.5-.4.5-.7.4Zm.2-.9a1.8,1.8,0,0,0,1.5-.6,3.5,3.5,0,0,0,.4-2,5.2,5.2,0,0,0-.2-1.4,1.2,1.2,0,0,0-.6-.8,1.9,1.9,0,0,0-2.4.3,2.6,2.6,0,0,0-.5,1.9,3.6,3.6,0,0,0,.4,1.9A1.6,1.6,0,0,0,459.8,277.2Zm9.8.9a2.3,2.3,0,0,1-1.2-.2,2.7,2.7,0,0,1-.8-.7,1.6,1.6,0,0,1-.2-1,1.9,1.9,0,0,1,.7-1.7,7,7,0,0,1,2.5-.6h1.2v-.5a1.5,1.5,0,0,0-.3-1,2.1,2.1,0,0,0-1.2-.4,1.7,1.7,0,0,0-1,.3,1.5,1.5,0,0,0-.6.9h-1a1.8,1.8,0,0,1,.3-1.1,2.3,2.3,0,0,1,1-.7,3.4,3.4,0,0,1,2.8,0,2.2,2.2,0,0,1,.9.7,2.1,2.1,0,0,1,.3,1.2V278h-1v-1.3a2.2,2.2,0,0,1-1,1.1A2.8,2.8,0,0,1,469.6,278.1Zm.3-.8.7-.2c.2,0,.4-.2.6-.3a1.2,1.2,0,0,0,.5-.5.7.7,0,0,0,.1-.5v-1.2h-2.2a1.6,1.6,0,0,0-.8.5,1,1,0,0,0-.3.8,1.2,1.2,0,0,0,.4.8A1.3,1.3,0,0,0,469.9,277.3Zm5,.7v-6.7h1.2v1l.5-.6.7-.4h.9l1.2.2a3,3,0,0,1,.8.8,2.1,2.1,0,0,1,.4,1.4V278h-1.2v-4.3a1.6,1.6,0,0,0-.4-1.1,1.5,1.5,0,0,0-1.1-.4H477l-.6.5a.9.9,0,0,0-.3.7V278Zm9.9.1a2.6,2.6,0,0,1-2.1-.9,3.8,3.8,0,0,1-.8-2.6,4.8,4.8,0,0,1,.3-1.8,4,4,0,0,1,1-1.2,2.5,2.5,0,0,1,1.5-.5l.8.2.7.3.4.4.3.3v-4h1.2V278h-.9v-1.4l-.3.5-.4.5-.6.4Zm.2-.9c.7,0,1.2-.2,1.4-.6a3.4,3.4,0,0,0,.5-2,5.2,5.2,0,0,0-.2-1.4,1.2,1.2,0,0,0-.6-.8,1.8,1.8,0,0,0-1.1-.3,1.6,1.6,0,0,0-1.3.6,2.5,2.5,0,0,0-.6,1.9,3.6,3.6,0,0,0,.5,1.9A1.5,1.5,0,0,0,485,277.2ZM370,298.1v-8.8h1.2v1.1l.3-.4.5-.4.6-.3.8-.2a3.3,3.3,0,0,1,1.5.4,2.4,2.4,0,0,1,.9,1.1,5.3,5.3,0,0,1,.4,1.9,4,4,0,0,1-.4,2,2.7,2.7,0,0,1-.9,1.2,2.9,2.9,0,0,1-1.6.4h-.8l-.6-.3-.4-.5-.3-.4v3.3Zm3.1-2.9a1.8,1.8,0,0,0,1.4-.6,3.7,3.7,0,0,0,.5-2,3,3,0,0,0-.5-1.8,1.7,1.7,0,0,0-2.8,0,3,3,0,0,0-.5,1.8,5.1,5.1,0,0,0,.2,1.3,2.2,2.2,0,0,0,.7.9A1.3,1.3,0,0,0,373.1,295.2Zm4.5.8v-6.7h1.2v1.3a2.2,2.2,0,0,1,.5-.8,1.8,1.8,0,0,1,.7-.5l.8-.2h.5v1.2H380l-.6.2a1,1,0,0,0-.4.5,1.4,1.4,0,0,0-.2.7V296Zm7.5.1a2.7,2.7,0,0,1-1.6-.4,2.3,2.3,0,0,1-1.1-1.1,4.1,4.1,0,0,1-.4-1.9,3.8,3.8,0,0,1,.4-1.9,2.9,2.9,0,0,1,1-1.2,3.1,3.1,0,0,1,1.7-.5,2.8,2.8,0,0,1,1.6.5,2.3,2.3,0,0,1,1.1,1.1,5.9,5.9,0,0,1,.4,2,4.8,4.8,0,0,1-.4,1.8,2.9,2.9,0,0,1-1,1.2A3.1,3.1,0,0,1,385.1,296.1Zm0-.9a1.7,1.7,0,0,0,1-.3,2.2,2.2,0,0,0,.7-.9,5.2,5.2,0,0,0,.2-1.4,5.9,5.9,0,0,0-.2-1.3,2.4,2.4,0,0,0-.6-.9,2,2,0,0,0-1.1-.3,1.5,1.5,0,0,0-1,.3,2.2,2.2,0,0,0-.7.9,4.4,4.4,0,0,0-.2,1.3,5.1,5.1,0,0,0,.2,1.3,1.5,1.5,0,0,0,.6.9A1.5,1.5,0,0,0,385.1,295.2Zm7.2-6.1a2.8,2.8,0,0,1,1.3.3,2.4,2.4,0,0,1,.9.8,1.7,1.7,0,0,1,.5,1.2h-1.1a1.4,1.4,0,0,0-.2-.6l-.6-.5-.8-.2a1.8,1.8,0,0,0-1.4.6,3,3,0,0,0-.5,2,2.7,2.7,0,0,0,.5,1.8,1.5,1.5,0,0,0,1.4.7,1.1,1.1,0,0,0,.8-.2l.6-.4.3-.7h1a2.2,2.2,0,0,1-.5,1.2,2.4,2.4,0,0,1-.9.8l-1.3.2a2.9,2.9,0,0,1-1.6-.4,2.3,2.3,0,0,1-1.1-1.1,4.7,4.7,0,0,1,0-3.8,2.9,2.9,0,0,1,1-1.2A3.1,3.1,0,0,1,392.3,289.1Zm5.1,3.8a5,5,0,0,0,.2,1.2,2.4,2.4,0,0,0,.6.8,2,2,0,0,0,1.1.3,1.8,1.8,0,0,0,1.1-.3,1.5,1.5,0,0,0,.6-.9h1.2a2.3,2.3,0,0,1-.6,1.2l-1,.7a2.5,2.5,0,0,1-1.2.2,3.1,3.1,0,0,1-1.7-.4,2.6,2.6,0,0,1-1.1-1.2,3.4,3.4,0,0,1-.4-1.8,5.8,5.8,0,0,1,.3-1.9,3.2,3.2,0,0,1,1.1-1.2,3.1,3.1,0,0,1,1.7-.5,3,3,0,0,1,1.6.5,2.7,2.7,0,0,1,1,1.1,4.8,4.8,0,0,1,.3,1.8v.4Zm0-.8h3.7a3,3,0,0,0-.2-1l-.6-.8a1.6,1.6,0,0,0-1-.2,1.8,1.8,0,0,0-1.1.3,1.3,1.3,0,0,0-.6.7A4.4,4.4,0,0,0,397.4,292.1Zm8.7,4a2.7,2.7,0,0,1-1.3-.2,2.3,2.3,0,0,1-1-.7,2.2,2.2,0,0,1-.5-1.2h1.1a1.5,1.5,0,0,0,.3.7l.6.4h.8l1.1-.2a.9.9,0,0,0,.4-.8,1.4,1.4,0,0,0-.2-.6,1.5,1.5,0,0,0-.7-.3l-1.4-.4a2.6,2.6,0,0,1-1.3-.6,1.4,1.4,0,0,1-.5-1.1,2,2,0,0,1,.3-1.1,2.2,2.2,0,0,1,.9-.7,2.6,2.6,0,0,1,1.4-.3,3.5,3.5,0,0,1,1.8.5,2.4,2.4,0,0,1,.7,1.5h-1.1a1.2,1.2,0,0,0-.4-.8,1.7,1.7,0,0,0-1-.3,1.8,1.8,0,0,0-1.1.3,1,1,0,0,0-.4.8.9.9,0,0,0,.3.6l.9.3,1.3.3a2,2,0,0,1,.8.4l.5.4c.1.2.2.3.2.5a1.1,1.1,0,0,1,.1.5,2,2,0,0,1-.3,1.1,2.2,2.2,0,0,1-.9.7Zm6.4,0a3,3,0,0,1-1.3-.2,2.3,2.3,0,0,1-1-.7,3.3,3.3,0,0,1-.5-1.2h1.1l.3.7.6.4h.8l1.1-.2a.9.9,0,0,0,.4-.8.7.7,0,0,0-.2-.6,1.1,1.1,0,0,0-.7-.3l-1.3-.4a2.3,2.3,0,0,1-1.3-.6,1.2,1.2,0,0,1-.5-1.1,3.6,3.6,0,0,1,.2-1.1,2.2,2.2,0,0,1,.9-.7,3.5,3.5,0,0,1,3.2.2,2,2,0,0,1,.7,1.5h-1.1a1.2,1.2,0,0,0-.4-.8,1.8,1.8,0,0,0-2,0,.8.8,0,0,0-.4.8.9.9,0,0,0,.3.6l.8.3,1.3.3a1.5,1.5,0,0,1,.8.4,1,1,0,0,1,.5.4c.1.2.2.3.2.5a1.1,1.1,0,0,1,.1.5,2,2,0,0,1-.3,1.1,2.2,2.2,0,0,1-.9.7Zm5.1-3.2a2.5,2.5,0,0,0,.2,1.2,1.6,1.6,0,0,0,.6.8,2.2,2.2,0,0,0,2.2,0,1.5,1.5,0,0,0,.6-.9h1.1a1.7,1.7,0,0,1-.5,1.2l-1,.7a3.8,3.8,0,0,1-2.9-.2,2.8,2.8,0,0,1-1.2-1.2,4.8,4.8,0,0,1-.4-1.8,5.8,5.8,0,0,1,.4-1.9,3.2,3.2,0,0,1,1.1-1.2,2.8,2.8,0,0,1,1.6-.5,2.5,2.5,0,0,1,1.6.5,1.8,1.8,0,0,1,1,1.1,3.4,3.4,0,0,1,.4,1.8v.4Zm0-.8h3.6a1.6,1.6,0,0,0-.2-1,1.6,1.6,0,0,0-.6-.8,1.5,1.5,0,0,0-1-.2,1.7,1.7,0,0,0-1,.3,1.3,1.3,0,0,0-.6.7A2,2,0,0,0,417.6,292.1Zm8.8,4a2.6,2.6,0,0,1-2.1-.9,3.8,3.8,0,0,1-.8-2.6,4.8,4.8,0,0,1,.3-1.8,2.7,2.7,0,0,1,.9-1.2,2.8,2.8,0,0,1,1.6-.5l.8.2.7.3c.1.1.3.2.4.4l.3.3v-4h1.2V296h-.9l-.2-1.4c0,.2-.1.3-.2.5l-.4.5-.7.4Zm.2-.9a1.7,1.7,0,0,0,1.4-.6,3.4,3.4,0,0,0,.5-2,5.2,5.2,0,0,0-.2-1.4,2.8,2.8,0,0,0-.6-.8,2,2,0,0,0-1.1-.3,1.8,1.8,0,0,0-1.4.6,3.1,3.1,0,0,0-.5,1.9,3.6,3.6,0,0,0,.5,1.9A1.5,1.5,0,0,0,426.6,295.2Zm10.2.9a3,3,0,0,1-1.3-.2,2.3,2.3,0,0,1-1-.7,3.3,3.3,0,0,1-.5-1.2h1.1a1.6,1.6,0,0,0,.4.7.9.9,0,0,0,.6.4h.7l1.1-.2a.9.9,0,0,0,.4-.8.7.7,0,0,0-.2-.6.9.9,0,0,0-.6-.3l-1.4-.4a2.3,2.3,0,0,1-1.3-.6,1.2,1.2,0,0,1-.5-1.1,2,2,0,0,1,.3-1.1c.1-.3.4-.5.8-.7a3.5,3.5,0,0,1,3.2.2,2,2,0,0,1,.7,1.5h-1.1a1.2,1.2,0,0,0-.4-.8,1.8,1.8,0,0,0-2,0,.8.8,0,0,0-.4.8.9.9,0,0,0,.3.6l.8.3,1.3.3a1.5,1.5,0,0,1,.8.4,1,1,0,0,1,.5.4c.1.2.2.3.2.5a1.1,1.1,0,0,1,.1.5,2,2,0,0,1-.3,1.1,2.2,2.2,0,0,1-.9.7Zm6.7,0h-1l-.8-.5a1.1,1.1,0,0,1-.6-.7,3,3,0,0,1-.2-1v-4.5h1.2v4.4a1.4,1.4,0,0,0,.4,1.1,2,2,0,0,0,2.4,0,1.4,1.4,0,0,0,.5-1.1v-4.4h1.2V296h-1v-1.3a1.5,1.5,0,0,1-.4.8l-.7.5Zm7.5-7a2.8,2.8,0,0,1,1.3.3,3.9,3.9,0,0,1,1,.8,2.1,2.1,0,0,1,.4,1.2h-1l-.3-.6a1,1,0,0,0-.6-.5l-.8-.2a2,2,0,0,0-1.4.6,3.7,3.7,0,0,0-.5,2,3.5,3.5,0,0,0,.5,1.8,1.5,1.5,0,0,0,1.4.7c.4,0,.6,0,.8-.2a.9.9,0,0,0,.6-.4l.3-.7h1a2.1,2.1,0,0,1-.4,1.2,3.9,3.9,0,0,1-1,.8l-1.3.2a2.9,2.9,0,0,1-1.6-.4,2.9,2.9,0,0,1-1.1-1.1,5.8,5.8,0,0,1-.4-1.9,4.1,4.1,0,0,1,.4-1.9,2.9,2.9,0,0,1,1-1.2A3.4,3.4,0,0,1,451,289.1Zm6.9,0a2.8,2.8,0,0,1,1.3.3,3.9,3.9,0,0,1,1,.8,2.1,2.1,0,0,1,.4,1.2h-1l-.3-.6a1,1,0,0,0-.6-.5l-.8-.2a2,2,0,0,0-1.4.6,3.7,3.7,0,0,0-.5,2,3.5,3.5,0,0,0,.5,1.8,1.6,1.6,0,0,0,1.5.7,1.2,1.2,0,0,0,.8-.2,1,1,0,0,0,.5-.4l.3-.7h1a2.1,2.1,0,0,1-.4,1.2,3.9,3.9,0,0,1-1,.8l-1.3.2a2.9,2.9,0,0,1-1.6-.4,2.9,2.9,0,0,1-1.1-1.1,4.7,4.7,0,0,1,0-3.8,2.9,2.9,0,0,1,1-1.2A3.4,3.4,0,0,1,457.9,289.1Zm5.1,3.8a5,5,0,0,0,.2,1.2,2.7,2.7,0,0,0,.7.8,1.8,1.8,0,0,0,1.1.3,2,2,0,0,0,1.1-.3,1.5,1.5,0,0,0,.6-.9h1.1a3.3,3.3,0,0,1-.5,1.2,4.1,4.1,0,0,1-1.1.7,2.5,2.5,0,0,1-1.2.2,3.3,3.3,0,0,1-1.7-.4,2.6,2.6,0,0,1-1.1-1.2,3.4,3.4,0,0,1-.4-1.8,4.1,4.1,0,0,1,.4-1.9,2.9,2.9,0,0,1,1-1.2,3.1,3.1,0,0,1,1.7-.5,2.8,2.8,0,0,1,1.6.5,2.2,2.2,0,0,1,1,1.1,4.8,4.8,0,0,1,.3,1.8v.4Zm0-.8h3.7a3,3,0,0,0-.2-1,1.6,1.6,0,0,0-.6-.8,1.6,1.6,0,0,0-1-.2,2,2,0,0,0-1.1.3l-.6.7A4.4,4.4,0,0,0,463,292.1Zm8.7,4a3,3,0,0,1-1.3-.2,2.3,2.3,0,0,1-1-.7,3.3,3.3,0,0,1-.5-1.2H470l.3.7.6.4h.8l1.1-.2a.9.9,0,0,0,.4-.8,1.4,1.4,0,0,0-.2-.6,1.1,1.1,0,0,0-.7-.3l-1.4-.4a3.1,3.1,0,0,1-1.3-.6,1.4,1.4,0,0,1-.4-1.1,1.4,1.4,0,0,1,.2-1.1,2.2,2.2,0,0,1,.9-.7,2.9,2.9,0,0,1,1.4-.3,3.5,3.5,0,0,1,1.8.5,2,2,0,0,1,.7,1.5h-1.1a1.2,1.2,0,0,0-.4-.8,1.7,1.7,0,0,0-1-.3,1.5,1.5,0,0,0-1,.3.8.8,0,0,0-.4.8.7.7,0,0,0,.2.6l.9.3,1.3.3a2,2,0,0,1,.8.4,1,1,0,0,1,.5.4c.1.2.2.3.2.5a1.1,1.1,0,0,1,.1.5,2,2,0,0,1-.3,1.1,2.2,2.2,0,0,1-.9.7Zm6.5,0a2.7,2.7,0,0,1-1.3-.2,1.8,1.8,0,0,1-1-.7,1.7,1.7,0,0,1-.5-1.2h1.1a.9.9,0,0,0,.3.7.9.9,0,0,0,.6.4h.8l1-.2a1,1,0,0,0,.5-.8.9.9,0,0,0-.3-.6.9.9,0,0,0-.6-.3l-1.4-.4a2.3,2.3,0,0,1-1.3-.6,1.4,1.4,0,0,1-.5-1.1,2,2,0,0,1,.3-1.1,1.9,1.9,0,0,1,.8-.7,3.3,3.3,0,0,1,1.5-.3,2.9,2.9,0,0,1,1.7.5,1.7,1.7,0,0,1,.7,1.5h-1a1.4,1.4,0,0,0-.5-.8,1.3,1.3,0,0,0-1-.3,1.7,1.7,0,0,0-1,.3.8.8,0,0,0-.4.8.9.9,0,0,0,.3.6l.8.3,1.4.3.7.4a1,1,0,0,1,.5.4l.3.5v.5a2,2,0,0,1-.3,1.1,2.2,2.2,0,0,1-.9.7Zm7.9-6.8v.9h-1.6V296h-1.2v-5.8h-1.4v-.9h1.4v-1.1a1.4,1.4,0,0,1,1.6-1.6h1.3v.9h-1c-.3,0-.5,0-.6.2s-.1.3-.1.6v1Zm3.9,6.8h-1l-.8-.5a1.1,1.1,0,0,1-.6-.7,3,3,0,0,1-.2-1v-4.5h1.2v4.4a1.4,1.4,0,0,0,.4,1.1,2,2,0,0,0,2.4,0,1.4,1.4,0,0,0,.5-1.1v-4.4h1.2V296h-1v-1.3a1.5,1.5,0,0,1-.4.8l-.7.5Zm6.6,0-.9-.2-.5-.4a.8.8,0,0,1-.2-.5c0-.3-.1-.5-.1-.7v-8h1.2v7.9a1.4,1.4,0,0,0,.2.7.6.6,0,0,0,.6.3h.3v.8h-.6Zm3.6,0-.9-.2a1,1,0,0,1-.5-.4.8.8,0,0,1-.2-.5,2,2,0,0,1-.1-.7v-8h1.2v7.9a1.4,1.4,0,0,0,.2.7.6.6,0,0,0,.6.3h.3v.8h-.6Zm2.5,2h-1v-.8H503l.4-.2.2-.3c.1-.1.1-.1.1-.2l.3-.7-2.7-6.5h1.3l1.9,5.2,2-5.2h1.2l-2.9,7.2a2.3,2.3,0,0,1-.5,1l-.8.5Z" transform="translate(-4)"/><circle class="cls-12" cx="433" cy="206" r="28"/><path class="cls-13" d="M428,207.7l4.6,4.6L445.9,199" transform="translate(-4)"/><path class="cls-14" d="M388,318H489a15,15,0,0,1,15,15h0a15,15,0,0,1-15,15H388a15,15,0,0,1-15-15h0A15,15,0,0,1,388,318Z" transform="translate(-4)"/><path class="cls-10" d="M419.6,329H422a5.2,5.2,0,0,1,2.3.5,2.4,2.4,0,0,1,1.3,1.3,4.7,4.7,0,0,1,0,4.2,2.7,2.7,0,0,1-1.4,1.4,5.2,5.2,0,0,1-2.3.5h-2.3Zm1.6,1.3v5.4h.7a2.8,2.8,0,0,0,1.3-.3,2.2,2.2,0,0,0,.9-.8,3.8,3.8,0,0,0,.3-1.6,3.3,3.3,0,0,0-.3-1.5,2.4,2.4,0,0,0-.8-.9,2.8,2.8,0,0,0-1.3-.3Zm7.6,1V337h-1.5v-5.7Zm0-2.2v1.4h-1.5v-1.4Zm3.6,8-1.1-.2a1.5,1.5,0,0,1-.9-.6,1.9,1.9,0,0,1-.5-1.1h1.4a.8.8,0,0,0,.2.5l.5.2h1.2a.5.5,0,0,0,.3-.5l-.2-.4-.6-.2-1-.2a3.3,3.3,0,0,1-1.2-.5,1.4,1.4,0,0,1-.4-1.1,1.5,1.5,0,0,1,.2-.9,2.7,2.7,0,0,1,.8-.7l1.3-.2a2.9,2.9,0,0,1,1.7.5,1.6,1.6,0,0,1,.7,1.3h-1.4a.5.5,0,0,0-.3-.5.8.8,0,0,0-.7-.2h-.7a.8.8,0,0,0-.2.5c0,.1,0,.2.2.3l.7.3.9.2a1.9,1.9,0,0,1,.8.3l.4.4a1.3,1.3,0,0,1,.3.5v.4a1.7,1.7,0,0,1-.3,1,1.6,1.6,0,0,1-.8.6Zm3.5-.1v-5.7h1.5v.8l.7-.6a2,2,0,0,1,1.1-.3h.6l.6.3a1,1,0,0,1,.4.5,2.4,2.4,0,0,1,.8-.6,1.7,1.7,0,0,1,1-.3h.6l.6.3.5.7a2.5,2.5,0,0,1,.1.9V337h-1.6v-3.6a.7.7,0,0,0-.1-.5l-.4-.3h-.8c-.2.1-.3.1-.4.3a.8.8,0,0,0-.2.5V337h-1.6v-3.7c0-.2,0-.3-.1-.4l-.3-.3H438l-.4.3a.7.7,0,0,0-.1.5V337Zm11.4-5.7V337h-1.6v-5.7Zm0-2.2v1.4h-1.6v-1.4Zm3.6,8-1.2-.2a2.4,2.4,0,0,1-.9-.6,2.8,2.8,0,0,1-.5-1.1h1.4c.1.2.1.4.3.5a.5.5,0,0,0,.4.2h1.2a.5.5,0,0,0,.3-.5.8.8,0,0,0-.2-.4l-.5-.2-1-.2a3.3,3.3,0,0,1-1.2-.5,1.4,1.4,0,0,1-.5-1.1,1.6,1.6,0,0,1,.3-.9c.1-.3.4-.5.8-.7l1.3-.2a3.1,3.1,0,0,1,1.7.5,1.5,1.5,0,0,1,.6,1.3h-1.3a.7.7,0,0,0-.4-.5c-.1-.2-.4-.2-.6-.2h-.7a.5.5,0,0,0-.3.5c0,.1.1.2.2.3l.7.3.9.2a1.5,1.5,0,0,1,.8.3l.5.4c.1.2.2.3.2.5s.1.3.1.4a1.7,1.7,0,0,1-.3,1,1.5,1.5,0,0,1-.9.6Zm5.6,0-1.2-.2a2.4,2.4,0,0,1-.9-.6,2.8,2.8,0,0,1-.5-1.1h1.4l.3.5.4.2h1.2a.5.5,0,0,0,.3-.5l-.2-.4-.5-.2-1-.2a3.3,3.3,0,0,1-1.2-.5,1.4,1.4,0,0,1-.5-1.1,1.6,1.6,0,0,1,.3-.9,1.9,1.9,0,0,1,.8-.7l1.3-.2a2.9,2.9,0,0,1,1.7.5,1.5,1.5,0,0,1,.6,1.3h-1.3a.7.7,0,0,0-.4-.5c-.1-.2-.4-.2-.6-.2h-.7a.5.5,0,0,0-.3.5c0,.1.1.2.2.3l.7.3.9.2a1.5,1.5,0,0,1,.8.3l.5.4c.1.2.2.3.2.5a.8.8,0,0,1,.1.4,1.7,1.7,0,0,1-.3,1,1.5,1.5,0,0,1-.9.6Z" transform="translate(-4)"/><path class="cls-3" d="M39.8.6H231c18.4,0,33.2,14.2,33.2,31.8V467.6c0,17.6-14.8,31.8-33.2,31.8H39.8c-18.4,0-33.2-14.2-33.2-31.8V32.4C6.6,14.8,21.4.6,39.8.6Z" transform="translate(-4)"/><path class="cls-15" d="M231.7,0H38.9C29.9.5,21.6,4.7,14,12.3c4.9-4.2,13.6-10,25.2-10H231.5c11.5,0,20.3,5.8,25.2,10C249.1,4.7,240.8.5,231.7,0Z" transform="translate(-4)"/><path class="cls-16" d="M259,462.7V35c0-11.5-4.2-15.7-6.7-18.5s-2.7-4.1,1-2,10.8,8,10.8,20.5V462.7c0,12.4-7.2,18.4-10.8,20.5s-3.5.6-1-2.1S259,474.1,259,462.7Z" transform="translate(-4)"/><path class="cls-17" d="M11.7,462.7V35c0-11.5,4.2-15.7,6.7-18.5s2.6-4.1-1-2S6.6,22.5,6.6,35V462.7c0,12.4,7.2,18.4,10.8,20.5s3.5.6,1-2.1S11.7,474.1,11.7,462.7Z" transform="translate(-4)"/><path class="cls-7" d="M4,103.6a2,2,0,0,1,2-2H7a2,2,0,0,1,2,2v60.3a2,2,0,0,1-2,2H6a2,2,0,0,1-2-2Z" transform="translate(-4)"/><path class="cls-7" d="M261.5,156a2,2,0,0,1,2-2h1a2,2,0,0,1,2,2v43a2,2,0,0,1-2,2h-1a2,2,0,0,1-2-2Z" transform="translate(-4)"/><path class="cls-18" d="M112.7,12.4H38.3c-11.1,0-19.2,7.6-19.2,17.5V452.3c0,12.9,12.5,24.3,26.6,24.3H225c13.7,0,26.7-11.5,26.7-24.3V31c0-11.8-8.8-18.5-19.2-18.6H156.9a14.6,14.6,0,0,0-7.7,7.6c-2.2,5.4-6.6,9.7-11.4,9.7h-5.6c-2.3,0-8.4-2.3-11.4-9.7S113,12.5,112.7,12.4Z" transform="translate(-4)"/><g class="cls-19"><rect class="cls-10" x="30" y="173" width="204" height="40" rx="5"/><path class="cls-20" d="M51,189.8h.9V197H51Zm5.2,2.7H55v3.2c0,.2,0,.3.1.4l.2.2h.9v.6H54.6a1,1,0,0,1-.4-.5c-.1-.1-.1-.4-.1-.6v-3.3h-.9v-.7h.9l.2-1.5H55v1.5h1.2Zm1.7,2.1a2,2,0,0,0,.2.9,1,1,0,0,0,.5.6,1.1,1.1,0,0,0,.8.3l.9-.2a1,1,0,0,0,.4-.7h.9a1.8,1.8,0,0,1-.4.9l-.8.5-.9.2a2.5,2.5,0,0,1-1.3-.3,2,2,0,0,1-.9-.9,3.2,3.2,0,0,1-.3-1.4,3.3,3.3,0,0,1,.3-1.5,1.8,1.8,0,0,1,.8-.9,2,2,0,0,1,1.3-.4,2.1,2.1,0,0,1,1.2.3,3.2,3.2,0,0,1,.8.9,3.2,3.2,0,0,1,.2,1.4v.3Zm0-.6h2.9a1.9,1.9,0,0,0-.2-.8,1.3,1.3,0,0,0-.5-.6l-.7-.2a1.1,1.1,0,0,0-.8.3,1,1,0,0,0-.5.6A1.4,1.4,0,0,0,57.9,194Zm4.9,3v-5.2h.9v.8l.6-.6a1.7,1.7,0,0,1,1-.3h.6l.5.3a1,1,0,0,1,.4.5,1.2,1.2,0,0,1,.6-.6,1.7,1.7,0,0,1,1-.3h.5l.6.3a1.5,1.5,0,0,1,.4.6,2.2,2.2,0,0,1,.1.9V197h-.9v-3.3a1.5,1.5,0,0,0-.1-.7l-.4-.4H67.5l-.4.3a1.4,1.4,0,0,0-.2.6V197H66v-3.6c0-.2-.1-.3-.2-.5l-.4-.3h-1l-.5.4a.7.7,0,0,0-.1.5V197Zm12.9-7.2L74.6,197h-.5l1.1-7.1Zm2.1,0L76.7,197h-.6l1.1-7.1Zm.4,4.3v.6h-5v-.6Zm.3-2.1v.6H73.6V192Zm3.4-2.3a2.3,2.3,0,0,1,1.9.9,5.2,5.2,0,0,1,.7,2.8,5.5,5.5,0,0,1-.7,2.8,2.5,2.5,0,0,1-3.8,0,4.5,4.5,0,0,1-.7-2.8,6.6,6.6,0,0,1,.3-2.1,2.7,2.7,0,0,1,.9-1.2A2.3,2.3,0,0,1,81.9,189.7Zm0,6.6a1.3,1.3,0,0,0,1.2-.7,5.4,5.4,0,0,0,.4-2.2,6.3,6.3,0,0,0-.4-2.3,1.4,1.4,0,0,0-2.4,0,4.7,4.7,0,0,0-.4,2.3,4.1,4.1,0,0,0,.4,2.2A1.3,1.3,0,0,0,81.9,196.3Zm6-6.6a2,2,0,0,1,1.8.9,4.5,4.5,0,0,1,.7,2.8,4.7,4.7,0,0,1-.7,2.8,2,2,0,0,1-1.8.9,2.2,2.2,0,0,1-1.9-.9,4.5,4.5,0,0,1-.7-2.8,6.6,6.6,0,0,1,.3-2.1,2.7,2.7,0,0,1,.9-1.2A2.1,2.1,0,0,1,87.9,189.7Zm0,6.6a1.1,1.1,0,0,0,1.1-.7,4.1,4.1,0,0,0,.4-2.2,4.7,4.7,0,0,0-.4-2.3,1.2,1.2,0,0,0-1.1-.7,1.5,1.5,0,0,0-1.2.7,4.7,4.7,0,0,0-.4,2.3,4.1,4.1,0,0,0,.4,2.2A1.3,1.3,0,0,0,87.9,196.3Zm4.8.7v-5.8H91.3v-.6h1a.6.6,0,0,0,.5-.2c.1-.2.2-.3.2-.5h.7V197Z" transform="translate(-4)"/><path class="cls-11" d="M201.1,197.1a5.4,5.4,0,0,1-2.7-.6,2.8,2.8,0,0,1-1.2-2.1h1.9a2.6,2.6,0,0,0,.7,1,2.8,2.8,0,0,0,1.3.3h.8l.6-.4a.7.7,0,0,0,.2-.6,1,1,0,0,0-.3-.8,2.3,2.3,0,0,0-1-.4l-1.6-.4a3,3,0,0,1-1.7-.8,2.4,2.4,0,0,1-.6-1.7,2.3,2.3,0,0,1,.4-1.6l1.3-1a5.8,5.8,0,0,1,1.9-.3,4.1,4.1,0,0,1,1.9.4,2.9,2.9,0,0,1,1.2,1,3.3,3.3,0,0,1,.4,1.4h-1.9a1.9,1.9,0,0,0-.5-1,1.3,1.3,0,0,0-1-.3h-.7l-.6.2-.3.4a.6.6,0,0,0-.1.4.9.9,0,0,0,.3.7l1,.4,1.5.4a3.8,3.8,0,0,1,1.9,1,3.5,3.5,0,0,1,.5,1.8,2.4,2.4,0,0,1-.4,1.5,2.5,2.5,0,0,1-1.3.9A5,5,0,0,1,201.1,197.1Zm-.8-10.8H202v1.6h-1.7Zm0,10.3h1.6v1.6h-1.6Zm5.7.4v-1.4a2.8,2.8,0,0,1,.3-1.3l.7-.9a4.7,4.7,0,0,1,.9-.6l1.1-.6,1-.5.7-.6a1.9,1.9,0,0,0,.2-.8,1,1,0,0,0-.4-.9,1.5,1.5,0,0,0-1-.4,1.7,1.7,0,0,0-1.2.5,1.2,1.2,0,0,0-.6,1.2h-1.9a2.8,2.8,0,0,1,.5-1.6,2.3,2.3,0,0,1,1.2-1.2,4,4,0,0,1,2-.4,4.8,4.8,0,0,1,1.8.3,4,4,0,0,1,1.2,1,2.4,2.4,0,0,1,.4,1.5,3.7,3.7,0,0,1-.2,1.2,2.2,2.2,0,0,1-.7.9,2.1,2.1,0,0,1-1,.6l-1,.6-.9.4-.7.6a.9.9,0,0,0-.3.7h4.8V197Zm11.5.1a4.7,4.7,0,0,1-1.7-.3,2.7,2.7,0,0,1-1.2-.9,3.9,3.9,0,0,1-.6-1.5h1.8a1.5,1.5,0,0,0,.6.9,1.5,1.5,0,0,0,1,.3l1.2-.3a1.5,1.5,0,0,0,.7-1,3.5,3.5,0,0,0,.2-1.8l-.5.6-.7.4h-1a4.7,4.7,0,0,1-1.7-.3,3.2,3.2,0,0,1-1.2-1.1,3.3,3.3,0,0,1-.4-1.5,3.1,3.1,0,0,1,.5-1.7,3.2,3.2,0,0,1,1.2-1.1,3.8,3.8,0,0,1,1.9-.4,4.2,4.2,0,0,1,2,.5,4.7,4.7,0,0,1,1.4,1.7,5.7,5.7,0,0,1,.4,2.4,5.9,5.9,0,0,1-.5,2.8,3.3,3.3,0,0,1-1.3,1.7A3.6,3.6,0,0,1,217.5,197.1Zm.1-5a1.2,1.2,0,0,0,.8-.2l.6-.4a.7.7,0,0,0,.2-.6,1.4,1.4,0,0,0-.2-1.1,1.8,1.8,0,0,0-.5-.7l-.9-.2-.8.2c-.2.2-.4.3-.5.6a1.3,1.3,0,0,0-.2.9,1.4,1.4,0,0,0,.4,1.1A1.5,1.5,0,0,0,217.6,192.1Z" transform="translate(-4)"/><rect class="cls-10" x="30" y="221" width="204" height="40" rx="5"/><path class="cls-20" d="M51,237.8h.9V245H51Zm5.2,2.7H55v3.2c0,.2,0,.3.1.4l.2.2h.9v.6H54.6c-.2-.1-.3-.3-.4-.4a1.7,1.7,0,0,1-.1-.7v-3.3h-.9v-.7h.9l.2-1.5H55v1.5h1.2Zm1.7,2.1a2,2,0,0,0,.2.9,1,1,0,0,0,.5.6,1.1,1.1,0,0,0,.8.3l.9-.2a1,1,0,0,0,.4-.7h.9a1.8,1.8,0,0,1-.4.9l-.8.5-.9.2a2.5,2.5,0,0,1-1.3-.3,2,2,0,0,1-.9-.9,3.2,3.2,0,0,1-.3-1.4,3.3,3.3,0,0,1,.3-1.5,1.8,1.8,0,0,1,.8-.9,2,2,0,0,1,1.3-.4,2.1,2.1,0,0,1,1.2.3,3.2,3.2,0,0,1,.8.9,3.2,3.2,0,0,1,.2,1.4v.3Zm0-.6h2.9a1.9,1.9,0,0,0-.2-.8,1.3,1.3,0,0,0-.5-.6l-.7-.2a1.1,1.1,0,0,0-.8.3,1,1,0,0,0-.5.6A1.4,1.4,0,0,0,57.9,242Zm4.9,3v-5.2h.9v.8l.6-.6a1.7,1.7,0,0,1,1-.3h.6l.5.3a1,1,0,0,1,.4.5,1.2,1.2,0,0,1,.6-.6,1.7,1.7,0,0,1,1-.3h.5l.6.3a1.5,1.5,0,0,1,.4.6,2.2,2.2,0,0,1,.1.9V245h-.9v-3.3a1.5,1.5,0,0,0-.1-.7l-.4-.4H67.5l-.4.3a1.4,1.4,0,0,0-.2.6V245H66v-3.6c0-.2-.1-.3-.2-.5l-.4-.3h-1l-.5.4a.7.7,0,0,0-.1.5V245Zm12.9-7.2L74.6,245h-.5l1.1-7.1Zm2.1,0L76.7,245h-.6l1.1-7.1Zm.4,4.3v.6h-5v-.6Zm.3-2.1v.6H73.6V240Zm3.4-2.3a2.3,2.3,0,0,1,1.9.9,5.2,5.2,0,0,1,.7,2.8,5.5,5.5,0,0,1-.7,2.8,2.5,2.5,0,0,1-3.8,0,4.5,4.5,0,0,1-.7-2.8,6.6,6.6,0,0,1,.3-2.1,2.7,2.7,0,0,1,.9-1.2A2.3,2.3,0,0,1,81.9,237.7Zm0,6.6a1.3,1.3,0,0,0,1.2-.7,5.4,5.4,0,0,0,.4-2.2,6.3,6.3,0,0,0-.4-2.3,1.5,1.5,0,0,0-2.4,0,4.7,4.7,0,0,0-.4,2.3,4.1,4.1,0,0,0,.4,2.2A1.3,1.3,0,0,0,81.9,244.3Zm6-6.6a2,2,0,0,1,1.8.9,4.5,4.5,0,0,1,.7,2.8,4.7,4.7,0,0,1-.7,2.8,2,2,0,0,1-1.8.9,2.2,2.2,0,0,1-1.9-.9,4.5,4.5,0,0,1-.7-2.8,6.6,6.6,0,0,1,.3-2.1,2.7,2.7,0,0,1,.9-1.2A2.1,2.1,0,0,1,87.9,237.7Zm0,6.6a1.1,1.1,0,0,0,1.1-.7,4.1,4.1,0,0,0,.4-2.2,4.7,4.7,0,0,0-.4-2.3,1.1,1.1,0,0,0-1.1-.6,1.4,1.4,0,0,0-1.2.6,4.7,4.7,0,0,0-.4,2.3,4.1,4.1,0,0,0,.4,2.2A1.3,1.3,0,0,0,87.9,244.3Zm3.6.7v-.9a1.5,1.5,0,0,1,.2-.9,1.8,1.8,0,0,1,.5-.7l.8-.6.8-.4.7-.5.6-.5a2.4,2.4,0,0,0,.2-.8,1.2,1.2,0,0,0-.4-.9,1.7,1.7,0,0,0-1-.3,1.6,1.6,0,0,0-1.2.4,1.9,1.9,0,0,0-.5,1.1h-.9a2.1,2.1,0,0,1,1.2-2,2.9,2.9,0,0,1,1.4-.3l1.3.2a2.7,2.7,0,0,1,.8.7,2.3,2.3,0,0,1,.3,1.1,3,3,0,0,1-.2,1,2,2,0,0,1-.6.7l-.7.5-.8.4-.8.5a1.2,1.2,0,0,0-.5.5,1.9,1.9,0,0,0-.2.7v.2h3.8v.8Z" transform="translate(-4)"/><path class="cls-11" d="M195.3,245.1a5.4,5.4,0,0,1-2.7-.6,2.8,2.8,0,0,1-1.2-2.1h2a1.7,1.7,0,0,0,.6,1,2.8,2.8,0,0,0,1.3.3h.9l.5-.4a.7.7,0,0,0,.2-.6,1,1,0,0,0-.3-.8,2.3,2.3,0,0,0-1-.4l-1.6-.4a3.4,3.4,0,0,1-1.7-.8,2.4,2.4,0,0,1-.6-1.7,2.9,2.9,0,0,1,.4-1.6,5,5,0,0,1,1.4-1,4.8,4.8,0,0,1,1.8-.3,3.8,3.8,0,0,1,1.9.4,2.9,2.9,0,0,1,1.2,1,2.3,2.3,0,0,1,.4,1.4h-1.9a1.9,1.9,0,0,0-.5-1,1.3,1.3,0,0,0-1-.3h-.7l-.6.2-.3.4a.6.6,0,0,0-.1.4.9.9,0,0,0,.3.7l1,.4,1.5.4a3.8,3.8,0,0,1,1.9,1,2.7,2.7,0,0,1,.5,1.8,2.4,2.4,0,0,1-.4,1.5,2.5,2.5,0,0,1-1.3.9A5,5,0,0,1,195.3,245.1Zm-.8-10.8h1.7v1.6h-1.7Zm0,10.3h1.6v1.6h-1.6Zm7.2.4v-7H200v-1.1l1.3-.2.8-.4a.9.9,0,0,0,.3-.7h1.2V245Zm7.4-9.5a3.3,3.3,0,0,1,2.7,1.2,6.4,6.4,0,0,1,1,3.6,5.9,5.9,0,0,1-1,3.6,3.2,3.2,0,0,1-2.7,1.2,3.1,3.1,0,0,1-2.6-1.2,5.3,5.3,0,0,1-1-3.6,6.7,6.7,0,0,1,.5-2.6,4.3,4.3,0,0,1,1.2-1.7A4.1,4.1,0,0,1,209.1,235.5Zm0,8.1a1.4,1.4,0,0,0,1.3-.8,6.7,6.7,0,0,0,.4-2.5,7.8,7.8,0,0,0-.4-2.6,1.4,1.4,0,0,0-1.3-.7,1.2,1.2,0,0,0-1.2.8,8,8,0,0,0,0,5A1.4,1.4,0,0,0,209.1,243.6Zm5.7-8h6v1.6h-4.4l-.2,2.2,1-.4h1a4.3,4.3,0,0,1,1.7.3,3.2,3.2,0,0,1,1.2,1.1,2.7,2.7,0,0,1,.4,1.6,2.9,2.9,0,0,1-.4,1.7,3,3,0,0,1-1.3,1.2,5.4,5.4,0,0,1-1.9.3l-1.8-.2a5.7,5.7,0,0,1-1.3-.8,3.4,3.4,0,0,1-.9-1.2l1.5-.8a4.2,4.2,0,0,0,.6.8,1.8,1.8,0,0,0,.7.5l1,.2a1.8,1.8,0,0,0,1.3-.4,1.3,1.3,0,0,0,.5-1.2,1.1,1.1,0,0,0-.2-.8c-.1-.3-.4-.4-.6-.6l-1-.2h-1l-.6.4h-.3l-1.3-.6Z" transform="translate(-4)"/><rect class="cls-10" x="30" y="269" width="204" height="40" rx="5"/><path class="cls-20" d="M51,285.8h.9V293H51Zm5.2,2.7H55v3.2c0,.2,0,.3.1.4l.2.2h.9v.6H54.6c-.2-.1-.3-.3-.4-.4a1.7,1.7,0,0,1-.1-.7v-3.3h-.9v-.7h.9l.2-1.5H55v1.5h1.2Zm1.7,2.1a2,2,0,0,0,.2.9,1,1,0,0,0,.5.6,1.1,1.1,0,0,0,.8.3l.9-.2a1,1,0,0,0,.4-.7h.9a1.8,1.8,0,0,1-.4.9l-.8.5-.9.2a2.5,2.5,0,0,1-1.3-.3,2,2,0,0,1-.9-.9,3.2,3.2,0,0,1-.3-1.4,3.3,3.3,0,0,1,.3-1.5,1.8,1.8,0,0,1,.8-.9,2,2,0,0,1,1.3-.4,2.1,2.1,0,0,1,1.2.3,3.2,3.2,0,0,1,.8.9,3.2,3.2,0,0,1,.2,1.4v.3Zm0-.6h2.9a1.9,1.9,0,0,0-.2-.8,1.3,1.3,0,0,0-.5-.6l-.7-.2a1.1,1.1,0,0,0-.8.3,1,1,0,0,0-.5.6A1.4,1.4,0,0,0,57.9,290Zm4.9,3v-5.2h.9v.8l.6-.6a1.7,1.7,0,0,1,1-.3h.6l.5.3a1,1,0,0,1,.4.5,1.2,1.2,0,0,1,.6-.6,1.7,1.7,0,0,1,1-.3h.5l.6.3a1.5,1.5,0,0,1,.4.6,2.2,2.2,0,0,1,.1.9V293h-.9v-3.3a1.5,1.5,0,0,0-.1-.7c-.1-.2-.3-.3-.4-.4H67.5l-.4.3a1.4,1.4,0,0,0-.2.6V293H66v-3.6c0-.2-.1-.3-.2-.5l-.4-.3h-1l-.5.4a.7.7,0,0,0-.1.5V293Zm12.9-7.2L74.6,293h-.5l1.1-7.1Zm2.1,0L76.7,293h-.6l1.1-7.1Zm.4,4.3v.6h-5v-.6Zm.3-2.1v.6H73.6V288Zm3.4-2.3a2.3,2.3,0,0,1,1.9.9,5.2,5.2,0,0,1,.7,2.8,5.5,5.5,0,0,1-.7,2.8,2.5,2.5,0,0,1-3.8,0,4.5,4.5,0,0,1-.7-2.8,6.6,6.6,0,0,1,.3-2.1,2.7,2.7,0,0,1,.9-1.2A2.3,2.3,0,0,1,81.9,285.7Zm0,6.6a1.3,1.3,0,0,0,1.2-.7,5.4,5.4,0,0,0,.4-2.2,6.3,6.3,0,0,0-.4-2.3,1.5,1.5,0,0,0-2.4,0,4.7,4.7,0,0,0-.4,2.3,4.1,4.1,0,0,0,.4,2.2A1.3,1.3,0,0,0,81.9,292.3Zm6-6.6a2,2,0,0,1,1.8.9,4.5,4.5,0,0,1,.7,2.8,4.7,4.7,0,0,1-.7,2.8,2,2,0,0,1-1.8.9,2.2,2.2,0,0,1-1.9-.9,4.5,4.5,0,0,1-.7-2.8,6.6,6.6,0,0,1,.3-2.1,2.7,2.7,0,0,1,.9-1.2A2.1,2.1,0,0,1,87.9,285.7Zm0,6.6a1.1,1.1,0,0,0,1.1-.7,4.1,4.1,0,0,0,.4-2.2,4.7,4.7,0,0,0-.4-2.3,1.1,1.1,0,0,0-1.1-.6,1.4,1.4,0,0,0-1.2.6,4.7,4.7,0,0,0-.4,2.3,4.1,4.1,0,0,0,.4,2.2A1.3,1.3,0,0,0,87.9,292.3Zm3.5-4.4a2.1,2.1,0,0,1,.3-1.2,2.4,2.4,0,0,1,.9-.8l1.3-.2a2.7,2.7,0,0,1,1.3.2,1.5,1.5,0,0,1,.9.6,1.8,1.8,0,0,1,0,2,3,3,0,0,1-1.1.7l.9.4a1,1,0,0,1,.5.6,1.9,1.9,0,0,1,.2.8,2.9,2.9,0,0,1-.2.9,1.3,1.3,0,0,1-.6.7l-.9.4H93.8a2.8,2.8,0,0,1-1.3-.3,1.6,1.6,0,0,1-.9-.7,2.1,2.1,0,0,1-.3-1.2h.9a1.9,1.9,0,0,0,.5,1.1,2.1,2.1,0,0,0,1.2.3,1.5,1.5,0,0,0,.9-.2l.6-.4a1.3,1.3,0,0,0,0-1.4,1.8,1.8,0,0,0-.7-.5l-.9-.2h-.7v-.8h.7a1.1,1.1,0,0,0,.8-.2,1.3,1.3,0,0,0,.6-.4,1,1,0,0,0,0-1.2,1,1,0,0,0-.5-.4l-.8-.2-.8.2-.6.5a1.5,1.5,0,0,0-.2.8Z" transform="translate(-4)"/><path class="cls-11" d="M195.4,293.1a5.8,5.8,0,0,1-2.8-.6,2.8,2.8,0,0,1-1.2-2.1h2a1.4,1.4,0,0,0,.7,1,2.5,2.5,0,0,0,1.3.3h.8l.6-.4a1.4,1.4,0,0,0,.2-.6,1,1,0,0,0-.3-.8l-1.1-.4-1.5-.4a3,3,0,0,1-1.7-.8,2.1,2.1,0,0,1-.7-1.7,3,3,0,0,1,.5-1.6,4.5,4.5,0,0,1,1.3-1,5.8,5.8,0,0,1,1.9-.3,3.4,3.4,0,0,1,1.8.4,2.9,2.9,0,0,1,1.2,1,2.3,2.3,0,0,1,.4,1.4h-1.9a1.8,1.8,0,0,0-.4-1,1.6,1.6,0,0,0-1.1-.3h-.7l-.5.2c-.2.1-.3.2-.3.4a.8.8,0,0,0-.2.4.9.9,0,0,0,.3.7l1.1.4,1.5.4a3.4,3.4,0,0,1,1.8,1,2.8,2.8,0,0,1,.6,1.8,2.4,2.4,0,0,1-.4,1.5,3,3,0,0,1-1.3.9A5.4,5.4,0,0,1,195.4,293.1Zm-.8-10.8h1.6v1.6h-1.6Zm-.1,10.3h1.7v1.6h-1.7Zm9.4-9.1a4.7,4.7,0,0,1,1.7.3,2.7,2.7,0,0,1,1.2.9,2.2,2.2,0,0,1,.5,1.4,2.1,2.1,0,0,1-.4,1.2,2.5,2.5,0,0,1-1,.8,1.4,1.4,0,0,1,.8.5,1.9,1.9,0,0,1,.7.8,1.7,1.7,0,0,1,.3,1,2.2,2.2,0,0,1-.5,1.4,2.2,2.2,0,0,1-1.3,1,6.8,6.8,0,0,1-4,0,2.2,2.2,0,0,1-1.3-1,2.2,2.2,0,0,1-.5-1.4,1.7,1.7,0,0,1,.3-1,1.9,1.9,0,0,1,.7-.8,1.4,1.4,0,0,1,.8-.5,2.5,2.5,0,0,1-1-.8,1.6,1.6,0,0,1-.4-1.2,2.2,2.2,0,0,1,.5-1.4,2.7,2.7,0,0,1,1.2-.9A4.7,4.7,0,0,1,203.9,283.5Zm0,3.9a1.5,1.5,0,0,0,1.1-.4,1.3,1.3,0,0,0,.4-.9,1.5,1.5,0,0,0-.4-1,2.2,2.2,0,0,0-2.2,0,1.5,1.5,0,0,0-.4,1,1.3,1.3,0,0,0,.4.9A1.5,1.5,0,0,0,203.9,287.4Zm0,4.3a1.8,1.8,0,0,0,1.3-.4,1.1,1.1,0,0,0,.5-1,1.9,1.9,0,0,0-.2-.7,1.8,1.8,0,0,0-.7-.5l-.9-.2-.9.2a1.8,1.8,0,0,0-.7.5,1.9,1.9,0,0,0-.2.7,1.1,1.1,0,0,0,.5,1A1.8,1.8,0,0,0,203.9,291.7Zm6.5,1.3v-7h-1.7v-1.1l1.3-.2a1.5,1.5,0,0,0,.8-.4l.3-.7h1.2V293Zm7.4-9.5a3.4,3.4,0,0,1,2.7,1.2,6.4,6.4,0,0,1,.9,3.6,6,6,0,0,1-.9,3.6,3.3,3.3,0,0,1-2.7,1.2,3.4,3.4,0,0,1-2.7-1.2,6,6,0,0,1-.9-3.6,6.8,6.8,0,0,1,.4-2.6,3.7,3.7,0,0,1,1.3-1.7A3.8,3.8,0,0,1,217.8,283.5Zm0,8.1a1.2,1.2,0,0,0,1.2-.8,5.1,5.1,0,0,0,.4-2.5,5.9,5.9,0,0,0-.4-2.6,1.1,1.1,0,0,0-1.2-.7,1.2,1.2,0,0,0-1.2.8,8,8,0,0,0,0,5A1.3,1.3,0,0,0,217.8,291.6Z" transform="translate(-4)"/><rect class="cls-10" x="30" y="317" width="204" height="40" rx="5"/><path class="cls-20" d="M51,333.8h.9V341H51Zm5.2,2.7H55v3.2c0,.2,0,.3.1.4l.2.2h.9v.6H54.6c-.2-.1-.3-.3-.4-.4a1.7,1.7,0,0,1-.1-.7v-3.3h-.9v-.7h.9l.2-1.5H55v1.5h1.2Zm1.7,2.1a2,2,0,0,0,.2.9,1,1,0,0,0,.5.6,1.1,1.1,0,0,0,.8.3l.9-.2a1,1,0,0,0,.4-.7h.9a1.8,1.8,0,0,1-.4.9l-.8.5-.9.2a2.5,2.5,0,0,1-1.3-.3,2,2,0,0,1-.9-.9,3.2,3.2,0,0,1-.3-1.4,3.3,3.3,0,0,1,.3-1.5,1.8,1.8,0,0,1,.8-.9,2,2,0,0,1,1.3-.4,2.1,2.1,0,0,1,1.2.3,3.2,3.2,0,0,1,.8.9,3.2,3.2,0,0,1,.2,1.4v.3Zm0-.6h2.9a1.9,1.9,0,0,0-.2-.8,1.3,1.3,0,0,0-.5-.6l-.7-.2a1.1,1.1,0,0,0-.8.3,1,1,0,0,0-.5.6A1.4,1.4,0,0,0,57.9,338Zm4.9,3v-5.2h.9v.8l.6-.6a1.7,1.7,0,0,1,1-.3h.6l.5.3a1,1,0,0,1,.4.5,1.2,1.2,0,0,1,.6-.6,1.7,1.7,0,0,1,1-.3h.5l.6.3a1.5,1.5,0,0,1,.4.6,2.2,2.2,0,0,1,.1.9V341h-.9v-3.3a1.5,1.5,0,0,0-.1-.7c-.1-.2-.3-.3-.4-.4H67.5l-.4.3a1.4,1.4,0,0,0-.2.6V341H66v-3.6c0-.2-.1-.3-.2-.5l-.4-.3h-1l-.5.4a.7.7,0,0,0-.1.5V341Zm12.9-7.2L74.6,341h-.5l1.1-7.1Zm2.1,0L76.7,341h-.6l1.1-7.1Zm.4,4.3v.6h-5v-.6Zm.3-2.1v.6H73.6V336Zm3.4-2.3a2.3,2.3,0,0,1,1.9.9,5.2,5.2,0,0,1,.7,2.8,5.5,5.5,0,0,1-.7,2.8,2.5,2.5,0,0,1-3.8,0,4.5,4.5,0,0,1-.7-2.8,6.6,6.6,0,0,1,.3-2.1,2.7,2.7,0,0,1,.9-1.2A2.3,2.3,0,0,1,81.9,333.7Zm0,6.6a1.3,1.3,0,0,0,1.2-.7,5.4,5.4,0,0,0,.4-2.2,6.3,6.3,0,0,0-.4-2.3,1.5,1.5,0,0,0-2.4,0,4.7,4.7,0,0,0-.4,2.3,4.1,4.1,0,0,0,.4,2.2A1.3,1.3,0,0,0,81.9,340.3Zm6-6.6a2,2,0,0,1,1.8.9,4.5,4.5,0,0,1,.7,2.8,4.7,4.7,0,0,1-.7,2.8,2,2,0,0,1-1.8.9,2.2,2.2,0,0,1-1.9-.9,4.5,4.5,0,0,1-.7-2.8,6.6,6.6,0,0,1,.3-2.1,2.7,2.7,0,0,1,.9-1.2A2.1,2.1,0,0,1,87.9,333.7Zm0,6.6a1.1,1.1,0,0,0,1.1-.7,4.1,4.1,0,0,0,.4-2.2,4.7,4.7,0,0,0-.4-2.3,1.1,1.1,0,0,0-1.1-.6,1.4,1.4,0,0,0-1.2.6,4.7,4.7,0,0,0-.4,2.3,4.1,4.1,0,0,0,.4,2.2A1.3,1.3,0,0,0,87.9,340.3Zm6.8-6.5h.9v4.5h1.2v.9H95.6V341h-.9v-1.8H91.3v-.9Zm-2.5,4.5h2.5V335Z" transform="translate(-4)"/><path class="cls-11" d="M187.2,341.1a5.4,5.4,0,0,1-2.7-.6,3,3,0,0,1-1.3-2.1h2a1.4,1.4,0,0,0,.7,1,2.5,2.5,0,0,0,1.3.3h.8l.6-.4a1.4,1.4,0,0,0,.2-.6,1,1,0,0,0-.3-.8l-1.1-.4-1.5-.4a3,3,0,0,1-1.7-.8,2.4,2.4,0,0,1-.7-1.7,3,3,0,0,1,.5-1.6,4.5,4.5,0,0,1,1.3-1,5.8,5.8,0,0,1,1.9-.3,3.4,3.4,0,0,1,1.8.4,2,2,0,0,1,1.2,1,2.3,2.3,0,0,1,.4,1.4h-1.9a1.8,1.8,0,0,0-.4-1,1.6,1.6,0,0,0-1.1-.3h-.7l-.5.2c-.1.1-.3.2-.3.4a.6.6,0,0,0-.1.4.8.8,0,0,0,.2.7l1.1.4,1.5.4a3.4,3.4,0,0,1,1.8,1,2.8,2.8,0,0,1,.6,1.8,2.4,2.4,0,0,1-.4,1.5,3,3,0,0,1-1.3.9A5.4,5.4,0,0,1,187.2,341.1Zm-.8-10.8H188v1.6h-1.6Zm0,10.3H188v1.6h-1.6Zm7.2.4v-7h-1.7v-1.1l1.3-.2a2,2,0,0,0,.8-.4,1.4,1.4,0,0,0,.2-.7h1.3V341Zm7.4-9.5a3.4,3.4,0,0,1,2.7,1.2,6.4,6.4,0,0,1,.9,3.6,6,6,0,0,1-.9,3.6,3.6,3.6,0,0,1-5.4,0,6,6,0,0,1-.9-3.6,6.8,6.8,0,0,1,.4-2.6,3.7,3.7,0,0,1,1.3-1.7A3.8,3.8,0,0,1,201,331.5Zm0,8.1a1.2,1.2,0,0,0,1.2-.8,5.1,5.1,0,0,0,.4-2.5,5.9,5.9,0,0,0-.4-2.6,1.1,1.1,0,0,0-1.2-.7,1.1,1.1,0,0,0-1.2.8,8,8,0,0,0,0,5A1.2,1.2,0,0,0,201,339.6Zm8.9-8h1.8v5.7h1.5v1.6h-1.5V341h-1.8v-2.1h-4.3v-1.5Zm-2.5,5.7h2.5v-3.4Zm10.9-5.7h1.9v5.7h1.4v1.6h-1.4V341h-1.8v-2.1H214v-1.5Zm-2.5,5.7h2.6v-3.4Z" transform="translate(-4)"/><rect class="cls-10" x="30" y="365" width="204" height="40" rx="5"/><path class="cls-20" d="M51,381.8h.9V389H51Zm5.2,2.7H55v3.2c0,.2,0,.3.1.4l.2.2h.9v.6H54.6c-.2-.1-.3-.3-.4-.4a1.7,1.7,0,0,1-.1-.7v-3.3h-.9v-.7h.9l.2-1.5H55v1.5h1.2Zm1.7,2.1a2,2,0,0,0,.2.9,1,1,0,0,0,.5.6,1.1,1.1,0,0,0,.8.3l.9-.2a1,1,0,0,0,.4-.7h.9a1.8,1.8,0,0,1-.4.9l-.8.5-.9.2a2.5,2.5,0,0,1-1.3-.3,2,2,0,0,1-.9-.9,3.2,3.2,0,0,1-.3-1.4,3.3,3.3,0,0,1,.3-1.5,1.8,1.8,0,0,1,.8-.9,2,2,0,0,1,1.3-.4,2.1,2.1,0,0,1,1.2.3,3.2,3.2,0,0,1,.8.9,3.2,3.2,0,0,1,.2,1.4v.3Zm0-.6h2.9a1.9,1.9,0,0,0-.2-.8,1.3,1.3,0,0,0-.5-.6l-.7-.2a1.1,1.1,0,0,0-.8.3,1,1,0,0,0-.5.6A1.4,1.4,0,0,0,57.9,386Zm4.9,3v-5.2h.9v.8l.6-.6a1.7,1.7,0,0,1,1-.3h.6l.5.3a1,1,0,0,1,.4.5,1.2,1.2,0,0,1,.6-.6,1.7,1.7,0,0,1,1-.3h.5l.6.3a1.5,1.5,0,0,1,.4.6,2.2,2.2,0,0,1,.1.9V389h-.9v-3.3a1.5,1.5,0,0,0-.1-.7c-.1-.2-.3-.3-.4-.4H67.5l-.4.3a1.4,1.4,0,0,0-.2.6V389H66v-3.6c0-.2-.1-.3-.2-.5l-.4-.3h-1l-.5.4a.7.7,0,0,0-.1.5V389Zm12.9-7.2L74.6,389h-.5l1.1-7.1Zm2.1,0L76.7,389h-.6l1.1-7.1Zm.4,4.3v.6h-5v-.6Zm.3-2.1v.6H73.6V384Zm3.4-2.3a2.3,2.3,0,0,1,1.9.9,5.2,5.2,0,0,1,.7,2.8,5.5,5.5,0,0,1-.7,2.8,2.5,2.5,0,0,1-3.8,0,4.5,4.5,0,0,1-.7-2.8,6.6,6.6,0,0,1,.3-2.1,2.7,2.7,0,0,1,.9-1.2A2.3,2.3,0,0,1,81.9,381.7Zm0,6.6a1.3,1.3,0,0,0,1.2-.7,5.4,5.4,0,0,0,.4-2.2,6.3,6.3,0,0,0-.4-2.3,1.5,1.5,0,0,0-2.4,0,4.7,4.7,0,0,0-.4,2.3,4.1,4.1,0,0,0,.4,2.2A1.3,1.3,0,0,0,81.9,388.3Zm6-6.6a2,2,0,0,1,1.8.9,4.5,4.5,0,0,1,.7,2.8,4.7,4.7,0,0,1-.7,2.8,2,2,0,0,1-1.8.9,2.2,2.2,0,0,1-1.9-.9,4.5,4.5,0,0,1-.7-2.8,6.6,6.6,0,0,1,.3-2.1,2.7,2.7,0,0,1,.9-1.2A2.1,2.1,0,0,1,87.9,381.7Zm0,6.6a1.1,1.1,0,0,0,1.1-.7,4.1,4.1,0,0,0,.4-2.2,4.7,4.7,0,0,0-.4-2.3,1.1,1.1,0,0,0-1.1-.6,1.4,1.4,0,0,0-1.2.6,4.7,4.7,0,0,0-.4,2.3,4.1,4.1,0,0,0,.4,2.2A1.3,1.3,0,0,0,87.9,388.3Zm4.1-6.5h4.3v.8H92.8l-.2,2.3.8-.5h.9a2.1,2.1,0,0,1,1.2.3,1.6,1.6,0,0,1,.9.7,2,2,0,0,1,.4,1.3,1.8,1.8,0,0,1-.4,1.3,2,2,0,0,1-.9.9,2.9,2.9,0,0,1-1.4.3l-1.2-.2-1-.7-.6-.9.8-.4a1.8,1.8,0,0,0,.5.7,1.3,1.3,0,0,0,.6.5,1.5,1.5,0,0,0,.9.2,1.6,1.6,0,0,0,1.2-.4,1.7,1.7,0,0,0,.5-1.2,2.4,2.4,0,0,0-.2-.9l-.6-.5a1.5,1.5,0,0,0-.9-.2h-.5l-.5.2c-.2.1-.3.3-.5.5h-.1l-.8-.3Z" transform="translate(-4)"/><path class="cls-11" d="M201,389.1a5.4,5.4,0,0,1-2.7-.6,2.8,2.8,0,0,1-1.2-2.1h2a1.7,1.7,0,0,0,.6,1,2.8,2.8,0,0,0,1.3.3h.9l.5-.4a.7.7,0,0,0,.2-.6,1,1,0,0,0-.3-.8,2.3,2.3,0,0,0-1-.4l-1.6-.4a3.4,3.4,0,0,1-1.7-.8,2.4,2.4,0,0,1-.6-1.7,2.9,2.9,0,0,1,.4-1.6,5,5,0,0,1,1.4-1,4.8,4.8,0,0,1,1.8-.3,3.8,3.8,0,0,1,1.9.4,2.9,2.9,0,0,1,1.2,1,2.3,2.3,0,0,1,.4,1.4h-1.9a1.9,1.9,0,0,0-.5-1,1.3,1.3,0,0,0-1-.3h-.7l-.6.2-.3.4a.6.6,0,0,0-.1.4.9.9,0,0,0,.3.7,3.4,3.4,0,0,0,1,.4l1.5.4a3.8,3.8,0,0,1,1.9,1,2.8,2.8,0,0,1,.6,1.8,2.5,2.5,0,0,1-.5,1.5,2.5,2.5,0,0,1-1.3.9A5,5,0,0,1,201,389.1Zm-.8-10.8h1.7v1.6h-1.7Zm0,10.3h1.6v1.6h-1.6Zm9.8-9h1.9v5.7h1.4v1.6h-1.4V389h-1.8v-2.1h-4.4v-1.5Zm-2.5,5.7h2.6v-3.4Zm10.3-5.8a3.4,3.4,0,0,1,2.7,1.2,6.4,6.4,0,0,1,.9,3.6,6,6,0,0,1-.9,3.6,3.3,3.3,0,0,1-2.7,1.2,3.4,3.4,0,0,1-2.7-1.2,6,6,0,0,1-.9-3.6,6.8,6.8,0,0,1,.4-2.6,3.7,3.7,0,0,1,1.3-1.7A3.8,3.8,0,0,1,217.8,379.5Zm0,8.1a1.2,1.2,0,0,0,1.2-.8,5.1,5.1,0,0,0,.4-2.5,5.9,5.9,0,0,0-.4-2.6,1.1,1.1,0,0,0-1.2-.7,1.2,1.2,0,0,0-1.2.8,8,8,0,0,0,0,5A1.3,1.3,0,0,0,217.8,387.6Z" transform="translate(-4)"/><rect class="cls-10" x="30" y="413" width="204" height="40" rx="5"/><path class="cls-20" d="M51,429.8h.9V437H51Zm5.2,2.7H55v3.2c0,.2,0,.3.1.4l.2.2h.9v.6H54.6c-.2-.1-.3-.3-.4-.4a1.7,1.7,0,0,1-.1-.7v-3.3h-.9v-.7h.9l.2-1.5H55v1.5h1.2Zm1.7,2.1a2,2,0,0,0,.2.9,1,1,0,0,0,.5.6,1.1,1.1,0,0,0,.8.3l.9-.2a1,1,0,0,0,.4-.7h.9a1.8,1.8,0,0,1-.4.9l-.8.5-.9.2a2.5,2.5,0,0,1-1.3-.3,2,2,0,0,1-.9-.9,3.2,3.2,0,0,1-.3-1.4,3.3,3.3,0,0,1,.3-1.5,1.8,1.8,0,0,1,.8-.9,2,2,0,0,1,1.3-.4,2.1,2.1,0,0,1,1.2.3,3.2,3.2,0,0,1,.8.9,3.2,3.2,0,0,1,.2,1.4v.3Zm0-.6h2.9a1.9,1.9,0,0,0-.2-.8,1.3,1.3,0,0,0-.5-.6l-.7-.2a1.1,1.1,0,0,0-.8.3,1,1,0,0,0-.5.6A1.4,1.4,0,0,0,57.9,434Zm4.9,3v-5.2h.9v.8l.6-.6a1.7,1.7,0,0,1,1-.3h.6l.5.3a1,1,0,0,1,.4.5,1.2,1.2,0,0,1,.6-.6,1.7,1.7,0,0,1,1-.3h.5l.6.3a1.5,1.5,0,0,1,.4.6,2.2,2.2,0,0,1,.1.9V437h-.9v-3.3a1.5,1.5,0,0,0-.1-.7c-.1-.2-.3-.3-.4-.4H67.5l-.4.3a1.4,1.4,0,0,0-.2.6V437H66v-3.6c0-.2-.1-.3-.2-.5l-.4-.3h-1l-.5.4a.7.7,0,0,0-.1.5V437Zm12.9-7.2L74.6,437h-.5l1.1-7.1Zm2.1,0L76.7,437h-.6l1.1-7.1Zm.4,4.3v.6h-5v-.6Zm.3-2.1v.6H73.6V432Zm3.4-2.3a2.3,2.3,0,0,1,1.9.9,5.2,5.2,0,0,1,.7,2.8,5.5,5.5,0,0,1-.7,2.8,2.5,2.5,0,0,1-3.8,0,4.5,4.5,0,0,1-.7-2.8,6.6,6.6,0,0,1,.3-2.1,2.7,2.7,0,0,1,.9-1.2A2.3,2.3,0,0,1,81.9,429.7Zm0,6.6a1.3,1.3,0,0,0,1.2-.7,5.4,5.4,0,0,0,.4-2.2,6.3,6.3,0,0,0-.4-2.3,1.5,1.5,0,0,0-2.4,0,4.7,4.7,0,0,0-.4,2.3,4.1,4.1,0,0,0,.4,2.2A1.3,1.3,0,0,0,81.9,436.3Zm6-6.6a2,2,0,0,1,1.8.9,4.5,4.5,0,0,1,.7,2.8,4.7,4.7,0,0,1-.7,2.8,2,2,0,0,1-1.8.9,2.2,2.2,0,0,1-1.9-.9,4.5,4.5,0,0,1-.7-2.8,6.6,6.6,0,0,1,.3-2.1,2.7,2.7,0,0,1,.9-1.2A2.1,2.1,0,0,1,87.9,429.7Zm0,6.6a1.1,1.1,0,0,0,1.1-.7,4.1,4.1,0,0,0,.4-2.2,4.7,4.7,0,0,0-.4-2.3,1.1,1.1,0,0,0-1.1-.6,1.4,1.4,0,0,0-1.2.6,4.7,4.7,0,0,0-.4,2.3,4.1,4.1,0,0,0,.4,2.2A1.3,1.3,0,0,0,87.9,436.3Zm6.2-6.6a2,2,0,0,1,1.1.2,2.4,2.4,0,0,1,.8.6,2.2,2.2,0,0,1,.5,1.1h-.9a1.9,1.9,0,0,0-.5-.9,1.7,1.7,0,0,0-1-.3,2.1,2.1,0,0,0-1.1.4,2.3,2.3,0,0,0-.6,1.1,4.4,4.4,0,0,0-.1,1.7,1.6,1.6,0,0,1,.4-.7l.6-.4h.8a2.7,2.7,0,0,1,1.3.2l.8.8a2.7,2.7,0,0,1,.3,1.2,2.5,2.5,0,0,1-.3,1.3,2,2,0,0,1-.9.9,2.5,2.5,0,0,1-1.3.3,2.3,2.3,0,0,1-1.4-.4,2.2,2.2,0,0,1-1-1.3,5.4,5.4,0,0,1-.3-1.9,5.6,5.6,0,0,1,.3-2,3.4,3.4,0,0,1,.9-1.4A2.9,2.9,0,0,1,94.1,429.7Zm-.1,3.4-.8.2-.6.5a1.4,1.4,0,0,0-.2.7,2.9,2.9,0,0,0,.2.9,1.3,1.3,0,0,0,.6.7,1.7,1.7,0,0,0,1.6,0,1,1,0,0,0,.5-.6,1.1,1.1,0,0,0,.2-.8,2.8,2.8,0,0,0-.1-.9c-.2-.2-.3-.4-.6-.5Z" transform="translate(-4)"/><path class="cls-11" d="M184,437.1a5.4,5.4,0,0,1-2.7-.6,3,3,0,0,1-1.3-2.1h2a1.4,1.4,0,0,0,.7,1,2.5,2.5,0,0,0,1.3.3h.8l.6-.4a1.4,1.4,0,0,0,.2-.6,1,1,0,0,0-.3-.8l-1.1-.4-1.5-.4a3,3,0,0,1-1.7-.8,2.4,2.4,0,0,1-.7-1.7,3,3,0,0,1,.5-1.6,4.5,4.5,0,0,1,1.3-1,5.8,5.8,0,0,1,1.9-.3,3.4,3.4,0,0,1,1.8.4,2,2,0,0,1,1.2,1,2.3,2.3,0,0,1,.4,1.4h-1.9a1.8,1.8,0,0,0-.4-1,1.6,1.6,0,0,0-1.1-.3h-.7l-.5.2c-.1.1-.3.2-.3.4a.6.6,0,0,0-.1.4.8.8,0,0,0,.2.7l1.1.4,1.5.4a3.4,3.4,0,0,1,1.8,1,2.8,2.8,0,0,1,.6,1.8,2.4,2.4,0,0,1-.4,1.5,3,3,0,0,1-1.3.9A5.4,5.4,0,0,1,184,437.1Zm-.8-10.8h1.6v1.6h-1.6Zm0,10.3h1.6v1.6h-1.6Zm5.7.4v-1.4a2.9,2.9,0,0,1,1-2.2l.9-.6,1.1-.6.9-.5a2.2,2.2,0,0,0,.7-.6,1.1,1.1,0,0,0,.3-.8,1,1,0,0,0-.4-.9,1.8,1.8,0,0,0-1.1-.4,2.1,2.1,0,0,0-1.2.5,1.7,1.7,0,0,0-.6,1.2h-1.8a3.8,3.8,0,0,1,.4-1.6,3.4,3.4,0,0,1,1.2-1.2,4.6,4.6,0,0,1,2.1-.4,4.8,4.8,0,0,1,1.8.3,4,4,0,0,1,1.2,1,2.4,2.4,0,0,1,.4,1.5,2.1,2.1,0,0,1-.3,1.2,2,2,0,0,1-.6.9,2.1,2.1,0,0,1-1,.6l-1,.6-1,.4c-.2.2-.5.4-.6.6a.9.9,0,0,0-.3.7h4.8V437Zm9-9.4h6v1.6h-4.4l-.2,2.2,1-.4h1a4.7,4.7,0,0,1,1.7.3,3.2,3.2,0,0,1,1.2,1.1,2.7,2.7,0,0,1,.4,1.6,2.9,2.9,0,0,1-.4,1.7,3.7,3.7,0,0,1-1.3,1.2,6,6,0,0,1-2,.3l-1.7-.2a4.1,4.1,0,0,1-1.3-.8,3.4,3.4,0,0,1-.9-1.2l1.5-.8a3.5,3.5,0,0,0,.5.8l.8.5.9.2a2,2,0,0,0,1.4-.4,1.7,1.7,0,0,0,.5-1.2,1.9,1.9,0,0,0-.2-.8,3.4,3.4,0,0,0-.6-.6l-1-.2h-1.1l-.5.4h-.2a.1.1,0,0,0-.1-.1l-1.4-.6Zm11.6-.1a4.1,4.1,0,0,1,1.6.3,2.7,2.7,0,0,1,1.2.9,2.5,2.5,0,0,1,.6,1.5h-1.8a1.9,1.9,0,0,0-.5-.9,2,2,0,0,0-1.1-.3,1.5,1.5,0,0,0-1.1.4,1.7,1.7,0,0,0-.6,1,2.9,2.9,0,0,0-.1,1.6l.5-.5.7-.3h.9a4.7,4.7,0,0,1,1.7.3,3.5,3.5,0,0,1,1.1,1,2.6,2.6,0,0,1,.4,1.5,3.4,3.4,0,0,1-.5,1.7,3.2,3.2,0,0,1-1.2,1.1,4.1,4.1,0,0,1-1.9.4,3.6,3.6,0,0,1-2.1-.5,4.5,4.5,0,0,1-1.3-1.7,6,6,0,0,1-.5-2.4,7.6,7.6,0,0,1,.5-2.7,3.9,3.9,0,0,1,1.4-1.7A3.7,3.7,0,0,1,209.5,427.5Zm-.1,5a1.1,1.1,0,0,0-.8.2.9.9,0,0,0-.6.4.9.9,0,0,0-.3.6,4.3,4.3,0,0,0,.2,1.1c.2.2.4.5.6.6a1.1,1.1,0,0,0,.8.3l.9-.2.6-.6a2.9,2.9,0,0,0,.2-.9,1.9,1.9,0,0,0-.2-.8,3.4,3.4,0,0,0-.6-.6Zm8.5-5a4.7,4.7,0,0,1,1.7.3,2.7,2.7,0,0,1,1.2.9,2.5,2.5,0,0,1,.5,1.5h-1.7a1.5,1.5,0,0,0-.6-.9,1.7,1.7,0,0,0-1-.3,1.2,1.2,0,0,0-1.1.4,1.8,1.8,0,0,0-.7,1,4.2,4.2,0,0,0-.1,1.6l.5-.5c.3-.1.5-.3.8-.3h.8a4.3,4.3,0,0,1,1.7.3,2.2,2.2,0,0,1,1.1,1,2.6,2.6,0,0,1,.4,1.5,3.3,3.3,0,0,1-.4,1.7,2.8,2.8,0,0,1-1.3,1.1,3.4,3.4,0,0,1-1.8.4,3.6,3.6,0,0,1-2.1-.5,3.7,3.7,0,0,1-1.3-1.7,4.7,4.7,0,0,1-.5-2.4,5.9,5.9,0,0,1,.5-2.7,3.4,3.4,0,0,1,3.4-2.3Zm-.1,5a1.2,1.2,0,0,0-.8.2l-.6.4a1.4,1.4,0,0,0-.2.6,2.2,2.2,0,0,0,.2,1.1,1.5,1.5,0,0,0,.5.6,1.6,1.6,0,0,0,.9.3l.8-.2a1.7,1.7,0,0,0,.6-.6,1.5,1.5,0,0,0,.2-.9,1.1,1.1,0,0,0-.2-.8c-.1-.3-.3-.4-.6-.6Z" transform="translate(-4)"/><rect class="cls-10" x="30" y="461" width="204" height="40" rx="5"/><path class="cls-11" d="M187,485.1a5.5,5.5,0,0,1-2.8-.6,2.8,2.8,0,0,1-1.2-2.1h2a1.7,1.7,0,0,0,.6,1,2.8,2.8,0,0,0,1.3.3h.9l.5-.4a.9.9,0,0,0,.3-.6,1,1,0,0,0-.4-.8,1.9,1.9,0,0,0-1-.4l-1.5-.4a3.3,3.3,0,0,1-1.8-.8,2.8,2.8,0,0,1-.1-3.3,3.4,3.4,0,0,1,1.3-1,5.4,5.4,0,0,1,1.9-.3,3.4,3.4,0,0,1,1.8.4,2.9,2.9,0,0,1,1.2,1,2.3,2.3,0,0,1,.4,1.4h-1.9a3,3,0,0,0-.4-1,1.8,1.8,0,0,0-1.1-.3h-.7l-.5.2a.8.8,0,0,0-.4.4c0,.1-.1.3-.1.4a.9.9,0,0,0,.3.7,3.4,3.4,0,0,0,1,.4l1.5.4a3.8,3.8,0,0,1,1.9,1,2.8,2.8,0,0,1,.6,1.8,2.5,2.5,0,0,1-.5,1.5,2.7,2.7,0,0,1-1.2.9A5.8,5.8,0,0,1,187,485.1Zm-.9-10.8h1.7v1.6h-1.7Zm0,10.3h1.6v1.6h-1.6Zm9.8-9h1.9v5.7h1.5v1.6h-1.5V485H196v-2.1h-4.3v-1.5Zm-2.5,5.7H196v-3.4Zm8.4,3.7v-7h-1.7v-1.1l1.3-.2c.3-.1.6-.2.7-.4a.9.9,0,0,0,.3-.7h1.3V485Zm7.2.1a4.1,4.1,0,0,1-1.6-.3,3.8,3.8,0,0,1-1.3-.9,2.7,2.7,0,0,1-.5-1.5h1.8a1.9,1.9,0,0,0,.5.9,1.7,1.7,0,0,0,1,.3,2.1,2.1,0,0,0,1.2-.3,1.6,1.6,0,0,0,.8-1,5,5,0,0,0,.2-1.8l-.5.6a2,2,0,0,1-.8.4h-.9a4.3,4.3,0,0,1-1.7-.3,3.2,3.2,0,0,1-1.2-1.1,2.4,2.4,0,0,1-.4-1.5,3.1,3.1,0,0,1,.4-1.7,2.8,2.8,0,0,1,1.3-1.1,3.4,3.4,0,0,1,1.8-.4,4.6,4.6,0,0,1,2.1.5,3.7,3.7,0,0,1,1.3,1.7,5.7,5.7,0,0,1,.5,2.4,7.4,7.4,0,0,1-.5,2.8,3.4,3.4,0,0,1-1.4,1.7A3.5,3.5,0,0,1,209,485.1Zm.2-5a1.2,1.2,0,0,0,.8-.2l.6-.4a1.4,1.4,0,0,0,.2-.6,2,2,0,0,0-.2-1.1,1.3,1.3,0,0,0-.6-.7l-.8-.2-.8.2a3.4,3.4,0,0,0-.6.6,2.4,2.4,0,0,0-.2.9,1.4,1.4,0,0,0,.5,1.1A1.4,1.4,0,0,0,209.2,480.1Zm8.3,5a4.7,4.7,0,0,1-1.7-.3,2.7,2.7,0,0,1-1.2-.9,3.9,3.9,0,0,1-.6-1.5h1.8a1.5,1.5,0,0,0,.6.9,1.5,1.5,0,0,0,1,.3,2.7,2.7,0,0,0,1.2-.3,1.5,1.5,0,0,0,.7-1,3.5,3.5,0,0,0,.2-1.8l-.5.6-.7.4h-1a4.7,4.7,0,0,1-1.7-.3,3.2,3.2,0,0,1-1.2-1.1,3.3,3.3,0,0,1-.4-1.5,3.1,3.1,0,0,1,.5-1.7,3.2,3.2,0,0,1,1.2-1.1,3.8,3.8,0,0,1,1.9-.4,4.2,4.2,0,0,1,2,.5,4.7,4.7,0,0,1,1.4,1.7,5.7,5.7,0,0,1,.4,2.4,5.9,5.9,0,0,1-.5,2.8,3.3,3.3,0,0,1-1.3,1.7A3.6,3.6,0,0,1,217.5,485.1Zm.1-5a1.2,1.2,0,0,0,.8-.2l.6-.4a.7.7,0,0,0,.2-.6,1.4,1.4,0,0,0-.2-1.1,1.8,1.8,0,0,0-.5-.7l-.9-.2-.8.2c-.2.2-.4.3-.5.6a1.3,1.3,0,0,0-.2.9,1.4,1.4,0,0,0,.4,1.1A1.5,1.5,0,0,0,217.6,480.1Z" transform="translate(-4)"/><rect class="cls-11" x="15.1" y="12.4" width="233" height="114"/></g><g class="cls-21"><rect class="cls-10" x="30" y="93" width="204" height="56" rx="5"/><path class="cls-20" d="M50.7,118.6v-.8h5.5v.8H54V125H53v-6.4Zm7.8,6.5a2.8,2.8,0,0,1-1.3-.3,1.8,1.8,0,0,1-.8-.9,3.3,3.3,0,0,1-.3-1.5,3.2,3.2,0,0,1,.3-1.4,1.4,1.4,0,0,1,.8-.9,1.7,1.7,0,0,1,1.3-.4,2.7,2.7,0,0,1,1.2.3,3.9,3.9,0,0,1,.8,1,3.2,3.2,0,0,1,.3,1.4,2.9,2.9,0,0,1-.3,1.4,1.9,1.9,0,0,1-.8,1A2.1,2.1,0,0,1,58.5,125.1Zm0-.7a.9.9,0,0,0,.7-.3c.3-.1.4-.3.5-.6a3.6,3.6,0,0,0,.2-1.1,3,3,0,0,0-.2-1,1.6,1.6,0,0,0-.4-.7,1.1,1.1,0,0,0-.8-.2c-.4,0-.6,0-.8.2s-.4.4-.5.7a2.6,2.6,0,0,0,0,2,1.6,1.6,0,0,0,.4.7A1.2,1.2,0,0,0,58.5,124.4Zm5.9-3.9H63.2v3.2c0,.2.1.3.1.4a.2.2,0,0,0,.2.2h.9v.6H62.8a1,1,0,0,1-.4-.5c-.1-.1-.1-.4-.1-.6v-3.3h-.8v-.7h.8l.3-1.5h.6v1.5h1.2Zm2.6,4.6-.8-.2a1,1,0,0,1-.6-.5,1.1,1.1,0,0,1-.3-.8,1.5,1.5,0,0,1,.6-1.3,3.5,3.5,0,0,1,2-.4h.9v-.4a.9.9,0,0,0-.3-.7,1.2,1.2,0,0,0-.9-.3l-.8.2a1.6,1.6,0,0,0-.4.7h-.8a1.6,1.6,0,0,1,.3-.9,1.3,1.3,0,0,1,.7-.5l1.1-.2,1.1.2a1.3,1.3,0,0,1,.7.6,2,2,0,0,1,.2.9V125h-.8v-1a2.2,2.2,0,0,1-.7.9Zm.3-.7h.5l.5-.2.4-.4c0-.1.1-.3.1-.4v-.9H68l-1,.2a.9.9,0,0,0-.6.3,1.4,1.4,0,0,0-.2.6.9.9,0,0,0,.3.7A1.1,1.1,0,0,0,67.3,124.4Zm5.2.7-.7-.2c-.2,0-.3-.1-.4-.3s-.1-.2-.2-.4v-6.6h.9v6a1.3,1.3,0,0,0,.1.6l.5.2h.2v.6h-.4Zm3.8,1.5v-6.8h.9v.9l.3-.3.3-.3.5-.3h.6a1.8,1.8,0,0,1,1.1.3,2.4,2.4,0,0,1,.8.9,5.9,5.9,0,0,1,.2,1.4,7.8,7.8,0,0,1-.2,1.6,1.8,1.8,0,0,1-.8.9,2,2,0,0,1-1.1.3h-.7l-.4-.2-.3-.4-.3-.3v2.5Zm2.4-2.2a1.2,1.2,0,0,0,1-.5,2.1,2.1,0,0,0,.4-1.5,2.6,2.6,0,0,0-.3-1.4,1.3,1.3,0,0,0-1.1-.6,1.1,1.1,0,0,0-1.1.6,2.6,2.6,0,0,0-.4,1.4,3.6,3.6,0,0,0,.2,1,1.8,1.8,0,0,0,.5.7A1.1,1.1,0,0,0,78.7,124.4Zm4.8.7-.9-.2-.6-.5a1.9,1.9,0,0,1-.2-.8,1.5,1.5,0,0,1,.6-1.3,3.5,3.5,0,0,1,2-.4h.9v-.4a.9.9,0,0,0-.3-.7,1.2,1.2,0,0,0-.9-.3l-.8.2a1.6,1.6,0,0,0-.4.7h-.8a1.6,1.6,0,0,1,.3-.9,1.3,1.3,0,0,1,.7-.5l1.1-.2,1.1.2a.9.9,0,0,1,.6.6,1.2,1.2,0,0,1,.3.9V125h-.8v-1a1.8,1.8,0,0,1-.8.9Zm.3-.7h.5l.5-.2c.1-.1.3-.2.3-.4a.8.8,0,0,0,.2-.4v-.9h-.8l-1,.2a.9.9,0,0,0-.6.3,1.4,1.4,0,0,0-.2.6.9.9,0,0,0,.3.7A1.1,1.1,0,0,0,83.8,124.4Zm4.2,2.2h-.8v-.6h1.3l.2-.2v-.2l.2-.5-2-5.1h.9l1.5,4,1.5-4h.9l-2.1,5.6a5.6,5.6,0,0,1-.5.8.9.9,0,0,1-.5.3Zm4.8-1.6v-5.2h.8v.8l.6-.6a1.7,1.7,0,0,1,1-.3h.6l.5.3a1,1,0,0,1,.4.5,1.3,1.3,0,0,1,.7-.6,1.2,1.2,0,0,1,.9-.3h.5l.6.3a.9.9,0,0,1,.4.6,2,2,0,0,1,.2.9V125H99v-3.3a1.5,1.5,0,0,0-.1-.7l-.4-.4h-1l-.5.3a1.4,1.4,0,0,0-.2.6V125h-.9v-3.6c0-.2-.1-.3-.2-.5l-.4-.3h-1a.8.8,0,0,0-.4.4c-.2.1-.2.3-.2.5V125Zm9.2-2.4c0,.4,0,.7.2.9a.9.9,0,0,0,.4.6,1.4,1.4,0,0,0,.9.3l.8-.2a1.2,1.2,0,0,0,.5-.7h.9a2,2,0,0,1-.5.9,1.8,1.8,0,0,1-.7.5l-1,.2a2.8,2.8,0,0,1-1.3-.3,2.4,2.4,0,0,1-.8-.9,3.2,3.2,0,0,1-.3-1.4,6.1,6.1,0,0,1,.2-1.5,2.4,2.4,0,0,1,.8-.9,2,2,0,0,1,1.3-.4,1.8,1.8,0,0,1,2,1.2,3.2,3.2,0,0,1,.3,1.4v.3Zm0-.6h2.8a1.9,1.9,0,0,0-.1-.8l-.5-.6-.8-.2a1.1,1.1,0,0,0-.8.3c-.2.1-.3.3-.5.6A1.5,1.5,0,0,0,102,122Zm4.9,3v-5.2h.9v.8l.3-.4a.9.9,0,0,1,.6-.3h1.6a2.3,2.3,0,0,1,.7.7,2.5,2.5,0,0,1,.2,1V125h-.9v-3.3a1.2,1.2,0,0,0-.3-.9,1.1,1.1,0,0,0-.8-.3h-.7a1,1,0,0,0-.5.4.8.8,0,0,0-.2.5V125Zm8.1-4.5h-1.2v3.2c0,.2,0,.3.1.4a.2.2,0,0,0,.2.2h.9v.6h-1.6a1,1,0,0,1-.4-.5c-.1-.1-.1-.4-.1-.6v-3.3H112v-.7h.9l.2-1.5h.7v1.5H115Z" transform="translate(-4)"/><path class="cls-14" d="M164.3,128.2a7.8,7.8,0,0,1-4.3-1,4.2,4.2,0,0,1-1.8-3.3h3a3.1,3.1,0,0,0,1,1.5,4.2,4.2,0,0,0,2,.5l1.3-.2a2.2,2.2,0,0,0,.9-.7,1.6,1.6,0,0,0,.3-.9,1.7,1.7,0,0,0-.5-1.2,3,3,0,0,0-1.6-.6l-2.3-.5a5.8,5.8,0,0,1-2.7-1.4,3.6,3.6,0,0,1-1-2.6,4,4,0,0,1,.7-2.4,5.7,5.7,0,0,1,2.1-1.5,6.5,6.5,0,0,1,2.9-.5,8.2,8.2,0,0,1,2.8.5,4.7,4.7,0,0,1,1.8,1.6,3.6,3.6,0,0,1,.7,2.2h-3a3.4,3.4,0,0,0-.6-1.5,2.6,2.6,0,0,0-1.7-.5h-1.1l-.8.4a1.2,1.2,0,0,0-.5.5,1.9,1.9,0,0,0-.2.7,1.1,1.1,0,0,0,.5,1,3,3,0,0,0,1.6.7l2.3.6a4.3,4.3,0,0,1,2.8,1.6,4.5,4.5,0,0,1,.9,2.8,3.6,3.6,0,0,1-.7,2.2,4,4,0,0,1-1.9,1.4A8.4,8.4,0,0,1,164.3,128.2ZM163,111.5h2.5v2.6H163Zm0,15.8h2.5v2.6H163Zm13.8.9a7,7,0,0,1-2.5-.5,4,4,0,0,1-1.9-1.5,3.3,3.3,0,0,1-.8-2.2h2.8a2,2,0,0,0,.8,1.4,2.5,2.5,0,0,0,1.5.5,3.5,3.5,0,0,0,1.8-.5,2.3,2.3,0,0,0,1.2-1.5,6.2,6.2,0,0,0,.3-2.8l-.8.9a2.4,2.4,0,0,1-1.1.6l-1.5.2a6.7,6.7,0,0,1-2.6-.5,4,4,0,0,1-1.8-1.6,4.9,4.9,0,0,1-.6-2.5,5.1,5.1,0,0,1,.6-2.5,5.2,5.2,0,0,1,1.9-1.7,6.9,6.9,0,0,1,2.9-.7,5.7,5.7,0,0,1,3.2.9,5,5,0,0,1,2,2.5,8.9,8.9,0,0,1,.7,3.8,11.1,11.1,0,0,1-.7,4.3,6.1,6.1,0,0,1-2.1,2.6A6.7,6.7,0,0,1,176.8,128.2Zm.3-7.7a2.7,2.7,0,0,0,1.2-.3,2.2,2.2,0,0,0,.9-.7,1.2,1.2,0,0,0,.4-.9,3.8,3.8,0,0,0-.3-1.6,2.4,2.4,0,0,0-.9-1.1,2.8,2.8,0,0,0-1.3-.3,2.1,2.1,0,0,0-1.2.3,2,2,0,0,0-.9.9,2.8,2.8,0,0,0-.3,1.3,2.3,2.3,0,0,0,.7,1.8A2.4,2.4,0,0,0,177.1,120.5Zm7.7,7.5v-2.2a4.1,4.1,0,0,1,.4-1.9,4.9,4.9,0,0,1,1.1-1.4,5.6,5.6,0,0,1,1.5-1l1.6-.9,1.5-.8,1.1-.9a2.1,2.1,0,0,0,.4-1.2,1.8,1.8,0,0,0-.6-1.4,2.3,2.3,0,0,0-1.7-.5,2.8,2.8,0,0,0-1.8.6,2.7,2.7,0,0,0-1,1.9h-2.8a5.2,5.2,0,0,1,.7-2.5,3.7,3.7,0,0,1,1.9-1.8,6.8,6.8,0,0,1,3.1-.7,6.1,6.1,0,0,1,2.8.6,4.5,4.5,0,0,1,1.8,1.5,4.4,4.4,0,0,1,.6,2.3,3.8,3.8,0,0,1-.4,1.9,3.2,3.2,0,0,1-1,1.3l-1.5,1-1.5.8-1.5.7a4.5,4.5,0,0,0-1,.9,1.5,1.5,0,0,0-.4,1.1h7.3V128Zm17.9-14.7a4.7,4.7,0,0,1,4,2,8.8,8.8,0,0,1,1.5,5.5,9.5,9.5,0,0,1-1.4,5.5,4.9,4.9,0,0,1-4.1,1.9,4.8,4.8,0,0,1-4.1-1.9,8.8,8.8,0,0,1-1.5-5.5,10.4,10.4,0,0,1,.7-4.1,5.4,5.4,0,0,1,1.9-2.5A4.9,4.9,0,0,1,202.7,113.3Zm0,12.5a2.1,2.1,0,0,0,1.9-1.1,9.3,9.3,0,0,0,.6-3.9,9.8,9.8,0,0,0-.6-4,2.2,2.2,0,0,0-1.9-1.2,1.9,1.9,0,0,0-1.9,1.3,7.7,7.7,0,0,0-.7,3.9,7.7,7.7,0,0,0,.7,3.9A2,2,0,0,0,202.7,125.8Zm13.6-12.3h2.9v8.9h2.2v2.4h-2.2V128h-2.8v-3.2h-6.7v-2.4Zm-3.9,8.9h4v-5.3Z" transform="translate(-4)"/></g><path class="cls-1" d="M178,51.4V49.3h-.7v2.1Zm-53.1,16V62.5h.1a2.8,2.8,0,0,0,1.3,1.1,3.7,3.7,0,0,0,1.8.4,4.2,4.2,0,0,0,2-.4,3.3,3.3,0,0,0,1.4-1.2,5.6,5.6,0,0,0,.9-1.7,6.9,6.9,0,0,0,.3-2,7.8,7.8,0,0,0-.3-2.2,6.1,6.1,0,0,0-.9-1.8,5.3,5.3,0,0,0-1.4-1.2,4.8,4.8,0,0,0-2.2-.5,4.7,4.7,0,0,0-1.7.4,3.5,3.5,0,0,0-1.4,1.3h0V53.3h-2.7V67.4Zm2.4-5.5a2,2,0,0,1-1.1-.3,1.9,1.9,0,0,1-.8-.7,2.1,2.1,0,0,1-.4-1.1,5,5,0,0,1-.2-1.2c0-.5.1-.9.1-1.3a3.1,3.1,0,0,1,.5-1,1.9,1.9,0,0,1,.7-.8,2.6,2.6,0,0,1,2.4,0,1.9,1.9,0,0,1,.7.8,3.1,3.1,0,0,1,.5,1,6.2,6.2,0,0,1,.1,1.3,4.9,4.9,0,0,1-.1,1.2,3.6,3.6,0,0,1-.4,1.1,2.7,2.7,0,0,1-.8.7A2.1,2.1,0,0,1,127.3,61.9Zm12,1.9-1.9.2H136l-1.2-.6a3.6,3.6,0,0,1-.7-1,2.9,2.9,0,0,1-.3-1.4,2.6,2.6,0,0,1,.3-1.4,3.9,3.9,0,0,1,.8-1,4.3,4.3,0,0,1,1.2-.5l1.2-.2,1.3-.2,1.1-.2.8-.3a.9.9,0,0,0,.3-.7,1.9,1.9,0,0,0-.2-.8c-.1-.1-.2-.3-.4-.4l-.6-.2h-.7a2.3,2.3,0,0,0-1.3.3,1.4,1.4,0,0,0-.6,1.2h-2.9a3.8,3.8,0,0,1,.5-1.6,3.2,3.2,0,0,1,1.2-1.1,3.4,3.4,0,0,1,1.5-.6L139,53l1.6.2a3.3,3.3,0,0,1,1.5.4,2.4,2.4,0,0,1,1.1.9,2.4,2.4,0,0,1,.4,1.5v5.4a6.1,6.1,0,0,0,.1,1.4,6.2,6.2,0,0,0,.3,1h-2.9c-.1-.2-.1-.4-.2-.5v-.5A5.4,5.4,0,0,1,139.3,63.8Zm-.9-1.7h-.6l-.6-.2a1,1,0,0,1-.4-.5c-.1-.1-.1-.3-.1-.6a1.5,1.5,0,0,1,.1-.7c.1-.1.2-.3.4-.4l.5-.3h2l.6-.2.5-.2v1c0,.2-.1.4-.1.7a1.6,1.6,0,0,1-.3.8,1.5,1.5,0,0,1-.7.7Zm11.2,4.8a4.3,4.3,0,0,1-2.4.5h-1.7V65h1.7a1.4,1.4,0,0,0,.8-.5,1.1,1.1,0,0,0,.3-.8c0-.3-.1-.5-.1-.7l-3.7-9.8h3.1l2.3,7.2h.1l2.2-7.2h3l-4.4,11.8A4.1,4.1,0,0,1,149.6,66.9Zm9.5-2.9a2.7,2.7,0,0,0,1.3-.2l1.2-.5a2.7,2.7,0,0,0,.8-.7,4.1,4.1,0,0,0,.5-.9h.1v1.2a.8.8,0,0,0,.2.4l.4.4H165V63h-1l-.2-.3c0-.1-.1-.3-.1-.4V55.8a2.6,2.6,0,0,0-.8-1.9,4.3,4.3,0,0,0-2.8-.8,4.4,4.4,0,0,0-2.9.9,3.5,3.5,0,0,0-1.1,2.6h.8a2.8,2.8,0,0,1,.9-2.1,3.5,3.5,0,0,1,2.3-.7l1.3.2a1.9,1.9,0,0,1,.9.4,1.8,1.8,0,0,1,.5.7,1.9,1.9,0,0,1,.2.8,2.8,2.8,0,0,1-.1.9.9.9,0,0,1-.3.6l-.7.3-1.3.2h-1.2l-1.3.2a3.3,3.3,0,0,0-1.2.5,2.8,2.8,0,0,0-1,.9,3.3,3.3,0,0,0-.3,1.5,2.7,2.7,0,0,0,.9,2.2A4,4,0,0,0,159.1,64Zm-2-1.2a3,3,0,0,0,2,.5,4.4,4.4,0,0,0,2.1-.4,2.9,2.9,0,0,0,1.1-1.1,2.1,2.1,0,0,0,.5-1.2c.1-.4.2-.7.2-.8V57.9a1.3,1.3,0,0,1-.9.4l-1.3.2h-1.3l-1.1.2-1,.4a2.7,2.7,0,0,0-.8.7,2.1,2.1,0,0,0-.3,1.2A2,2,0,0,0,157.1,62.8Zm9.9,4.7V61.6h0a3.2,3.2,0,0,0,1.5,1.9,5.6,5.6,0,0,0,2.3.5,4.6,4.6,0,0,0,2.1-.4,4.9,4.9,0,0,0,1.4-1.1,5.6,5.6,0,0,0,.9-1.7,7.8,7.8,0,0,0,.3-2.2,7.6,7.6,0,0,0-.3-2.1,5.6,5.6,0,0,0-.9-1.7,5.3,5.3,0,0,0-1.4-1.2,4.6,4.6,0,0,0-2.1-.5,3.3,3.3,0,0,0-1.5.3,3,3,0,0,0-1.1.7,2,2,0,0,0-.8.8,3.6,3.6,0,0,0-.4.9h0V53.4h-.8V67.5Zm2-4.5a4.5,4.5,0,0,0,1.8.3,4.3,4.3,0,0,0,1.7-.3,3.2,3.2,0,0,0,1.2-1.1,3.6,3.6,0,0,0,.8-1.5,9.9,9.9,0,0,0,.2-1.8,8.8,8.8,0,0,0-.2-1.7,7.7,7.7,0,0,0-.7-1.6,4.3,4.3,0,0,0-1.2-1.1,4.3,4.3,0,0,0-3.6,0,3.2,3.2,0,0,0-1.2,1.1,3.4,3.4,0,0,0-.6,1.5,11,11,0,0,0-.2,1.8,5.5,5.5,0,0,0,.2,1.8,3.4,3.4,0,0,0,.6,1.5A4.3,4.3,0,0,0,169,63Zm8.3-9.6h.7V63.8h-.7Z" transform="translate(-4)"/><circle class="cls-22" cx="105.1" cy="49.2" r="1.9" transform="translate(-8 88.7) rotate(-45)"/><circle class="cls-22" cx="109.6" cy="53.6" r="1.9" transform="translate(-9.8 93.2) rotate(-45)"/><circle class="cls-22" cx="114" cy="58.1" r="1.9" transform="translate(-11.7 97.6) rotate(-45)"/><circle class="cls-22" cx="100.6" cy="53.6" r="1.9" transform="translate(-12.4 86.9) rotate(-45)"/><circle class="cls-23" cx="105.1" cy="58.1" r="1.9" transform="translate(-14.3 91.3) rotate(-45)"/><circle class="cls-23" cx="109.6" cy="62.6" r="1.9" transform="translate(-16.1 95.8) rotate(-45)"/><circle class="cls-22" cx="92.2" cy="58.1" r="1.9"/><circle class="cls-23" cx="100.6" cy="62.6" r="1.9" transform="translate(-18.8 89.5) rotate(-45)"/><circle class="cls-24" cx="105.1" cy="67" r="1.9" transform="translate(-20.6 93.9) rotate(-45)"/></svg>