<svg width="127" height="240" viewBox="0 0 127 240" fill="none" xmlns="http://www.w3.org/2000/svg">
<g clip-path="url(#clip0)">
<path fill-rule="evenodd" clip-rule="evenodd" d="M17.3 0.27002H109.79C118.66 0.27002 125.85 7.11002 125.85 15.54V224.46C125.85 232.89 118.66 239.73 109.79 239.73H17.3C8.42999 239.73 1.23999 232.89 1.23999 224.46V15.54C1.23999 7.11002 8.42999 0.27002 17.3 0.27002Z" fill="#213648"/>
<path opacity="0.6" fill-rule="evenodd" clip-rule="evenodd" d="M110.15 0H16.89C12.5367 0.26 8.53668 2.23333 4.89001 5.92C8.22615 2.93004 12.5212 1.23115 17 1.13H110C114.51 1.20795 118.842 2.90848 122.2 5.92C118.52 2.24 114.503 0.266667 110.15 0Z" fill="url(#paint0_linear)" fill-opacity="0.65"/>
<path opacity="0.75" fill-rule="evenodd" clip-rule="evenodd" d="M123.33 222.08V16.7902C123.33 11.2802 121.33 9.2502 120.07 7.9402C118.81 6.6302 118.8 5.9402 120.55 6.9402C122.3 7.9402 125.8 10.8002 125.8 16.7802V222.08C125.8 228.08 122.3 230.93 120.55 231.92C118.8 232.91 118.86 232.24 120.07 230.92C121.28 229.6 123.33 227.59 123.33 222.08Z" fill="url(#paint1_linear)"/>
<path opacity="0.75" fill-rule="evenodd" clip-rule="evenodd" d="M3.70999 222.08V16.7902C3.70999 11.2802 5.70999 9.2502 6.96999 7.9402C8.22999 6.6302 8.23999 5.9402 6.48999 6.9402C4.73999 7.9402 1.23999 10.8002 1.23999 16.7802V222.08C1.23999 228.08 4.73999 230.93 6.48999 231.92C8.23999 232.91 8.17999 232.24 6.96999 230.92C5.75999 229.6 3.70999 227.59 3.70999 222.08Z" fill="url(#paint2_linear)"/>
<path fill-rule="evenodd" clip-rule="evenodd" d="M0 49.9998C0 49.6815 0.126428 49.3763 0.351472 49.1513C0.576516 48.9262 0.88174 48.7998 1.2 48.7998C1.51826 48.7998 1.82348 48.9262 2.04853 49.1513C2.27357 49.3763 2.4 49.6815 2.4 49.9998V78.4298C2.4 78.7481 2.27357 79.0533 2.04853 79.2783C1.82348 79.5034 1.51826 79.6298 1.2 79.6298C0.88174 79.6298 0.576516 79.5034 0.351472 79.2783C0.126428 79.0533 0 78.7481 0 78.4298L0 49.9998Z" fill="#2E423C"/>
<path fill-rule="evenodd" clip-rule="evenodd" d="M124.56 75.1399C124.56 74.8217 124.686 74.5165 124.912 74.2914C125.137 74.0664 125.442 73.9399 125.76 73.9399C126.078 73.9399 126.384 74.0664 126.609 74.2914C126.834 74.5165 126.96 74.8217 126.96 75.1399V95.2799C126.96 95.5982 126.834 95.9034 126.609 96.1285C126.384 96.3535 126.078 96.4799 125.76 96.4799C125.442 96.4799 125.137 96.3535 124.912 96.1285C124.686 95.9034 124.56 95.5982 124.56 95.2799V75.1399Z" fill="#2E423C"/>
<path fill-rule="evenodd" clip-rule="evenodd" d="M52.56 6.00022H16.56C11.2 6.00022 7.29004 9.60022 7.29004 14.3502V217.09C7.29004 223.27 13.34 228.75 20.17 228.75H106.91C113.49 228.75 119.79 223.23 119.79 217.09V14.8902C119.79 9.21022 115.54 6.01021 110.51 5.97021H74C72.3251 6.64941 70.9777 7.95017 70.24 9.60022C69.18 12.1902 67.04 14.2502 64.71 14.2502H62C60.89 14.2502 58 13.1802 56.48 9.60022C54.96 6.02022 52.7 6.00022 52.56 6.00022Z" fill="white"/>
<path d="M120 6H7V229H120V6Z" fill="url(#paint3_linear)"/>
<path fill-rule="evenodd" clip-rule="evenodd" d="M58.76 65.3099V67.1999H50.54V65.5299C50.5279 65.0214 50.6376 64.5173 50.86 64.0599C51.0684 63.6553 51.3537 63.2952 51.7 62.9999C52.0542 62.6907 52.4396 62.4193 52.85 62.1899C53.26 61.9599 53.68 61.7499 54.1 61.5399C54.52 61.3299 54.9 61.1299 55.24 60.9199C55.5584 60.7411 55.8428 60.5076 56.08 60.2299C56.2951 59.9763 56.409 59.6523 56.4 59.3199C56.4077 59.1147 56.3695 58.9103 56.2881 58.7218C56.2068 58.5332 56.0845 58.3651 55.93 58.2299C55.5712 57.934 55.1143 57.784 54.65 57.8099C54.1315 57.7955 53.6248 57.9656 53.22 58.2899C52.804 58.6692 52.5438 59.1895 52.49 59.7499H50.33C50.3377 59.0787 50.5094 58.4196 50.83 57.8299C51.1702 57.2422 51.674 56.7662 52.28 56.4599C53.002 56.1392 53.7809 55.966 54.5709 55.9506C55.3608 55.9351 56.1459 56.0777 56.88 56.3699C57.4477 56.6247 57.9327 57.0334 58.28 57.5499C58.6182 58.0736 58.7923 58.6865 58.78 59.3099C58.7904 59.8075 58.6842 60.3006 58.47 60.7499C58.2617 61.1316 57.9835 61.4709 57.65 61.7499C57.3031 62.0373 56.9278 62.2886 56.53 62.4999C56.12 62.7199 55.71 62.9099 55.31 63.0999C54.91 63.2899 54.53 63.4699 54.19 63.6599C53.8818 63.8285 53.6045 64.0483 53.37 64.3099C53.1611 64.5507 53.0504 64.8612 53.06 65.1799V65.2799L58.76 65.3099ZM48 56.0999V67.1999H45.71V58.8799H43.71V57.6099C44.2328 57.6297 44.7556 57.569 45.26 57.4299C45.6003 57.3454 45.9092 57.1649 46.15 56.9099C46.3422 56.6792 46.4637 56.3979 46.5 56.0999H48ZM62.74 61.8599V59.4499H60.26V61.8599H62.74ZM62.74 64.7599V67.1499H60.26V64.7599H62.74ZM71.65 67.1999V64.7399H73.38V62.8599H71.65V56.0999H69.43L64.33 62.8999V64.7399H69.49V67.1999H71.65ZM66.42 62.8599H69.49V58.7899L66.42 62.8599ZM78.61 67.3699C79.4987 67.3936 80.376 67.1647 81.14 66.7099C81.8797 66.2307 82.4499 65.531 82.77 64.7099C83.1809 63.6562 83.3747 62.5303 83.34 61.3999C83.3594 60.4055 83.1722 59.418 82.79 58.4999C82.457 57.7221 81.9044 57.0584 81.2 56.5899C80.4622 56.133 79.6075 55.9002 78.74 55.9199C77.9744 55.9011 77.2158 56.0693 76.53 56.4099C75.9245 56.706 75.415 57.167 75.06 57.7399C74.7046 58.3239 74.5209 58.9963 74.53 59.6799C74.5125 60.3384 74.6862 60.9879 75.03 61.5499C75.364 62.08 75.8429 62.5034 76.41 62.7699C77.0369 63.0574 77.7203 63.2009 78.41 63.1899C78.7927 63.1958 79.1739 63.1418 79.54 63.0299C79.8645 62.9255 80.1688 62.7665 80.44 62.5599C80.6845 62.3648 80.8884 62.1235 81.04 61.8499C81.1266 62.5726 81.0584 63.3055 80.84 63.9999C80.685 64.4933 80.3633 64.9175 79.93 65.1999C79.5046 65.4556 79.0162 65.5872 78.52 65.5799C78.0905 65.5968 77.6692 65.4586 77.3332 65.1905C76.9972 64.9224 76.7689 64.5424 76.69 64.1199H74.54C74.5757 64.7384 74.7989 65.3314 75.18 65.8199C75.5659 66.3317 76.075 66.7377 76.66 66.9999C77.2761 67.2609 77.941 67.3871 78.61 67.3699V67.3699ZM77.47 60.9999C77.8365 61.3293 78.3176 61.5017 78.81 61.4799C79.1285 61.4795 79.4429 61.4078 79.73 61.2699C80.005 61.1416 80.2528 60.9616 80.46 60.7399C80.6376 60.5611 80.7412 60.3218 80.75 60.0699C80.7612 59.631 80.6794 59.1948 80.51 58.7899C80.3686 58.4558 80.1321 58.1706 79.83 57.9699C79.5309 57.7814 79.1834 57.6841 78.83 57.6899C78.4809 57.6759 78.1347 57.759 77.83 57.9299C77.5525 58.097 77.3246 58.3352 77.17 58.6199C77.0102 58.9289 76.9279 59.272 76.93 59.6199C76.9142 59.8753 76.9544 60.1311 77.0476 60.3695C77.1409 60.6078 77.285 60.8229 77.47 60.9999V60.9999Z" fill="white"/>
<path d="M113.24 80H12.24C11.1354 80 10.24 80.8954 10.24 82V120.55C10.24 121.655 11.1354 122.55 12.24 122.55H113.24C114.345 122.55 115.24 121.655 115.24 120.55V82C115.24 80.8954 114.345 80 113.24 80Z" fill="#FBFCFE"/>
<path d="M18.11 97.31V96.88H20.85V97.31H19.75V100.5H19.28V97.31H18.11ZM21.35 100.5V96.79H21.8V98.29C21.852 98.2129 21.9203 98.1481 22 98.1C22.0749 98.0297 22.1634 97.9752 22.26 97.94C22.3787 97.8982 22.504 97.8779 22.63 97.88C22.7891 97.8763 22.9468 97.9106 23.09 97.98C23.217 98.038 23.3272 98.1275 23.41 98.24C23.4911 98.3611 23.533 98.5043 23.53 98.65V100.5H23.07V98.74C23.074 98.6731 23.0615 98.6061 23.0336 98.5451C23.0057 98.4841 22.9632 98.4308 22.91 98.39C22.7936 98.2984 22.6479 98.2522 22.5 98.26C22.3871 98.2587 22.2751 98.2791 22.17 98.32C22.0719 98.3512 21.985 98.4103 21.92 98.49C21.858 98.5699 21.8261 98.669 21.83 98.77V100.5H21.35ZM24.56 99.32C24.5595 99.4704 24.5866 99.6195 24.64 99.76C24.6915 99.8854 24.7784 99.9931 24.89 100.07C25.0136 100.154 25.1607 100.196 25.31 100.19C25.4573 100.192 25.6024 100.154 25.73 100.08C25.7898 100.042 25.8411 99.9927 25.8807 99.9342C25.9203 99.8757 25.9473 99.8096 25.96 99.74H26.4C26.3757 99.9074 26.3027 100.064 26.19 100.19C26.0823 100.309 25.9488 100.401 25.8 100.46C25.6467 100.519 25.4841 100.549 25.32 100.55C25.096 100.556 24.8745 100.501 24.68 100.39C24.4924 100.29 24.3418 100.132 24.25 99.94C24.141 99.7194 24.0862 99.4761 24.09 99.23C24.086 98.9862 24.1338 98.7442 24.23 98.52C24.3158 98.3228 24.4585 98.1556 24.64 98.04C24.831 97.9196 25.0543 97.8603 25.28 97.87C25.4964 97.8627 25.7108 97.9145 25.9 98.02C26.0689 98.1285 26.2013 98.2853 26.28 98.47C26.3737 98.6841 26.4181 98.9165 26.41 99.15V99.32H24.56ZM24.56 99H26C26.0011 98.8626 25.9738 98.7265 25.92 98.6C25.8752 98.4845 25.7946 98.3864 25.69 98.32C25.5775 98.2454 25.4449 98.207 25.31 98.21C25.1669 98.2034 25.0258 98.2457 24.91 98.33C24.8035 98.4057 24.7204 98.5096 24.67 98.63C24.6096 98.7451 24.5722 98.8707 24.56 99V99ZM28.17 101.3V97.91H28.63V98.37C28.6631 98.3088 28.7034 98.2518 28.75 98.2C28.7992 98.1393 28.8564 98.0855 28.92 98.04C28.9954 97.9829 29.0799 97.939 29.17 97.91C29.2727 97.8939 29.3773 97.8939 29.48 97.91C29.6582 97.8929 29.8378 97.924 30 98C30.1674 98.0986 30.2975 98.2498 30.37 98.43C30.4655 98.6611 30.5099 98.9102 30.5 99.16C30.5085 99.4196 30.4642 99.6781 30.37 99.92C30.2957 100.107 30.1668 100.267 30 100.38C29.8276 100.492 29.6251 100.548 29.42 100.54C29.3173 100.556 29.2127 100.556 29.11 100.54C29.0266 100.515 28.9486 100.474 28.88 100.42L28.71 100.25C28.6697 100.192 28.6329 100.132 28.6 100.07V101.34L28.17 101.3ZM29.36 100.19C29.4593 100.193 29.558 100.173 29.6483 100.131C29.7386 100.09 29.8179 100.028 29.88 99.95C30.0323 99.7273 30.1029 99.4589 30.08 99.19C30.094 98.9437 30.0311 98.6991 29.9 98.49C29.8343 98.4086 29.7513 98.343 29.657 98.2979C29.5627 98.2527 29.4595 98.2293 29.355 98.2293C29.2504 98.2293 29.1472 98.2527 29.0529 98.2979C28.9586 98.343 28.8756 98.4086 28.81 98.49C28.6812 98.7001 28.6185 98.9439 28.63 99.19C28.6297 99.3599 28.6568 99.5287 28.71 99.69C28.7608 99.8296 28.8469 99.9536 28.96 100.05C29.0137 100.099 29.0769 100.137 29.1456 100.161C29.2144 100.185 29.2873 100.195 29.36 100.19V100.19ZM31.82 100.55C31.6652 100.553 31.5116 100.523 31.37 100.46C31.2511 100.402 31.1481 100.317 31.07 100.21C31.0099 100.082 30.9857 99.9405 31 99.8C30.9907 99.6766 31.0135 99.5528 31.066 99.4407C31.1186 99.3286 31.1991 99.2319 31.3 99.16C31.6061 98.9936 31.9519 98.9141 32.3 98.93H32.76V98.73C32.763 98.6621 32.7522 98.5942 32.7281 98.5306C32.704 98.467 32.6672 98.4089 32.62 98.36C32.558 98.308 32.4863 98.2689 32.409 98.2448C32.3318 98.2208 32.2505 98.2124 32.17 98.22C32.0333 98.2177 31.8986 98.2523 31.78 98.32C31.6645 98.3998 31.5854 98.5221 31.56 98.66H31.16C31.1619 98.5058 31.2107 98.3558 31.3 98.23C31.3844 98.1068 31.5076 98.0153 31.65 97.97C31.8263 97.9071 32.0127 97.8766 32.2 97.88C32.3906 97.8749 32.5805 97.9054 32.76 97.97C32.8983 98.0236 33.0146 98.1223 33.09 98.25C33.1716 98.389 33.2099 98.5492 33.2 98.71V100.51H32.81V100.02C32.7355 100.203 32.5968 100.352 32.42 100.44C32.2351 100.535 32.0264 100.573 31.82 100.55V100.55ZM31.96 100.22C32.0427 100.234 32.1272 100.234 32.21 100.22C32.2977 100.193 32.3793 100.149 32.45 100.09C32.5189 100.043 32.5769 99.9816 32.62 99.91C32.6654 99.8495 32.69 99.7758 32.69 99.7V99.26H32.3C32.1353 99.2665 31.9714 99.2866 31.81 99.32C31.6952 99.351 31.5913 99.4133 31.51 99.5C31.443 99.5893 31.4078 99.6984 31.41 99.81C31.4079 99.8743 31.4204 99.9382 31.4463 99.9971C31.4723 100.056 31.5111 100.108 31.56 100.15C31.6938 100.224 31.8496 100.249 32 100.22H31.96ZM34.1 101.32C33.9938 101.335 33.8861 101.335 33.78 101.32H33.7V101H34C34.0796 101.011 34.1603 101.011 34.24 101C34.2941 100.987 34.3451 100.963 34.39 100.93C34.4276 100.905 34.4585 100.87 34.48 100.83C34.5005 100.799 34.5173 100.765 34.53 100.73L34.62 100.49L33.62 97.96H34L34.76 99.96L35.52 97.96H36L34.91 100.75C34.86 100.889 34.7855 101.018 34.69 101.13C34.6144 101.216 34.518 101.282 34.41 101.32C34.3075 101.339 34.2024 101.339 34.1 101.32ZM36.51 100.5V97.91H37V98.29C37.0789 98.171 37.1809 98.069 37.3 97.99C37.4483 97.9036 37.6185 97.8619 37.79 97.87C37.8828 97.8569 37.9771 97.8569 38.07 97.87C38.1675 97.9005 38.2589 97.9479 38.34 98.01C38.4168 98.0783 38.4811 98.1596 38.53 98.25C38.6117 98.1203 38.7253 98.0136 38.86 97.94C39.0002 97.8616 39.1594 97.8235 39.32 97.83C39.4128 97.8169 39.5071 97.8169 39.6 97.83C39.7006 97.8523 39.7937 97.9006 39.87 97.97C39.9639 98.0469 40.0363 98.1468 40.08 98.26C40.1368 98.4101 40.1639 98.5697 40.16 98.73V100.42H39.69V98.85C39.6972 98.7261 39.6731 98.6023 39.62 98.49C39.5714 98.4125 39.5021 98.3502 39.42 98.31C39.3345 98.2893 39.2454 98.2893 39.16 98.31C39.0771 98.2971 38.9928 98.2971 38.91 98.31C38.8223 98.3454 38.7436 98.4001 38.68 98.47C38.6165 98.5606 38.5849 98.6696 38.59 98.78V100.51H38.12V98.72C38.1263 98.6265 38.0978 98.5339 38.04 98.46C37.9842 98.397 37.9161 98.3459 37.84 98.31C37.7611 98.2913 37.6789 98.2913 37.6 98.31C37.5109 98.2911 37.419 98.2911 37.33 98.31C37.2426 98.3457 37.1665 98.4045 37.11 98.48C37.0465 98.563 37.0146 98.6658 37.02 98.77V100.5H36.51ZM41.16 99.32C41.1595 99.4704 41.1866 99.6195 41.24 99.76C41.2915 99.8854 41.3784 99.9931 41.49 100.07C41.6136 100.154 41.7607 100.196 41.91 100.19C42.0575 100.193 42.203 100.155 42.33 100.08C42.3898 100.042 42.4411 99.9927 42.4807 99.9342C42.5203 99.8757 42.5473 99.8096 42.56 99.74H43C42.9757 99.9074 42.9027 100.064 42.79 100.19C42.6823 100.309 42.5489 100.401 42.4 100.46C42.2472 100.521 42.0842 100.551 41.92 100.55C41.696 100.556 41.4745 100.501 41.28 100.39C41.0924 100.29 40.9418 100.132 40.85 99.94C40.7445 99.7186 40.6931 99.4752 40.7 99.23C40.6911 98.9857 40.739 98.7427 40.84 98.52C40.9186 98.3214 41.0588 98.1532 41.24 98.04C41.431 97.9196 41.6543 97.8603 41.88 97.87C42.0964 97.8627 42.3108 97.9145 42.5 98.02C42.6689 98.1285 42.8013 98.2853 42.88 98.47C42.9774 98.6832 43.0253 98.9157 43.02 99.15V99.32H41.16ZM41.16 99H42.56C42.5642 98.8633 42.5404 98.7272 42.49 98.6C42.4424 98.4862 42.3624 98.3888 42.26 98.32C42.1439 98.2452 42.008 98.2068 41.87 98.21C41.7271 98.205 41.5865 98.2471 41.47 98.33C41.3635 98.4057 41.2804 98.5096 41.23 98.63C41.1806 98.7468 41.16 98.8737 41.17 99H41.16ZM43.64 100.5V97.91H44.09V98.29C44.1351 98.2144 44.1925 98.1468 44.26 98.09C44.3401 98.0216 44.4315 97.9675 44.53 97.93C44.6505 97.8967 44.7749 97.8799 44.9 97.88C45.0557 97.8779 45.2098 97.9121 45.35 97.98C45.4906 98.0401 45.6068 98.1458 45.68 98.28C45.7681 98.4422 45.8096 98.6257 45.8 98.81V100.5H45.34V98.85C45.348 98.7694 45.3378 98.688 45.3101 98.6118C45.2824 98.5356 45.2379 98.4667 45.18 98.41C45.1251 98.3589 45.0606 98.3192 44.9902 98.2934C44.9197 98.2677 44.8449 98.2563 44.77 98.26C44.6572 98.2597 44.5453 98.28 44.44 98.32C44.3435 98.3489 44.2592 98.4086 44.2 98.49C44.131 98.5665 44.095 98.6672 44.1 98.77V100.5H43.64ZM47.72 98.25H47.14V99.86C47.1273 99.9261 47.1273 99.994 47.14 100.06C47.1502 100.08 47.1644 100.097 47.1816 100.11C47.1988 100.124 47.2187 100.134 47.24 100.14H47.43H47.71V100.45H47.57H47.33C47.1897 100.459 47.0492 100.435 46.92 100.38C46.8272 100.337 46.7528 100.263 46.71 100.17C46.6692 100.058 46.6489 99.9393 46.65 99.82V98.25H46.23V97.91H46.66L46.78 97.16H47.12V97.91H47.7L47.72 98.25ZM49.53 100.5V96.79H50V98.29C50.0454 98.2175 50.1029 98.1532 50.17 98.1C50.2471 98.0275 50.3393 97.9729 50.44 97.94C50.5553 97.8981 50.6773 97.8778 50.8 97.88C50.9591 97.8763 51.1168 97.9106 51.26 97.98C51.3888 98.0351 51.4997 98.1252 51.58 98.24C51.6686 98.358 51.7144 98.5026 51.71 98.65V100.5H51.24V98.74C51.244 98.6731 51.2315 98.6061 51.2036 98.5451C51.1757 98.4841 51.1332 98.4308 51.08 98.39C50.9645 98.2967 50.8181 98.2502 50.67 98.26C50.5605 98.2597 50.4519 98.2801 50.35 98.32C50.2495 98.3462 50.1612 98.4062 50.1 98.49C50.0344 98.5685 49.9989 98.6678 50 98.77V100.5H49.53ZM53.12 100.5C52.9684 100.504 52.8179 100.473 52.68 100.41C52.5577 100.358 52.4534 100.271 52.38 100.16C52.3017 100.038 52.2633 99.8948 52.27 99.75C52.2607 99.6266 52.2835 99.5028 52.336 99.3907C52.3886 99.2786 52.4691 99.1819 52.57 99.11C52.8753 98.9416 53.2217 98.862 53.57 98.88H54V98.68C54.0056 98.6118 53.996 98.5432 53.9718 98.4792C53.9475 98.4152 53.9093 98.3574 53.86 98.31C53.8004 98.2573 53.7305 98.2176 53.6548 98.1935C53.579 98.1694 53.499 98.1614 53.42 98.17C53.283 98.165 53.1476 98.1998 53.03 98.27C52.9698 98.3062 52.9187 98.3556 52.8805 98.4145C52.8424 98.4735 52.8183 98.5403 52.81 98.61H52.4C52.4064 98.4566 52.4549 98.3079 52.54 98.18C52.6407 98.0875 52.7655 98.0251 52.9 98C53.0726 97.936 53.2559 97.9055 53.44 97.91C53.6307 97.9039 53.8208 97.9345 54 98C54.1394 98.0561 54.2582 98.1539 54.34 98.28C54.4174 98.4206 54.4555 98.5796 54.45 98.74V100.54H54.05V100.05C53.9765 100.23 53.8419 100.379 53.67 100.47C53.4999 100.543 53.3138 100.571 53.13 100.55L53.12 100.5ZM53.26 100.17C53.346 100.184 53.4339 100.184 53.52 100.17C53.6059 100.139 53.6867 100.095 53.76 100.04C53.8265 99.9902 53.884 99.9293 53.93 99.86C53.9681 99.7966 53.9888 99.7241 53.99 99.65V99.21H53.61C53.4419 99.2165 53.2747 99.2366 53.11 99.27C52.9969 99.2984 52.8955 99.3613 52.82 99.45C52.7491 99.5373 52.7134 99.6478 52.72 99.76C52.7179 99.8243 52.7304 99.8882 52.7563 99.9471C52.7823 100.006 52.8211 100.058 52.87 100.1C52.985 100.186 53.1267 100.228 53.27 100.22L53.26 100.17ZM56.1 100.5C55.9301 100.5 55.7613 100.473 55.6 100.42C55.4548 100.364 55.3247 100.275 55.22 100.16C55.1153 100.026 55.0465 99.8679 55.02 99.7H55.44C55.4648 99.7918 55.5091 99.877 55.57 99.95C55.6315 100.02 55.711 100.072 55.8 100.1C55.8946 100.141 55.9968 100.161 56.1 100.16C56.2461 100.163 56.3906 100.128 56.52 100.06C56.5713 100.029 56.6134 99.9851 56.6416 99.9322C56.6697 99.8794 56.683 99.8199 56.68 99.76C56.6821 99.7175 56.6752 99.675 56.6597 99.6353C56.6442 99.5957 56.6204 99.5598 56.59 99.53C56.5212 99.4632 56.4342 99.418 56.34 99.4L55.8 99.27C55.6187 99.2302 55.4481 99.1518 55.3 99.04C55.238 98.9829 55.189 98.9132 55.1562 98.8356C55.1234 98.758 55.1077 98.6743 55.11 98.59C55.1083 98.449 55.1464 98.3104 55.22 98.19C55.3033 98.0692 55.4171 97.9725 55.55 97.91C55.7259 97.8452 55.9126 97.8147 56.1 97.82C56.3396 97.8101 56.5766 97.8729 56.78 98C56.8656 98.0657 56.9347 98.1506 56.9816 98.2479C57.0285 98.3452 57.0519 98.4521 57.05 98.56H56.64C56.6344 98.5023 56.6163 98.4464 56.5869 98.3963C56.5575 98.3462 56.5176 98.3031 56.47 98.27C56.3609 98.1884 56.2258 98.1493 56.09 98.16C55.9512 98.1557 55.8135 98.1867 55.69 98.25C55.6404 98.2844 55.6005 98.331 55.5742 98.3853C55.5479 98.4396 55.5361 98.4998 55.54 98.56C55.5378 98.6031 55.5468 98.646 55.566 98.6845C55.5853 98.723 55.6142 98.756 55.65 98.78C55.7517 98.8748 55.8704 98.9495 56 99L56.52 99.13C56.6231 99.1521 56.7214 99.1928 56.81 99.25C56.8821 99.296 56.9462 99.3535 57 99.42C57.0471 99.4826 57.0811 99.554 57.1 99.63C57.1096 99.693 57.1096 99.7571 57.1 99.82C57.1043 99.966 57.0623 100.11 56.98 100.23C56.8922 100.348 56.775 100.441 56.64 100.5C56.4679 100.549 56.2882 100.566 56.11 100.55L56.1 100.5ZM60.1 100.5C59.9706 100.505 59.8415 100.484 59.72 100.44C59.6257 100.404 59.5379 100.354 59.46 100.29C59.4032 100.232 59.3529 100.169 59.31 100.1C59.2786 100.042 59.2519 99.982 59.23 99.92V100.45H58.88V96.79H59.34V98.32C59.3654 98.2682 59.3992 98.2209 59.44 98.18C59.4898 98.1228 59.5469 98.0723 59.61 98.03C59.686 97.9763 59.7705 97.9357 59.86 97.91C59.9693 97.8928 60.0806 97.8928 60.19 97.91C60.3345 97.9061 60.4782 97.9335 60.6112 97.9905C60.7441 98.0475 60.8631 98.1326 60.96 98.24C61.167 98.5305 61.2661 98.8843 61.24 99.24C61.2451 99.4822 61.2044 99.7231 61.12 99.95C61.0501 100.139 60.9246 100.303 60.76 100.42C60.5769 100.521 60.3684 100.566 60.16 100.55L60.1 100.5ZM60.02 100.15C60.1186 100.151 60.2161 100.129 60.3047 100.086C60.3933 100.042 60.4705 99.9787 60.53 99.9C60.6808 99.6729 60.7512 99.4018 60.73 99.13C60.7467 98.8834 60.6836 98.638 60.55 98.43C60.4875 98.3471 60.4055 98.2809 60.3113 98.2373C60.2171 98.1937 60.1136 98.174 60.01 98.18C59.8618 98.1706 59.7145 98.2091 59.59 98.29C59.482 98.3683 59.4043 98.4813 59.37 98.61C59.3137 98.7775 59.2866 98.9534 59.29 99.13C59.2703 99.401 59.3293 99.6718 59.46 99.91C59.5244 100.013 59.6171 100.095 59.7271 100.147C59.8371 100.198 59.9597 100.217 60.08 100.2L60.02 100.15ZM62.13 99.27C62.1295 99.4204 62.1566 99.5695 62.21 99.71C62.2582 99.8373 62.3458 99.9459 62.46 100.02C62.5805 100.102 62.724 100.144 62.87 100.14C63.0206 100.143 63.1693 100.105 63.3 100.03C63.3598 99.9924 63.4111 99.9427 63.4507 99.8842C63.4903 99.8257 63.5173 99.7596 63.53 99.69H64C63.9757 99.8574 63.9027 100.014 63.79 100.14C63.6807 100.261 63.5433 100.354 63.39 100.41C63.2372 100.471 63.0743 100.501 62.91 100.5C62.6891 100.507 62.4708 100.451 62.28 100.34C62.0924 100.24 61.9418 100.082 61.85 99.89C61.7363 99.6711 61.6812 99.4265 61.69 99.18C61.686 98.9361 61.7338 98.6942 61.83 98.47C61.9158 98.2728 62.0585 98.1056 62.24 97.99C62.4305 97.8684 62.6542 97.809 62.88 97.82C63.0963 97.8137 63.3104 97.8655 63.5 97.97C63.6645 98.0835 63.7957 98.2388 63.88 98.42C63.9737 98.6341 64.0181 98.8665 64.01 99.1V99.27H62.13ZM62.13 98.95H63.6C63.6011 98.8126 63.5738 98.6765 63.52 98.55C63.4724 98.4362 63.3924 98.3388 63.29 98.27C63.1775 98.1954 63.0449 98.157 62.91 98.16C62.764 98.1557 62.6205 98.1977 62.5 98.28C62.3992 98.3591 62.3201 98.4623 62.27 98.58C62.2057 98.7102 62.178 98.8554 62.19 99L62.13 98.95ZM64.95 99.27C64.9431 99.4209 64.9704 99.5713 65.03 99.71C65.0743 99.8366 65.1585 99.9454 65.27 100.02C65.3941 100.103 65.5409 100.144 65.69 100.14C65.8406 100.143 65.9893 100.105 66.12 100.03C66.2376 99.9506 66.32 99.8288 66.35 99.69H66.78C66.7557 99.8574 66.6827 100.014 66.57 100.14C66.4635 100.26 66.3297 100.353 66.18 100.41C66.0272 100.471 65.8642 100.501 65.7 100.5C65.4761 100.505 65.2549 100.45 65.06 100.34C64.8763 100.235 64.727 100.078 64.63 99.89C64.5245 99.6686 64.4731 99.4252 64.48 99.18C64.476 98.9361 64.5238 98.6942 64.62 98.47C64.702 98.2735 64.8414 98.1062 65.02 97.99C65.2133 97.885 65.4299 97.83 65.65 97.83C65.87 97.83 66.0866 97.885 66.28 97.99C66.4499 98.1001 66.5852 98.2562 66.67 98.44C66.7637 98.6541 66.8081 98.8865 66.8 99.12V99.29L64.95 99.27ZM65 99H66.4C66.4042 98.8633 66.3804 98.7272 66.33 98.6C66.2824 98.4862 66.2024 98.3888 66.1 98.32C65.9844 98.244 65.8482 98.2056 65.71 98.21C65.5671 98.205 65.4265 98.2471 65.31 98.33C65.2091 98.4114 65.1272 98.5138 65.07 98.63C65.0219 98.7474 64.9981 98.8732 65 99V99ZM67.48 100.5V97.91H67.93V98.29C67.9751 98.2144 68.0325 98.1468 68.1 98.09C68.1801 98.0216 68.2715 97.9675 68.37 97.93C68.4905 97.8967 68.6149 97.8799 68.74 97.88C68.896 97.8751 69.0507 97.9095 69.19 97.98C69.3306 98.0401 69.4468 98.1458 69.52 98.28C69.6116 98.4412 69.6566 98.6247 69.65 98.81V100.5H69.18V98.85C69.188 98.7694 69.1778 98.688 69.1501 98.6118C69.1224 98.5356 69.0779 98.4667 69.02 98.41C68.9651 98.3589 68.9006 98.3192 68.8302 98.2934C68.7597 98.2677 68.6849 98.2563 68.61 98.26C68.5005 98.2597 68.3919 98.2801 68.29 98.32C68.1895 98.3462 68.1012 98.4062 68.04 98.49C67.9744 98.5685 67.9389 98.6678 67.94 98.77V100.5H67.48ZM71.48 101.3V97.91H72V98.37C72.0331 98.3111 72.0698 98.2544 72.11 98.2C72.1628 98.1391 72.2233 98.0853 72.29 98.04C72.363 97.985 72.4439 97.9412 72.53 97.91C72.6359 97.8929 72.744 97.8929 72.85 97.91C73.0396 97.9045 73.2269 97.9531 73.39 98.05C73.5574 98.1486 73.6875 98.2998 73.76 98.48C73.8555 98.7111 73.8999 98.9602 73.89 99.21C73.8985 99.4696 73.8542 99.7281 73.76 99.97C73.6892 100.159 73.5595 100.32 73.39 100.43C73.2176 100.542 73.0151 100.598 72.81 100.59C72.7072 100.606 72.6027 100.606 72.5 100.59C72.4175 100.562 72.3399 100.522 72.27 100.47L72.1 100.3C72.0569 100.204 72.0234 100.103 72 100V101.27L71.48 101.3ZM72.67 100.19C72.7693 100.193 72.868 100.173 72.9583 100.131C73.0486 100.09 73.1279 100.028 73.19 99.95C73.3458 99.7286 73.42 99.46 73.4 99.19C73.416 98.9421 73.3492 98.6958 73.21 98.49C73.1453 98.4088 73.0632 98.3432 72.9697 98.2981C72.8762 98.253 72.7738 98.2296 72.67 98.2296C72.5661 98.2296 72.4637 98.253 72.3702 98.2981C72.2767 98.3432 72.1946 98.4088 72.13 98.49C71.9934 98.6971 71.9268 98.9424 71.94 99.19C71.9397 99.3599 71.9667 99.5287 72.02 99.69C72.0708 99.8296 72.1569 99.9536 72.27 100.05C72.3303 100.105 72.4018 100.145 72.4795 100.17C72.5572 100.194 72.6393 100.201 72.72 100.19H72.67ZM74.45 100.5V97.91H74.89V98.41C74.9255 98.2973 74.9871 98.1945 75.07 98.11C75.1441 98.0291 75.2367 97.9674 75.34 97.93C75.4404 97.8852 75.5501 97.8646 75.66 97.87H75.77H75.85V98.32C75.85 98.32 75.8 98.32 75.76 98.32H75.66C75.5639 98.3044 75.466 98.3044 75.37 98.32C75.2846 98.3333 75.2029 98.3639 75.13 98.41C75.0612 98.4586 75.0061 98.524 74.97 98.6C74.9269 98.6833 74.9062 98.7764 74.91 98.87V100.48L74.45 100.5ZM77.36 100.5C77.1406 100.505 76.9236 100.453 76.73 100.35C76.554 100.241 76.412 100.085 76.32 99.9C76.2146 99.6714 76.1633 99.4217 76.17 99.17C76.166 98.9261 76.2138 98.6842 76.31 98.46C76.3904 98.2651 76.5304 98.1006 76.71 97.99C76.9044 97.8688 77.1311 97.8095 77.36 97.82C77.5857 97.8207 77.807 97.8829 78 98C78.1784 98.1103 78.3209 98.2701 78.41 98.46C78.5862 98.9204 78.5862 99.4297 78.41 99.89C78.3295 100.085 78.1895 100.249 78.01 100.36C77.8311 100.477 77.6236 100.543 77.41 100.55L77.36 100.5ZM77.36 100.13C77.4984 100.137 77.6353 100.098 77.75 100.02C77.8645 99.9355 77.9487 99.8163 77.99 99.68C78.0531 99.5141 78.0837 99.3376 78.08 99.16C78.0811 98.9901 78.054 98.8212 78 98.66C77.9662 98.5202 77.8849 98.3965 77.77 98.31C77.6545 98.2167 77.5081 98.1702 77.36 98.18C77.2171 98.175 77.0765 98.2171 76.96 98.3C76.8434 98.3804 76.7557 98.4961 76.71 98.63C76.6544 98.8011 76.6274 98.9802 76.63 99.16C76.6298 99.3266 76.6568 99.4922 76.71 99.65C76.7479 99.788 76.8284 99.9105 76.94 100C77.0021 100.06 77.0757 100.107 77.1565 100.138C77.2373 100.169 77.3235 100.183 77.41 100.18L77.36 100.13ZM80.17 97.82C80.3419 97.8165 80.5126 97.8507 80.67 97.92C80.8149 97.9857 80.9393 98.0893 81.03 98.22C81.1303 98.3543 81.1925 98.5133 81.21 98.68H80.8C80.7841 98.592 80.7463 98.5095 80.69 98.44C80.6377 98.3595 80.5653 98.294 80.48 98.25C80.3821 98.2083 80.2764 98.1878 80.17 98.19C80.0677 98.1868 79.966 98.2068 79.8725 98.2483C79.779 98.2899 79.6961 98.352 79.63 98.43C79.4739 98.6399 79.3992 98.8993 79.42 99.16C79.4105 99.4136 79.4767 99.6642 79.61 99.88C79.6749 99.969 79.7611 100.04 79.8606 100.088C79.9602 100.135 80.07 100.156 80.18 100.15C80.2876 100.154 80.3945 100.13 80.49 100.08C80.5706 100.034 80.6419 99.9727 80.7 99.9C80.7518 99.8254 80.786 99.7399 80.8 99.65H81.2C81.1852 99.8127 81.1264 99.9682 81.03 100.1C80.9326 100.228 80.8057 100.331 80.66 100.4C80.5065 100.471 80.3388 100.505 80.17 100.5C79.9538 100.504 79.7403 100.452 79.55 100.35C79.3661 100.248 79.2192 100.09 79.13 99.9C79.0235 99.6718 78.9722 99.4218 78.98 99.17C78.9711 98.9257 79.019 98.6827 79.12 98.46C79.2004 98.2651 79.3404 98.1006 79.52 97.99C79.7343 97.8758 79.9798 97.8338 80.22 97.87L80.17 97.82ZM82.17 99.27C82.1695 99.4204 82.1966 99.5695 82.25 99.71C82.3015 99.8354 82.3884 99.9431 82.5 100.02C82.6236 100.104 82.7707 100.146 82.92 100.14C83.0673 100.142 83.2124 100.104 83.34 100.03C83.3998 99.9924 83.4511 99.9427 83.4907 99.8842C83.5303 99.8257 83.5573 99.7596 83.57 99.69H84.01C83.9857 99.8574 83.9127 100.014 83.8 100.14C83.6923 100.259 83.5589 100.351 83.41 100.41C83.2567 100.469 83.0941 100.499 82.93 100.5C82.706 100.506 82.4845 100.451 82.29 100.34C82.1024 100.24 81.9518 100.082 81.86 99.89C81.7545 99.6686 81.7031 99.4252 81.71 99.18C81.7011 98.9357 81.749 98.6927 81.85 98.47C81.9286 98.2714 82.0688 98.1032 82.25 97.99C82.441 97.8696 82.6643 97.8103 82.89 97.82C83.1064 97.8127 83.3208 97.8645 83.51 97.97C83.6789 98.0785 83.8113 98.2353 83.89 98.42C83.9874 98.6332 84.0353 98.8657 84.03 99.1V99.27H82.17ZM82.17 98.95H83.57C83.5742 98.8133 83.5504 98.6772 83.5 98.55C83.4524 98.4362 83.3724 98.3388 83.27 98.27C83.1539 98.1952 83.018 98.1568 82.88 98.16C82.7369 98.1534 82.5958 98.1957 82.48 98.28C82.3735 98.3557 82.2904 98.4596 82.24 98.58C82.1955 98.7157 82.1886 98.8608 82.22 99L82.17 98.95ZM85.55 100.5C85.3801 100.5 85.2113 100.473 85.05 100.42C84.9023 100.363 84.7691 100.274 84.66 100.16C84.5589 100.025 84.4935 99.8669 84.47 99.7H84.89C84.9108 99.7932 84.9556 99.8794 85.02 99.95C85.0815 100.02 85.161 100.072 85.25 100.1C85.3446 100.141 85.4468 100.161 85.55 100.16C85.6961 100.163 85.8406 100.128 85.97 100.06C86.0199 100.028 86.0608 99.9833 86.0888 99.9308C86.1168 99.8783 86.131 99.8195 86.13 99.76C86.1321 99.7175 86.1252 99.675 86.1097 99.6353C86.0942 99.5957 86.0704 99.5598 86.04 99.53C85.9684 99.4614 85.8778 99.4161 85.78 99.4L85.25 99.27C85.0679 99.2325 84.8969 99.1538 84.75 99.04C84.6858 98.9847 84.6352 98.9153 84.6023 98.8373C84.5693 98.7592 84.5548 98.6746 84.56 98.59C84.5583 98.449 84.5964 98.3104 84.67 98.19C84.7481 98.0646 84.8635 97.9668 85 97.91C85.1759 97.8452 85.3626 97.8147 85.55 97.82C85.7866 97.8083 86.021 97.8713 86.22 98C86.3088 98.0627 86.3803 98.1471 86.4275 98.245C86.4748 98.343 86.4962 98.4514 86.49 98.56H86.09C86.0825 98.5028 86.0637 98.4476 86.0345 98.3977C86.0053 98.3479 85.9663 98.3045 85.92 98.27C85.8109 98.1884 85.6758 98.1493 85.54 98.16C85.401 98.1543 85.263 98.1854 85.14 98.25C85.0892 98.2839 85.0479 98.3301 85.0199 98.3844C84.9919 98.4386 84.9782 98.499 84.98 98.56C84.9803 98.6027 84.9904 98.6446 85.0095 98.6828C85.0286 98.7209 85.0561 98.7542 85.09 98.78C85.1928 98.8396 85.3041 98.8834 85.42 98.91L85.94 99.04C86.0431 99.0621 86.1414 99.1028 86.23 99.16C86.3021 99.206 86.3662 99.2635 86.42 99.33C86.4601 99.3952 86.4904 99.466 86.51 99.54C86.5196 99.603 86.5196 99.6671 86.51 99.73C86.5143 99.876 86.4723 100.02 86.39 100.14C86.3071 100.263 86.1884 100.357 86.05 100.41C85.9092 100.483 85.757 100.53 85.6 100.55L85.55 100.5ZM88.06 100.5C87.8901 100.499 87.7215 100.472 87.56 100.42C87.4148 100.364 87.2847 100.275 87.18 100.16C87.0732 100.028 87.0071 99.8686 86.99 99.7H87.41C87.4271 99.7925 87.4685 99.8788 87.53 99.95C87.5915 100.02 87.671 100.072 87.76 100.1C87.8546 100.141 87.9568 100.161 88.06 100.16C88.2061 100.163 88.3506 100.128 88.48 100.06C88.5313 100.029 88.5734 99.9851 88.6016 99.9322C88.6297 99.8794 88.643 99.8199 88.64 99.76C88.6426 99.6761 88.6141 99.5942 88.56 99.53C88.4857 99.4653 88.3963 99.4206 88.3 99.4L87.76 99.27C87.5787 99.2302 87.4081 99.1518 87.26 99.04C87.1993 98.9825 87.1518 98.9124 87.1207 98.8347C87.0896 98.7571 87.0757 98.6736 87.08 98.59C87.0697 98.4494 87.1048 98.3093 87.18 98.19C87.2633 98.0692 87.3771 97.9725 87.51 97.91C87.6859 97.8452 87.8726 97.8147 88.06 97.82C88.2998 97.8082 88.5374 97.8711 88.74 98C88.8256 98.0657 88.8947 98.1506 88.9416 98.2479C88.9885 98.3452 89.0119 98.4521 89.01 98.56H88.6C88.5944 98.5023 88.5763 98.4464 88.5469 98.3963C88.5175 98.3462 88.4776 98.3031 88.43 98.27C88.3244 98.189 88.1926 98.1499 88.06 98.16C87.9178 98.1544 87.7767 98.1854 87.65 98.25C87.6004 98.2844 87.5605 98.331 87.5342 98.3853C87.5079 98.4396 87.4961 98.4998 87.5 98.56C87.5003 98.6027 87.5104 98.6446 87.5295 98.6828C87.5486 98.7209 87.5761 98.7542 87.61 98.78C87.7235 98.8793 87.8562 98.9542 88 99L88.52 99.13C88.6258 99.1535 88.7271 99.194 88.82 99.25C88.8891 99.2962 88.9499 99.3537 89 99.42C89.0471 99.4826 89.0811 99.554 89.1 99.63C89.1096 99.693 89.1096 99.7571 89.1 99.82C89.1043 99.966 89.0623 100.11 88.98 100.23C88.8949 100.351 88.7768 100.445 88.64 100.5C88.4679 100.549 88.2882 100.566 88.11 100.55L88.06 100.5ZM90.06 99.27C90.0563 99.4197 90.08 99.5689 90.13 99.71C90.1815 99.8354 90.2684 99.9431 90.38 100.02C90.5036 100.104 90.6507 100.146 90.8 100.14C90.9504 100.142 91.0987 100.104 91.23 100.03C91.3476 99.9506 91.43 99.8288 91.46 99.69H91.89C91.8657 99.8574 91.7927 100.014 91.68 100.14C91.5723 100.259 91.4388 100.351 91.29 100.41C91.1372 100.471 90.9742 100.501 90.81 100.5C90.586 100.506 90.3645 100.451 90.17 100.34C89.9863 100.235 89.837 100.078 89.74 99.89C89.6345 99.6686 89.5831 99.4252 89.59 99.18C89.5811 98.9357 89.629 98.6927 89.73 98.47C89.812 98.2735 89.9514 98.1062 90.13 97.99C90.321 97.8696 90.5443 97.8103 90.77 97.82C90.9864 97.8127 91.2008 97.8645 91.39 97.97C91.5589 98.0785 91.6913 98.2353 91.77 98.42C91.8674 98.6332 91.9153 98.8657 91.91 99.1V99.27H90.06ZM90.06 98.95H91.46C91.4642 98.8133 91.4404 98.6772 91.39 98.55C91.3424 98.4362 91.2624 98.3388 91.16 98.27C91.0444 98.194 90.9082 98.1556 90.77 98.16C90.627 98.155 90.4865 98.1971 90.37 98.28C90.2635 98.3557 90.1804 98.4596 90.13 98.58C90.085 98.7152 90.0713 98.8588 90.09 99L90.06 98.95ZM93.47 100.5C93.3213 100.506 93.1732 100.478 93.0365 100.419C92.8999 100.36 92.778 100.272 92.68 100.16C92.4634 99.8734 92.357 99.5185 92.38 99.16C92.3767 98.9181 92.4173 98.6775 92.5 98.45C92.5658 98.2572 92.6939 98.0916 92.864 97.9794C93.0342 97.8672 93.2367 97.8147 93.44 97.83C93.5494 97.8142 93.6605 97.8142 93.77 97.83C93.8585 97.8582 93.9426 97.8986 94.02 97.95C94.0809 97.9949 94.1378 98.0451 94.19 98.1L94.29 98.24V96.79H94.75V100.5H94.4L94.35 99.97C94.328 100.032 94.3013 100.092 94.27 100.15C94.2231 100.219 94.1695 100.282 94.11 100.34C94.0371 100.406 93.9522 100.457 93.86 100.49C93.7441 100.53 93.6225 100.55 93.5 100.55L93.47 100.5ZM93.56 100.15C93.666 100.161 93.773 100.144 93.8709 100.102C93.9688 100.06 94.0545 99.9941 94.12 99.91C94.2506 99.6718 94.3096 99.401 94.29 99.13C94.2933 98.9534 94.2663 98.7775 94.21 98.61C94.1652 98.5015 94.094 98.4059 94.0026 98.3321C93.9113 98.2583 93.8029 98.2087 93.6874 98.1878C93.5719 98.1669 93.4529 98.1753 93.3415 98.2124C93.2302 98.2495 93.1299 98.314 93.05 98.4C92.8957 98.6105 92.8245 98.8704 92.85 99.13C92.8352 99.3923 92.8977 99.6531 93.03 99.88C93.0822 99.982 93.1629 100.067 93.2624 100.123C93.3618 100.18 93.4756 100.207 93.59 100.2L93.56 100.15ZM95.41 100.45V99.86H96V100.45H95.41ZM18.08 104.26V103.83H20.82V104.26H19.72V107.45H19.25V104.26H18.08ZM21.32 107.45V103.74H21.77V105.24C21.8162 105.165 21.8775 105.1 21.95 105.05C22.0249 104.98 22.1134 104.925 22.21 104.89C22.3287 104.848 22.454 104.828 22.58 104.83C22.7391 104.826 22.8968 104.861 23.04 104.93C23.167 104.988 23.2772 105.078 23.36 105.19C23.4411 105.311 23.483 105.454 23.48 105.6V107.45H23.02V105.69C23.024 105.623 23.0115 105.556 22.9836 105.495C22.9557 105.434 22.9132 105.381 22.86 105.34C22.7436 105.248 22.5979 105.202 22.45 105.21C22.3371 105.209 22.2251 105.229 22.12 105.27C22.0219 105.301 21.935 105.36 21.87 105.44C21.808 105.52 21.7761 105.619 21.78 105.72V107.45H21.32ZM24.53 106.27C24.5295 106.42 24.5566 106.569 24.61 106.71C24.6615 106.835 24.7484 106.943 24.86 107.02C24.9836 107.104 25.1307 107.146 25.28 107.14C25.4273 107.142 25.5724 107.104 25.7 107.03C25.7598 106.992 25.8111 106.943 25.8507 106.884C25.8903 106.826 25.9173 106.76 25.93 106.69H26.37C26.3457 106.857 26.2727 107.014 26.16 107.14C26.0523 107.259 25.9188 107.351 25.77 107.41C25.6167 107.469 25.4541 107.499 25.29 107.5C25.066 107.506 24.8445 107.451 24.65 107.34C24.4624 107.24 24.3118 107.082 24.22 106.89C24.111 106.669 24.0562 106.426 24.06 106.18C24.056 105.936 24.1038 105.694 24.2 105.47C24.2858 105.273 24.4285 105.106 24.61 104.99C24.801 104.87 25.0243 104.81 25.25 104.82C25.4664 104.813 25.6808 104.865 25.87 104.97C26.0389 105.078 26.1713 105.235 26.25 105.42C26.3437 105.634 26.3881 105.866 26.38 106.1V106.27H24.53ZM24.53 105.95H26C26.0011 105.813 25.9738 105.676 25.92 105.55C25.8752 105.435 25.7946 105.336 25.69 105.27C25.5775 105.195 25.4449 105.157 25.31 105.16C25.1669 105.153 25.0258 105.196 24.91 105.28C24.8035 105.356 24.7204 105.46 24.67 105.58C24.603 105.71 24.5654 105.854 24.56 106L24.53 105.95ZM29.45 105.2H28.9V106.81C28.8862 106.876 28.8862 106.944 28.9 107.01C28.9081 107.029 28.9203 107.046 28.9359 107.06C28.9515 107.074 28.9699 107.084 28.99 107.09H29.18H29.47V107.4H29.32H29.08C28.9398 107.408 28.7997 107.384 28.67 107.33C28.5772 107.287 28.5028 107.213 28.46 107.12C28.4192 107.008 28.3989 106.889 28.4 106.77V105.14H28V104.8H28.44L28.55 104.05H28.89V104.8H29.47L29.45 105.2ZM31.07 107.5C30.8538 107.504 30.6403 107.452 30.45 107.35C30.2713 107.241 30.126 107.086 30.03 106.9C29.9327 106.669 29.885 106.42 29.89 106.17C29.8829 105.927 29.9272 105.685 30.02 105.46C30.1059 105.265 30.2488 105.102 30.43 104.99C30.621 104.87 30.8443 104.81 31.07 104.82C31.2863 104.814 31.5004 104.865 31.69 104.97C31.8716 105.076 32.0151 105.237 32.1 105.43C32.1954 105.656 32.2446 105.899 32.2446 106.145C32.2446 106.391 32.1954 106.634 32.1 106.86C32.0221 107.054 31.8858 107.218 31.71 107.33C31.5312 107.459 31.3198 107.535 31.1 107.55L31.07 107.5ZM31.07 107.13C31.2117 107.138 31.3522 107.099 31.47 107.02C31.5785 106.93 31.6614 106.813 31.71 106.68C31.7648 106.512 31.7918 106.337 31.79 106.16C31.7941 105.991 31.7705 105.822 31.72 105.66C31.6786 105.524 31.5987 105.402 31.49 105.31C31.3705 105.229 31.2294 105.185 31.085 105.185C30.9405 105.185 30.7994 105.229 30.68 105.31C30.5634 105.39 30.4757 105.506 30.43 105.64C30.3696 105.81 30.3425 105.99 30.35 106.17C30.3465 106.336 30.3702 106.502 30.42 106.66C30.4612 106.799 30.5452 106.921 30.66 107.01C30.7177 107.067 30.7865 107.112 30.8622 107.141C30.9379 107.17 31.0189 107.183 31.1 107.18L31.07 107.13ZM34.07 105.2H33.49V106.81C33.4762 106.876 33.4762 106.944 33.49 107.01C33.4991 107.03 33.5129 107.048 33.5303 107.062C33.5477 107.076 33.5681 107.086 33.59 107.09H33.78H34.06V107.4H33.91H33.68C33.5366 107.407 33.3933 107.383 33.26 107.33C33.1672 107.287 33.0928 107.213 33.05 107.12C33.0333 107.004 33.0333 106.886 33.05 106.77V105.14H32.63V104.8H33.06L33.17 104.05H33.51V104.8H34.09L34.07 105.2ZM35.43 107.5C35.2784 107.504 35.1279 107.473 34.99 107.41C34.8677 107.358 34.7634 107.271 34.69 107.16C34.6161 107.036 34.578 106.894 34.58 106.75C34.5707 106.627 34.5935 106.503 34.646 106.391C34.6986 106.279 34.7791 106.182 34.88 106.11C35.1853 105.942 35.5317 105.862 35.88 105.88H36.35V105.68C36.3536 105.611 36.3421 105.542 36.3162 105.478C36.2903 105.414 36.2506 105.357 36.2 105.31C36.1404 105.257 36.0705 105.218 35.9948 105.193C35.919 105.169 35.839 105.161 35.76 105.17C35.623 105.165 35.4876 105.2 35.37 105.27C35.2545 105.35 35.1754 105.472 35.15 105.61H34.74C34.7455 105.455 34.7977 105.305 34.89 105.18C34.9744 105.057 35.0976 104.965 35.24 104.92C35.4131 104.858 35.596 104.827 35.78 104.83C35.9707 104.823 36.161 104.854 36.34 104.92C36.4812 104.973 36.6008 105.072 36.68 105.2C36.7574 105.341 36.7954 105.5 36.79 105.66V107.46H36.4V106.97C36.3296 107.152 36.1942 107.302 36.02 107.39C35.8546 107.492 35.6644 107.548 35.47 107.55L35.43 107.5ZM35.57 107.17C35.656 107.185 35.744 107.185 35.83 107.17C35.9177 107.143 35.9993 107.099 36.07 107.04C36.1389 106.993 36.1969 106.932 36.24 106.86C36.2808 106.797 36.3049 106.725 36.31 106.65V106.21H36C35.8353 106.217 35.6714 106.237 35.51 106.27C35.3952 106.301 35.2913 106.363 35.21 106.45C35.1391 106.537 35.1034 106.648 35.11 106.76C35.1079 106.824 35.1204 106.888 35.1463 106.947C35.1723 107.006 35.2111 107.058 35.26 107.1C35.3614 107.175 35.4837 107.217 35.61 107.22L35.57 107.17ZM38.19 107.48C38.0774 107.498 37.9625 107.498 37.85 107.48C37.7744 107.443 37.7091 107.388 37.66 107.32C37.6107 107.255 37.5766 107.18 37.56 107.1C37.555 107.013 37.555 106.927 37.56 106.84V103.84H38V106.84C37.9904 106.942 38.0151 107.044 38.07 107.13C38.0968 107.163 38.1302 107.19 38.1682 107.209C38.2061 107.228 38.2476 107.238 38.29 107.24H38.43V107.54H38.31L38.19 107.48ZM40.9 107.48C40.7484 107.484 40.5979 107.453 40.46 107.39C40.3362 107.336 40.2292 107.249 40.15 107.14C40.0796 107.015 40.045 106.873 40.05 106.73C40.0407 106.607 40.0635 106.483 40.116 106.371C40.1686 106.259 40.2491 106.162 40.35 106.09C40.6553 105.922 41.0017 105.842 41.35 105.86H41.81V105.66C41.813 105.592 41.8022 105.524 41.7781 105.461C41.754 105.397 41.7172 105.339 41.67 105.29C41.6101 105.238 41.5402 105.198 41.4645 105.174C41.3888 105.15 41.309 105.142 41.23 105.15C41.09 105.146 40.9517 105.181 40.83 105.25C40.7726 105.288 40.7241 105.338 40.6879 105.397C40.6517 105.456 40.6285 105.522 40.62 105.59H40.21C40.2164 105.437 40.2649 105.288 40.35 105.16C40.438 105.036 40.5646 104.945 40.71 104.9C40.8826 104.836 41.0659 104.805 41.25 104.81C41.4406 104.805 41.6305 104.835 41.81 104.9C41.9483 104.954 42.0646 105.052 42.14 105.18C42.2251 105.318 42.2669 105.478 42.26 105.64V107.44H41.86V106.95C41.7865 107.13 41.6519 107.279 41.48 107.37C41.3183 107.475 41.1324 107.537 40.94 107.55L40.9 107.48ZM41.04 107.15C41.126 107.164 41.2139 107.164 41.3 107.15C41.3836 107.12 41.4615 107.076 41.53 107.02C41.5989 106.973 41.6569 106.912 41.7 106.84C41.7454 106.779 41.77 106.706 41.77 106.63V106.19H41.39C41.2219 106.196 41.0546 106.216 40.89 106.25C40.7752 106.281 40.6713 106.343 40.59 106.43C40.5265 106.521 40.4949 106.63 40.5 106.74C40.4979 106.804 40.5104 106.868 40.5363 106.927C40.5623 106.986 40.6011 107.038 40.65 107.08C40.7701 107.18 40.924 107.23 41.08 107.22L41.04 107.15ZM43.04 107.43V104.84H43.48V105.22C43.5589 105.101 43.6609 104.999 43.78 104.92C43.9245 104.833 44.0916 104.792 44.26 104.8C44.3561 104.786 44.4538 104.786 44.55 104.8C44.6475 104.83 44.7389 104.878 44.82 104.94C44.8968 105.008 44.9611 105.09 45.01 105.18C45.092 105.054 45.2013 104.948 45.33 104.87C45.4739 104.792 45.6362 104.754 45.8 104.76C45.8928 104.747 45.9871 104.747 46.08 104.76C46.1806 104.782 46.2737 104.831 46.35 104.9C46.4407 104.98 46.5125 105.079 46.56 105.19C46.6168 105.34 46.6439 105.5 46.64 105.66V107.35H46.17V105.7C46.1772 105.576 46.1531 105.452 46.1 105.34C46.0514 105.263 45.9821 105.2 45.9 105.16C45.8144 105.14 45.7255 105.14 45.64 105.16C45.5572 105.146 45.4727 105.146 45.39 105.16C45.3023 105.195 45.2236 105.25 45.16 105.32C45.0891 105.407 45.0534 105.518 45.06 105.63V107.36H44.6V105.58C44.6063 105.486 44.5778 105.394 44.52 105.32C44.4642 105.257 44.3961 105.206 44.32 105.17C44.2411 105.151 44.1589 105.151 44.08 105.17C43.991 105.151 43.899 105.151 43.81 105.17C43.7226 105.206 43.6465 105.264 43.59 105.34C43.5265 105.423 43.4946 105.526 43.5 105.63V107.36L43.04 107.43ZM48.39 107.43C48.1706 107.435 47.9536 107.383 47.76 107.28C47.5866 107.168 47.4453 107.013 47.35 106.83C47.2446 106.601 47.1933 106.352 47.2 106.1C47.196 105.856 47.2438 105.614 47.34 105.39C47.4204 105.195 47.5604 105.031 47.74 104.92C47.9349 104.8 48.1612 104.741 48.39 104.75C48.6121 104.777 48.8229 104.863 49 105C49.1784 105.11 49.3209 105.27 49.41 105.46C49.5862 105.92 49.5862 106.43 49.41 106.89C49.3295 107.085 49.1895 107.249 49.01 107.36C48.8286 107.48 48.6172 107.546 48.4 107.55L48.39 107.43ZM48.39 107.06C48.5284 107.067 48.6653 107.028 48.78 106.95C48.8945 106.866 48.9787 106.746 49.02 106.61C49.0831 106.444 49.1137 106.268 49.11 106.09C49.1111 105.92 49.084 105.751 49.03 105.59C48.9962 105.45 48.9149 105.326 48.8 105.24C48.6845 105.147 48.5381 105.1 48.39 105.11C48.2471 105.105 48.1065 105.147 47.99 105.23C47.8734 105.31 47.7857 105.426 47.74 105.56C47.6844 105.731 47.6574 105.91 47.66 106.09C47.6598 106.257 47.6868 106.422 47.74 106.58C47.7813 106.716 47.8612 106.838 47.97 106.93C48.0213 106.998 48.0858 107.056 48.1597 107.099C48.2335 107.141 48.3152 107.169 48.4 107.18L48.39 107.06ZM51.07 107.43C50.9409 107.43 50.8126 107.41 50.69 107.37C50.5759 107.336 50.4702 107.278 50.38 107.2C50.2859 107.129 50.2104 107.036 50.16 106.93C50.1056 106.811 50.0783 106.681 50.08 106.55V104.79H50.55V106.5C50.5462 106.575 50.5576 106.65 50.5834 106.72C50.6091 106.791 50.6488 106.855 50.7 106.91C50.763 106.968 50.8374 107.012 50.9182 107.039C50.9991 107.067 51.0848 107.077 51.17 107.07C51.3366 107.079 51.5007 107.026 51.63 106.92C51.6915 106.865 51.7398 106.797 51.771 106.721C51.8022 106.645 51.8155 106.562 51.81 106.48V104.79H52.27V107.38H51.9V106.89C51.8754 107.006 51.8201 107.113 51.74 107.2C51.6632 107.278 51.5713 107.339 51.47 107.38C51.3503 107.458 51.2185 107.515 51.08 107.55L51.07 107.43ZM53.07 107.43V104.84H53.52V105.22C53.5651 105.144 53.6225 105.077 53.69 105.02C53.7701 104.952 53.8615 104.898 53.96 104.86C54.0805 104.827 54.2049 104.81 54.33 104.81C54.4857 104.808 54.6398 104.842 54.78 104.91C54.9206 104.97 55.0368 105.076 55.11 105.21C55.1981 105.372 55.2396 105.556 55.23 105.74V107.43H54.77V105.78C54.778 105.699 54.7678 105.618 54.7401 105.542C54.7124 105.466 54.6679 105.397 54.61 105.34C54.5551 105.289 54.4906 105.249 54.4202 105.223C54.3497 105.198 54.2749 105.186 54.2 105.19C54.0871 105.189 53.9751 105.209 53.87 105.25C53.7735 105.279 53.6892 105.339 53.63 105.42C53.561 105.497 53.525 105.597 53.53 105.7V107.43H53.07ZM57.15 105.18H56.57V106.79C56.5624 106.856 56.5624 106.924 56.57 106.99C56.5802 107.01 56.5944 107.027 56.6116 107.04C56.6288 107.054 56.6487 107.064 56.67 107.07H56.86H57.14V107.38H57H56.76C56.6166 107.387 56.4733 107.363 56.34 107.31C56.2519 107.264 56.1816 107.19 56.14 107.1C56.0992 106.988 56.0789 106.869 56.08 106.75V105.12H55.66V104.78H56.09L56.2 104.03H56.55V104.78H57.13L57.15 105.18ZM59.83 107.48C59.6813 107.486 59.5332 107.458 59.3965 107.399C59.2599 107.34 59.138 107.252 59.04 107.14C58.8234 106.853 58.717 106.499 58.74 106.14C58.7367 105.898 58.7773 105.657 58.86 105.43C58.9258 105.237 59.0539 105.072 59.224 104.959C59.3942 104.847 59.5967 104.795 59.8 104.81C59.9094 104.794 60.0205 104.794 60.13 104.81C60.2185 104.838 60.3026 104.879 60.38 104.93C60.4409 104.975 60.4978 105.025 60.55 105.08L60.65 105.22V103.69H61.11V107.4H60.76V106.87C60.738 106.932 60.7113 106.992 60.68 107.05C60.6331 107.119 60.5795 107.182 60.52 107.24C60.4471 107.306 60.3622 107.357 60.27 107.39C60.124 107.479 59.9599 107.533 59.79 107.55L59.83 107.48ZM59.92 107.13C60.0258 107.139 60.1322 107.122 60.2298 107.08C60.3274 107.038 60.4133 106.973 60.48 106.89C60.6106 106.652 60.6696 106.381 60.65 106.11C60.6485 105.934 60.6215 105.759 60.57 105.59C60.5282 105.462 60.4479 105.35 60.34 105.27C60.2191 105.189 60.075 105.151 59.93 105.16C59.8323 105.155 59.7349 105.173 59.6448 105.211C59.5548 105.249 59.4745 105.307 59.41 105.38C59.2557 105.59 59.1845 105.85 59.21 106.11C59.1952 106.372 59.2577 106.633 59.39 106.86C59.4341 106.955 59.5027 107.037 59.5888 107.097C59.675 107.156 59.7754 107.192 59.88 107.2L59.92 107.13ZM62.21 106.25C62.2031 106.401 62.2304 106.551 62.29 106.69C62.3343 106.817 62.4185 106.925 62.53 107C62.6536 107.084 62.8007 107.126 62.95 107.12C63.0975 107.123 63.243 107.085 63.37 107.01C63.4308 106.972 63.4835 106.923 63.5247 106.865C63.566 106.806 63.595 106.74 63.61 106.67H64C63.9757 106.837 63.9027 106.994 63.79 107.12C63.6823 107.239 63.5488 107.331 63.4 107.39C63.2472 107.451 63.0842 107.481 62.92 107.48C62.696 107.486 62.4745 107.431 62.28 107.32C62.0963 107.215 61.947 107.058 61.85 106.87C61.7445 106.649 61.6931 106.405 61.7 106.16C61.6911 105.916 61.739 105.673 61.84 105.45C61.922 105.253 62.0614 105.086 62.24 104.97C62.4349 104.85 62.6612 104.791 62.89 104.8C63.1032 104.794 63.3141 104.845 63.5 104.95C63.6699 105.06 63.8052 105.216 63.89 105.4C63.9789 105.616 64.0232 105.847 64.02 106.08V106.25H62.21ZM62.21 105.93H63.61C63.6142 105.793 63.5904 105.657 63.54 105.53C63.4924 105.416 63.4124 105.319 63.31 105.25C63.1944 105.174 63.0582 105.136 62.92 105.14C62.777 105.135 62.6365 105.177 62.52 105.26C62.4162 105.338 62.3337 105.442 62.28 105.56C62.2079 105.696 62.1702 105.847 62.17 106L62.21 105.93ZM65.62 107.48C65.4713 107.486 65.3232 107.458 65.1865 107.399C65.0499 107.34 64.928 107.252 64.83 107.14C64.6134 106.853 64.507 106.499 64.53 106.14C64.5267 105.898 64.5673 105.657 64.65 105.43C64.7158 105.237 64.8439 105.072 65.014 104.959C65.1842 104.847 65.3867 104.795 65.59 104.81C65.6994 104.794 65.8105 104.794 65.92 104.81C66.0085 104.838 66.0926 104.879 66.17 104.93C66.2309 104.975 66.2878 105.025 66.34 105.08C66.3775 105.124 66.411 105.17 66.44 105.22V103.69H66.9V107.4H66.55L66.5 106.87C66.478 106.932 66.4513 106.992 66.42 107.05C66.3731 107.119 66.3195 107.182 66.26 107.24C66.1871 107.306 66.1022 107.357 66.01 107.39C65.8795 107.473 65.7329 107.528 65.58 107.55L65.62 107.48ZM65.71 107.13C65.8158 107.139 65.9222 107.122 66.0198 107.08C66.1174 107.038 66.2033 106.973 66.27 106.89C66.4006 106.652 66.4596 106.381 66.44 106.11C66.4385 105.934 66.4115 105.759 66.36 105.59C66.3152 105.481 66.244 105.386 66.1526 105.312C66.0613 105.238 65.9529 105.189 65.8374 105.168C65.7219 105.147 65.6029 105.155 65.4915 105.192C65.3801 105.23 65.2799 105.294 65.2 105.38C65.0457 105.59 64.9745 105.85 65 106.11C64.9852 106.372 65.0477 106.633 65.18 106.86C65.2241 106.955 65.2927 107.037 65.3788 107.097C65.465 107.156 65.5654 107.192 65.67 107.2L65.71 107.13ZM68.62 107.48C68.4876 107.481 68.3559 107.461 68.23 107.42C68.1159 107.386 68.0102 107.328 67.92 107.25C67.8259 107.179 67.7504 107.086 67.7 106.98C67.6456 106.861 67.6183 106.731 67.62 106.6V104.84H68.09V106.55C68.0862 106.625 68.0976 106.7 68.1234 106.77C68.1491 106.841 68.1888 106.905 68.24 106.96C68.303 107.018 68.3774 107.062 68.4582 107.089C68.5391 107.117 68.6248 107.127 68.71 107.12C68.8766 107.129 69.0407 107.076 69.17 106.97C69.2315 106.915 69.2798 106.847 69.311 106.771C69.3422 106.695 69.3555 106.612 69.35 106.53V104.84H69.81V107.43H69.4L69.35 106.94C69.3214 107.054 69.2666 107.161 69.19 107.25C69.1132 107.328 69.0213 107.389 68.92 107.43C68.8129 107.486 68.6984 107.526 68.58 107.55L68.62 107.48ZM71.56 104.8C71.7319 104.797 71.9026 104.831 72.06 104.9C72.2049 104.966 72.3293 105.069 72.42 105.2C72.512 105.339 72.5734 105.496 72.6 105.66H72.19C72.1741 105.572 72.1363 105.489 72.08 105.42C72.0277 105.339 71.9553 105.274 71.87 105.23C71.7721 105.188 71.6664 105.168 71.56 105.17C71.4577 105.167 71.356 105.187 71.2625 105.228C71.169 105.27 71.0861 105.332 71.02 105.41C70.8639 105.62 70.7892 105.879 70.81 106.14C70.7953 106.394 70.8619 106.646 71 106.86C71.0649 106.949 71.1511 107.02 71.2506 107.068C71.3502 107.115 71.46 107.136 71.57 107.13C71.6744 107.134 71.7781 107.11 71.87 107.06C71.9536 107.014 72.0281 106.953 72.09 106.88C72.1377 106.803 72.1716 106.719 72.19 106.63H72.59C72.5752 106.793 72.5164 106.948 72.42 107.08C72.3226 107.208 72.1957 107.311 72.05 107.38C71.8961 107.45 71.7287 107.484 71.56 107.48C71.3438 107.484 71.1303 107.432 70.94 107.33C70.7561 107.228 70.6092 107.07 70.52 106.88C70.4135 106.652 70.3622 106.402 70.37 106.15C70.3629 105.907 70.4072 105.665 70.5 105.44C70.5889 105.247 70.7312 105.084 70.91 104.97C71.1 104.881 71.3113 104.846 71.52 104.87L71.56 104.8ZM74.45 105.18H73.87V106.79C73.8562 106.856 73.8562 106.924 73.87 106.99C73.8791 107.01 73.8929 107.028 73.9103 107.042C73.9277 107.056 73.9481 107.066 73.97 107.07H74.16H74.44V107.38H74.29H74C73.8598 107.388 73.7197 107.364 73.59 107.31C73.4972 107.267 73.4228 107.193 73.38 107.1C73.3392 106.988 73.3189 106.869 73.32 106.75V105.12H72.9V104.78H73.34L73.45 104.03H73.79V104.78H74.37L74.45 105.18ZM75.38 106.25C75.3795 106.4 75.4066 106.549 75.46 106.69C75.5082 106.817 75.5958 106.926 75.71 107C75.8305 107.082 75.974 107.124 76.12 107.12C76.2706 107.123 76.4193 107.085 76.55 107.01C76.6098 106.972 76.6611 106.923 76.7007 106.864C76.7403 106.806 76.7673 106.74 76.78 106.67H77.22C77.1889 106.835 77.1167 106.99 77.01 107.12C76.9007 107.241 76.7633 107.334 76.61 107.39C76.4572 107.451 76.2942 107.481 76.13 107.48C75.9091 107.487 75.6908 107.431 75.5 107.32C75.3124 107.22 75.1618 107.062 75.07 106.87C74.9563 106.651 74.9012 106.407 74.91 106.16C74.906 105.916 74.9538 105.674 75.05 105.45C75.1312 105.25 75.275 105.082 75.46 104.97C75.6505 104.848 75.8742 104.789 76.1 104.8C76.3163 104.794 76.5304 104.845 76.72 104.95C76.8845 105.063 77.0157 105.219 77.1 105.4C77.1937 105.614 77.2381 105.846 77.23 106.08V106.25H75.38ZM75.38 105.93H76.79C76.7911 105.793 76.7638 105.656 76.71 105.53C76.6624 105.416 76.5824 105.319 76.48 105.25C76.3675 105.175 76.2349 105.137 76.1 105.14C75.9538 105.133 75.8095 105.176 75.69 105.26C75.5892 105.339 75.5101 105.442 75.46 105.56C75.3781 105.692 75.3364 105.845 75.34 106L75.38 105.93ZM78.8 107.48C78.6496 107.487 78.4996 107.46 78.3611 107.402C78.2226 107.343 78.0991 107.253 78 107.14C77.787 106.852 77.6841 106.497 77.71 106.14C77.7075 105.899 77.7446 105.659 77.82 105.43C77.8915 105.244 78.0168 105.084 78.18 104.97C78.3523 104.858 78.5548 104.803 78.76 104.81C78.8693 104.793 78.9806 104.793 79.09 104.81C79.1794 104.836 79.2639 104.876 79.34 104.93C79.403 104.972 79.4602 105.023 79.51 105.08C79.5507 105.121 79.5845 105.168 79.61 105.22V103.69H80V107.4H79.64L79.59 106.87C79.5723 106.934 79.5453 106.994 79.51 107.05C79.467 107.119 79.4167 107.182 79.36 107.24C79.2834 107.306 79.1952 107.357 79.1 107.39C78.9977 107.464 78.8824 107.519 78.76 107.55L78.8 107.48ZM78.88 107.13C78.986 107.141 79.093 107.124 79.1909 107.082C79.2888 107.04 79.3745 106.974 79.44 106.89C79.5706 106.652 79.6296 106.381 79.61 106.11C79.6133 105.933 79.5862 105.757 79.53 105.59C79.4954 105.459 79.4135 105.345 79.3 105.27C79.1798 105.188 79.0352 105.149 78.89 105.16C78.7924 105.156 78.6952 105.174 78.6052 105.212C78.5153 105.25 78.435 105.307 78.37 105.38C78.2206 105.593 78.1499 105.851 78.17 106.11C78.1552 106.372 78.2177 106.633 78.35 106.86C78.3949 106.955 78.4638 107.036 78.5497 107.095C78.6357 107.155 78.7357 107.191 78.84 107.2L78.88 107.13ZM83.45 104.84V105.18H82.82V107.43H82.36V105.18H81.81V104.84H82.36V104.44C82.353 104.356 82.3636 104.272 82.3912 104.193C82.4187 104.114 82.4626 104.041 82.52 103.98C82.5818 103.92 82.6557 103.874 82.7367 103.845C82.8178 103.815 82.904 103.804 82.99 103.81H83.47V104.14H83.08C83.0386 104.135 82.9966 104.14 82.958 104.156C82.9195 104.172 82.8857 104.197 82.86 104.23C82.8396 104.312 82.8396 104.398 82.86 104.48V104.84H83.45ZM84 107.5V104.91H84.44V105.41C84.483 105.299 84.5475 105.197 84.63 105.11C84.6983 105.027 84.7883 104.965 84.89 104.93C84.9907 104.886 85.1001 104.866 85.21 104.87H85.32H85.41V105.32C85.3769 105.314 85.343 105.314 85.31 105.32H85.21C85.1139 105.305 85.016 105.305 84.92 105.32C84.8346 105.333 84.7529 105.364 84.68 105.41C84.614 105.462 84.5594 105.526 84.52 105.6C84.4769 105.683 84.4562 105.776 84.46 105.87V107.48L84 107.5ZM86.91 107.5C86.6906 107.505 86.4736 107.453 86.28 107.35C86.1066 107.238 85.9653 107.083 85.87 106.9C85.7646 106.671 85.7133 106.422 85.72 106.17C85.716 105.926 85.7638 105.684 85.86 105.46C85.9404 105.265 86.0804 105.101 86.26 104.99C86.4549 104.87 86.6812 104.811 86.91 104.82C87.1263 104.814 87.3404 104.865 87.53 104.97C87.7084 105.08 87.8509 105.24 87.94 105.43C88.0354 105.656 88.0846 105.899 88.0846 106.145C88.0846 106.391 88.0354 106.634 87.94 106.86C87.8584 107.051 87.7229 107.215 87.55 107.33C87.3562 107.466 87.1267 107.543 86.89 107.55L86.91 107.5ZM86.91 107.13C87.0486 107.138 87.1859 107.099 87.3 107.02C87.4145 106.936 87.4987 106.816 87.54 106.68C87.6031 106.514 87.6337 106.338 87.63 106.16C87.6291 105.991 87.6055 105.823 87.56 105.66C87.5187 105.521 87.4347 105.399 87.32 105.31C87.2045 105.217 87.0581 105.17 86.91 105.18C86.7671 105.175 86.6265 105.217 86.51 105.3C86.3934 105.38 86.3057 105.496 86.26 105.63C86.2044 105.801 86.1774 105.98 86.18 106.16C86.1798 106.327 86.2068 106.492 86.26 106.65C86.3013 106.786 86.3812 106.908 86.49 107C86.5979 107.105 86.7396 107.169 86.89 107.18L86.91 107.13ZM88.69 107.45V104.86H89.14V105.24C89.2179 105.123 89.3161 105.022 89.43 104.94C89.5465 104.876 89.6747 104.836 89.8069 104.823C89.9391 104.809 90.0727 104.822 90.2 104.86C90.2975 104.89 90.3889 104.938 90.47 105C90.5527 105.063 90.6181 105.145 90.66 105.24C90.753 105.135 90.8694 105.052 91 105C91.1402 104.922 91.2994 104.884 91.46 104.89C91.5527 104.875 91.6472 104.875 91.74 104.89C91.843 104.914 91.939 104.962 92.02 105.03C92.1076 105.11 92.176 105.21 92.22 105.32C92.2816 105.469 92.309 105.629 92.3 105.79V107.48H91.84V105.83C91.8441 105.705 91.8166 105.581 91.76 105.47C91.7149 105.393 91.6491 105.331 91.57 105.29C91.4844 105.27 91.3955 105.27 91.31 105.29C91.2238 105.276 91.1361 105.276 91.05 105.29C90.9637 105.328 90.8856 105.382 90.82 105.45C90.7565 105.541 90.7249 105.65 90.73 105.76V107.49H90.27V105.71C90.2707 105.617 90.2428 105.526 90.19 105.45C90.1305 105.387 90.0591 105.336 89.98 105.3C89.9011 105.281 89.8189 105.281 89.74 105.3C89.6542 105.282 89.5657 105.282 89.48 105.3C89.3896 105.335 89.3103 105.394 89.25 105.47C89.1865 105.553 89.1546 105.656 89.16 105.76V107.49L88.69 107.45ZM94.39 108.27C94.2872 108.286 94.1827 108.286 94.08 108.27H93.99V108H94.26C94.3396 108.011 94.4203 108.011 94.5 108C94.5534 107.985 94.604 107.961 94.65 107.93C94.6874 107.907 94.7157 107.872 94.73 107.83C94.7536 107.799 94.7737 107.765 94.79 107.73L94.88 107.49L93.88 104.96H94.35L95.11 106.96L95.87 104.96H96.32L95.2 107.7C95.147 107.84 95.069 107.968 94.97 108.08C94.8964 108.164 94.8038 108.229 94.7 108.27C94.5941 108.308 94.4821 108.325 94.37 108.32L94.39 108.27ZM97.74 107.5C97.5206 107.505 97.3036 107.453 97.11 107.35C96.9298 107.246 96.7865 107.089 96.7 106.9C96.5946 106.671 96.5433 106.422 96.55 106.17C96.5411 105.926 96.589 105.683 96.69 105.46C96.7704 105.265 96.9104 105.101 97.09 104.99C97.2844 104.869 97.5111 104.809 97.74 104.82C97.9561 104.816 98.1696 104.868 98.36 104.97C98.5359 105.083 98.6777 105.242 98.77 105.43C98.868 105.664 98.9157 105.916 98.91 106.17C98.916 106.407 98.8717 106.642 98.78 106.86C98.6995 107.055 98.5595 107.219 98.38 107.33C98.1873 107.469 97.9572 107.545 97.72 107.55L97.74 107.5ZM97.74 107.13C97.8784 107.137 98.0153 107.098 98.13 107.02C98.2417 106.933 98.3252 106.815 98.37 106.68C98.4295 106.513 98.4566 106.337 98.45 106.16C98.4541 105.991 98.4305 105.822 98.38 105.66C98.342 105.522 98.2615 105.4 98.15 105.31C98.0336 105.218 97.8879 105.172 97.74 105.18C97.597 105.175 97.4565 105.217 97.34 105.3C97.2234 105.38 97.1357 105.496 97.09 105.63C97.0344 105.801 97.0074 105.98 97.01 106.16C97.0065 106.326 97.0302 106.492 97.08 106.65C97.1212 106.789 97.2052 106.911 97.32 107C97.4258 107.108 97.5687 107.173 97.72 107.18L97.74 107.13ZM100.42 107.5C100.291 107.5 100.163 107.48 100.04 107.44C99.9238 107.403 99.8154 107.346 99.72 107.27C99.629 107.198 99.5569 107.106 99.51 107C99.4508 106.882 99.4233 106.751 99.43 106.62V104.86H99.89V106.57C99.8857 106.646 99.8978 106.722 99.9254 106.792C99.953 106.863 99.9955 106.927 100.05 106.98C100.113 107.038 100.187 107.082 100.268 107.11C100.349 107.138 100.435 107.148 100.52 107.14C100.692 107.155 100.863 107.105 101 107C101.058 106.943 101.103 106.874 101.133 106.798C101.162 106.723 101.175 106.641 101.17 106.56V104.87H101.63V107.46H101.26V106.97C101.232 107.087 101.173 107.194 101.09 107.28C101.017 107.362 100.924 107.424 100.82 107.46C100.686 107.515 100.544 107.545 100.4 107.55L100.42 107.5ZM102.37 107.5V104.91H102.81V105.41C102.845 105.297 102.907 105.194 102.99 105.11C103.064 105.029 103.157 104.967 103.26 104.93C103.357 104.885 103.463 104.865 103.57 104.87H103.68H103.77V105.32C103.77 105.32 103.71 105.32 103.67 105.32H103.57C103.474 105.305 103.376 105.305 103.28 105.32C103.198 105.335 103.12 105.366 103.05 105.41C102.979 105.456 102.923 105.522 102.89 105.6C102.847 105.683 102.826 105.776 102.83 105.87V107.48L102.37 107.5ZM19.12 114.5C18.9652 114.503 18.8116 114.473 18.67 114.41C18.5511 114.352 18.4481 114.267 18.37 114.16C18.2996 114.035 18.265 113.893 18.27 113.75C18.2615 113.628 18.2835 113.505 18.3342 113.393C18.3848 113.282 18.4624 113.184 18.56 113.11C18.8666 112.945 19.212 112.866 19.56 112.88H20V112.68C20.003 112.612 19.9922 112.544 19.9681 112.481C19.944 112.417 19.9072 112.359 19.86 112.31C19.7995 112.259 19.7295 112.22 19.654 112.196C19.5784 112.172 19.4989 112.163 19.42 112.17C19.28 112.166 19.1417 112.201 19.02 112.27C18.9626 112.308 18.9141 112.358 18.8779 112.417C18.8417 112.476 18.8185 112.542 18.81 112.61H18.4C18.4064 112.457 18.4549 112.308 18.54 112.18C18.6265 112.059 18.7489 111.968 18.89 111.92C19.0663 111.857 19.2527 111.827 19.44 111.83C19.6358 111.85 19.826 111.908 20 112C20.1383 112.054 20.2546 112.152 20.33 112.28C20.4151 112.418 20.4569 112.578 20.45 112.74V114.54H20V114.05C19.9265 114.23 19.792 114.379 19.62 114.47C19.4553 114.537 19.2772 114.565 19.1 114.55L19.12 114.5ZM19.26 114.17C19.3461 114.183 19.4338 114.183 19.52 114.17C19.6036 114.14 19.6815 114.096 19.75 114.04C19.8189 113.993 19.8769 113.932 19.92 113.86C19.9654 113.799 19.99 113.726 19.99 113.65V113.21H19.6C19.4353 113.217 19.2714 113.237 19.11 113.27C18.9952 113.301 18.8913 113.363 18.81 113.45C18.743 113.539 18.7078 113.648 18.71 113.76C18.7099 113.825 18.7242 113.889 18.7518 113.948C18.7795 114.007 18.8198 114.059 18.87 114.1C18.9769 114.179 19.1068 114.221 19.24 114.22L19.26 114.17ZM22.26 111.82C22.4321 111.814 22.6032 111.849 22.76 111.92C22.9057 111.989 23.0326 112.092 23.13 112.22C23.2239 112.357 23.2823 112.515 23.3 112.68H22.89C22.8779 112.593 22.8435 112.51 22.79 112.44C22.7377 112.359 22.6653 112.294 22.58 112.25C22.4821 112.208 22.3764 112.188 22.27 112.19C22.1677 112.187 22.066 112.207 21.9725 112.248C21.879 112.29 21.7961 112.352 21.73 112.43C21.5739 112.64 21.4993 112.899 21.52 113.16C21.5053 113.414 21.5719 113.666 21.71 113.88C21.7733 113.968 21.8578 114.039 21.9556 114.086C22.0534 114.133 22.1615 114.155 22.27 114.15C22.3777 114.155 22.485 114.131 22.58 114.08C22.6621 114.037 22.7334 113.976 22.7888 113.901C22.8442 113.827 22.8822 113.741 22.9 113.65H23.3C23.2861 113.815 23.2234 113.971 23.12 114.1C23.0293 114.231 22.9049 114.334 22.76 114.4C22.6029 114.47 22.432 114.505 22.26 114.5C22.0471 114.504 21.8369 114.452 21.65 114.35C21.4661 114.248 21.3192 114.09 21.23 113.9C21.1201 113.673 21.0653 113.423 21.07 113.17C21.066 112.926 21.1138 112.684 21.21 112.46C21.3013 112.261 21.4501 112.094 21.6372 111.98C21.8242 111.866 22.0411 111.81 22.26 111.82V111.82ZM24.96 111.82C25.132 111.816 25.3029 111.85 25.46 111.92C25.6049 111.986 25.7293 112.089 25.82 112.22C25.9203 112.354 25.9825 112.513 26 112.68H25.59C25.5779 112.593 25.5435 112.51 25.49 112.44C25.4314 112.361 25.3563 112.297 25.27 112.25C25.1721 112.208 25.0664 112.188 24.96 112.19C24.8577 112.187 24.756 112.207 24.6625 112.248C24.569 112.29 24.4861 112.352 24.42 112.43C24.2674 112.641 24.1964 112.901 24.22 113.16C24.2053 113.414 24.2719 113.666 24.41 113.88C24.472 113.97 24.5562 114.042 24.6543 114.089C24.7525 114.136 24.8612 114.157 24.97 114.15C25.0776 114.154 25.1845 114.13 25.28 114.08C25.3624 114.036 25.4342 113.975 25.49 113.9C25.5418 113.825 25.576 113.74 25.59 113.65H26C25.9817 113.814 25.9195 113.969 25.82 114.1C25.7254 114.227 25.602 114.33 25.46 114.4C25.3026 114.469 25.1319 114.504 24.96 114.5C24.7438 114.504 24.5303 114.452 24.34 114.35C24.1561 114.248 24.0092 114.09 23.92 113.9C23.8136 113.672 23.7622 113.422 23.77 113.17C23.766 112.926 23.8138 112.684 23.91 112.46C23.9952 112.268 24.1341 112.105 24.31 111.99C24.5014 111.893 24.7161 111.851 24.93 111.87L24.96 111.82ZM27.65 114.5C27.4337 114.505 27.22 114.453 27.03 114.35C26.8513 114.241 26.706 114.086 26.61 113.9C26.508 113.671 26.4601 113.421 26.47 113.17C26.4629 112.927 26.5072 112.685 26.6 112.46C26.6822 112.269 26.822 112.108 27 112C27.1905 111.878 27.4142 111.819 27.64 111.83C27.8563 111.824 28.0704 111.875 28.26 111.98C28.4416 112.086 28.5851 112.247 28.67 112.44C28.7654 112.666 28.8146 112.909 28.8146 113.155C28.8146 113.401 28.7654 113.644 28.67 113.87C28.5884 114.061 28.4529 114.225 28.28 114.34C28.0851 114.473 27.8557 114.546 27.62 114.55L27.65 114.5ZM27.65 114.13C27.7917 114.138 27.9322 114.099 28.05 114.02C28.1585 113.93 28.2414 113.813 28.29 113.68C28.3448 113.512 28.3718 113.337 28.37 113.16C28.3741 112.991 28.3505 112.822 28.3 112.66C28.2586 112.524 28.1787 112.402 28.07 112.31C27.9497 112.218 27.8009 112.172 27.65 112.18C27.5101 112.175 27.3727 112.217 27.26 112.3C27.1407 112.378 27.0523 112.494 27.01 112.63C26.9496 112.8 26.9225 112.98 26.93 113.16C26.9265 113.326 26.9502 113.492 27 113.65C27.0412 113.789 27.1252 113.911 27.24 114C27.3402 114.105 27.4755 114.169 27.62 114.18L27.65 114.13ZM30.34 114.5C30.2108 114.501 30.0824 114.481 29.96 114.44C29.8429 114.406 29.734 114.348 29.64 114.27C29.5486 114.196 29.4736 114.104 29.42 114C29.3691 113.88 29.3452 113.75 29.35 113.62V111.86H29.81V113.57C29.8062 113.645 29.8176 113.72 29.8434 113.79C29.8691 113.861 29.9088 113.925 29.96 113.98C30.0944 114.08 30.2575 114.134 30.425 114.134C30.5924 114.134 30.7555 114.08 30.89 113.98C30.9515 113.925 30.9998 113.857 31.031 113.781C31.0622 113.705 31.0755 113.622 31.07 113.54V111.85H31.53V114.44H31.16L31.11 113.95C31.0854 114.066 31.0301 114.173 30.95 114.26C30.8769 114.342 30.7839 114.404 30.68 114.44C30.5629 114.495 30.4382 114.532 30.31 114.55L30.34 114.5ZM32.28 114.5V111.91H32.73V112.29C32.7751 112.214 32.8325 112.147 32.9 112.09C32.9801 112.022 33.0715 111.968 33.17 111.93C33.2905 111.897 33.4149 111.88 33.54 111.88C33.696 111.875 33.8507 111.909 33.99 111.98C34.1306 112.04 34.2468 112.146 34.32 112.28C34.4116 112.441 34.4566 112.625 34.45 112.81V114.5H34V112.85C34.008 112.769 33.9978 112.688 33.9701 112.612C33.9424 112.536 33.8979 112.467 33.84 112.41C33.7851 112.359 33.7206 112.319 33.6502 112.293C33.5797 112.268 33.5049 112.256 33.43 112.26C33.3205 112.26 33.2119 112.28 33.11 112.32C33.0108 112.349 32.9233 112.408 32.86 112.49C32.7944 112.569 32.7589 112.668 32.76 112.77V114.5H32.28ZM36.36 112.25H35.78V113.86C35.7662 113.926 35.7662 113.994 35.78 114.06C35.7881 114.079 35.8003 114.096 35.8159 114.11C35.8315 114.124 35.8499 114.134 35.87 114.14H36.06H36.35V114.45H36.2H36C35.8598 114.458 35.7197 114.434 35.59 114.38C35.4972 114.337 35.4228 114.263 35.38 114.17C35.3392 114.058 35.3189 113.939 35.32 113.82V112.19H34.9V111.85H35.34L35.45 111.1H35.79V111.85H36.37L36.36 112.25ZM38.68 111.91V114.5H38.2V111.91H38.68ZM38.68 110.91V111.39H38.21V110.91H38.68ZM40.4 114.57C40.2301 114.57 40.0613 114.543 39.9 114.49C39.7523 114.433 39.6191 114.344 39.51 114.23C39.4089 114.095 39.3435 113.937 39.32 113.77H39.74C39.7608 113.863 39.8056 113.949 39.87 114.02C39.9296 114.092 40.0098 114.145 40.1 114.17C40.1946 114.211 40.2968 114.231 40.4 114.23C40.5461 114.233 40.6906 114.198 40.82 114.13C40.8699 114.098 40.9108 114.053 40.9388 114.001C40.9668 113.948 40.981 113.89 40.98 113.83C40.9821 113.788 40.9752 113.745 40.9597 113.705C40.9442 113.666 40.9204 113.63 40.89 113.6C40.8184 113.531 40.7278 113.486 40.63 113.47L40.1 113.34C39.9179 113.302 39.7469 113.224 39.6 113.11C39.5358 113.055 39.4852 112.985 39.4523 112.907C39.4193 112.829 39.4048 112.745 39.41 112.66C39.4083 112.519 39.4464 112.38 39.52 112.26C39.5981 112.135 39.7135 112.037 39.85 111.98C40.0259 111.915 40.2126 111.885 40.4 111.89C40.6366 111.878 40.871 111.941 41.07 112.07C41.1588 112.133 41.2303 112.217 41.2775 112.315C41.3248 112.413 41.3463 112.521 41.34 112.63H40.94C40.9325 112.573 40.9137 112.518 40.8845 112.468C40.8553 112.418 40.8163 112.374 40.77 112.34C40.6609 112.258 40.5258 112.219 40.39 112.23C40.251 112.224 40.113 112.255 39.99 112.32C39.9392 112.354 39.8979 112.4 39.8699 112.454C39.8419 112.509 39.8282 112.569 39.83 112.63C39.8303 112.673 39.8404 112.715 39.8595 112.753C39.8786 112.791 39.9061 112.824 39.94 112.85C40.0437 112.908 40.1546 112.952 40.27 112.98L40.79 113.11C40.8923 113.135 40.9902 113.175 41.08 113.23C41.1521 113.276 41.2162 113.333 41.27 113.4C41.3141 113.463 41.3447 113.535 41.36 113.61C41.3696 113.673 41.3696 113.737 41.36 113.8C41.3643 113.946 41.3223 114.09 41.24 114.21C41.1571 114.333 41.0384 114.427 40.9 114.48C40.7328 114.537 40.5562 114.561 40.38 114.55L40.4 114.57ZM46 113.12C46.0095 113.381 45.9617 113.64 45.86 113.88C45.7697 114.095 45.6069 114.272 45.4 114.38C45.1376 114.503 44.8495 114.561 44.56 114.55C44.2672 114.561 43.9759 114.503 43.71 114.38C43.5057 114.264 43.3443 114.085 43.25 113.87C43.153 113.625 43.1055 113.363 43.11 113.1V110.88H43.85V113.15C43.841 113.257 43.8541 113.364 43.8885 113.466C43.9229 113.567 43.9779 113.661 44.05 113.74C44.1176 113.805 44.1978 113.855 44.2854 113.887C44.3731 113.92 44.4665 113.935 44.56 113.93C44.6846 113.932 44.8078 113.904 44.92 113.85C45.0265 113.794 45.1136 113.707 45.17 113.6C45.2427 113.462 45.2772 113.306 45.27 113.15V110.88H46V113.12ZM48.09 114.55C47.9109 114.552 47.7324 114.529 47.56 114.48C47.3931 114.44 47.2342 114.373 47.09 114.28C46.9501 114.193 46.8307 114.077 46.74 113.94C46.6441 113.801 46.5887 113.639 46.58 113.47H47.32C47.3451 113.572 47.3969 113.665 47.47 113.74C47.5393 113.822 47.629 113.884 47.73 113.92C47.8421 113.961 47.9606 113.981 48.08 113.98C48.2027 113.997 48.3272 113.997 48.45 113.98C48.5482 113.947 48.6396 113.896 48.72 113.83C48.7834 113.758 48.8189 113.666 48.82 113.57C48.8213 113.529 48.814 113.488 48.7985 113.45C48.783 113.412 48.7596 113.378 48.73 113.35C48.6706 113.282 48.5949 113.23 48.51 113.2C48.4089 113.165 48.3053 113.138 48.2 113.12L47.58 112.99C47.3328 112.955 47.1042 112.839 46.93 112.66C46.7778 112.491 46.6879 112.275 46.6751 112.047C46.6624 111.82 46.7276 111.595 46.86 111.41C46.9874 111.239 47.1607 111.107 47.36 111.03C47.5832 110.931 47.8258 110.883 48.07 110.89C48.341 110.883 48.6104 110.934 48.86 111.04C49.0537 111.122 49.2201 111.257 49.34 111.43C49.4493 111.593 49.5084 111.784 49.51 111.98H48.78C48.7729 111.876 48.7348 111.777 48.6706 111.695C48.6065 111.613 48.5191 111.552 48.42 111.52C48.3072 111.503 48.1927 111.503 48.08 111.52C47.9936 111.51 47.9063 111.51 47.82 111.52C47.7492 111.54 47.6819 111.57 47.62 111.61C47.5667 111.646 47.5222 111.694 47.49 111.75C47.4766 111.809 47.4766 111.871 47.49 111.93C47.4892 111.979 47.4986 112.027 47.5176 112.072C47.5365 112.116 47.5646 112.157 47.6 112.19C47.7156 112.273 47.8492 112.328 47.99 112.35L48.61 112.47C48.7979 112.502 48.9779 112.57 49.14 112.67C49.2582 112.742 49.3604 112.837 49.44 112.95C49.5017 113.051 49.5425 113.163 49.56 113.28C49.5739 113.383 49.5739 113.487 49.56 113.59C49.5623 113.781 49.4947 113.966 49.37 114.11C49.237 114.278 49.0606 114.406 48.86 114.48C48.6084 114.561 48.3419 114.585 48.08 114.55H48.09ZM52.62 114.55C52.2494 114.563 51.8824 114.473 51.56 114.29C51.4233 114.202 51.31 114.083 51.2299 113.942C51.1497 113.801 51.1051 113.642 51.1 113.48H51.86C51.8761 113.557 51.9074 113.631 51.9521 113.696C51.9967 113.761 52.0537 113.817 52.12 113.86C52.2733 113.943 52.4457 113.984 52.62 113.98C52.7264 113.982 52.832 113.962 52.93 113.92C53.0167 113.893 53.0934 113.841 53.15 113.77C53.2056 113.703 53.2341 113.617 53.23 113.53C53.2347 113.476 53.2263 113.421 53.2054 113.37C53.1845 113.32 53.1518 113.275 53.11 113.24C52.9919 113.154 52.8545 113.099 52.71 113.08L52.12 112.95C51.8741 112.902 51.6459 112.788 51.46 112.62C51.3745 112.534 51.3081 112.43 51.265 112.317C51.222 112.203 51.2032 112.081 51.21 111.96C51.1986 111.748 51.2623 111.539 51.39 111.37C51.5192 111.196 51.6965 111.064 51.9 110.99C52.1264 110.89 52.3725 110.842 52.62 110.85C52.8651 110.844 53.1081 110.896 53.33 111C53.5198 111.08 53.6804 111.216 53.79 111.39C53.8996 111.548 53.9524 111.738 53.94 111.93H53.2C53.1819 111.794 53.1265 111.666 53.04 111.56C52.9831 111.509 52.9166 111.471 52.8444 111.447C52.7722 111.423 52.6958 111.414 52.62 111.42C52.5303 111.409 52.4396 111.409 52.35 111.42C52.2807 111.444 52.2138 111.474 52.15 111.51C52.0991 111.549 52.0551 111.596 52.02 111.65C52.0059 111.709 52.0059 111.771 52.02 111.83C52.016 111.877 52.023 111.923 52.0403 111.967C52.0577 112.01 52.085 112.049 52.12 112.08C52.2444 112.163 52.3836 112.22 52.53 112.25L53.11 112.39C53.3852 112.439 53.6356 112.58 53.82 112.79C53.9712 112.991 54.0489 113.238 54.04 113.49C54.0436 113.684 53.9839 113.873 53.87 114.03C53.7449 114.195 53.5747 114.32 53.38 114.39C53.1382 114.499 52.8753 114.554 52.61 114.55H52.62ZM52.31 110.37H52.94V111H52.3L52.31 110.37ZM52.31 114.37H52.94V115H52.31V114.37ZM55.14 114.54V111.83H54.49V111.42C54.6587 111.425 54.8272 111.405 54.99 111.36C55.1011 111.333 55.2018 111.274 55.28 111.19C55.3443 111.114 55.3828 111.019 55.39 110.92H55.88V114.54H55.14ZM58 110.84C58.1926 110.836 58.3834 110.878 58.5571 110.961C58.7308 111.044 58.8825 111.167 59 111.32C59.2686 111.728 59.3984 112.212 59.37 112.7C59.4036 113.188 59.2734 113.674 59 114.08C58.8831 114.233 58.7313 114.355 58.5573 114.437C58.3832 114.519 58.1921 114.558 58 114.55C57.808 114.556 57.6175 114.516 57.4437 114.435C57.2699 114.353 57.1179 114.232 57 114.08C56.7313 113.672 56.6015 113.188 56.63 112.7C56.625 112.359 56.6827 112.02 56.8 111.7C56.903 111.449 57.0724 111.232 57.29 111.07C57.4982 110.924 57.7456 110.844 58 110.84V110.84ZM58 114C58.0981 114.003 58.195 113.977 58.2786 113.926C58.3622 113.874 58.4288 113.799 58.47 113.71C58.5945 113.392 58.6458 113.05 58.62 112.71C58.6425 112.37 58.5913 112.029 58.47 111.71C58.4261 111.621 58.3584 111.547 58.2745 111.495C58.1906 111.443 58.0937 111.415 57.995 111.415C57.8962 111.415 57.7993 111.443 57.7154 111.495C57.6315 111.547 57.5638 111.621 57.52 111.71C57.3943 112.028 57.3397 112.369 57.36 112.71C57.3373 113.051 57.392 113.393 57.52 113.71C57.5629 113.8 57.6312 113.875 57.7165 113.927C57.8018 113.978 57.9004 114.004 58 114V114ZM61.45 110.92H62.17V113.13H62.72V113.74H62.17V114.54H61.46V113.74H59.8V113.14L61.45 110.92ZM60.45 113.13H61.45V111.8L60.45 113.13ZM63.09 114.54V113.75H63.89V114.54H63.09ZM65.73 114.54C65.5142 114.541 65.3003 114.5 65.1 114.42C64.9152 114.337 64.7538 114.21 64.63 114.05C64.5009 113.895 64.4271 113.702 64.42 113.5H65.11C65.1378 113.632 65.208 113.751 65.31 113.84C65.4225 113.924 65.5593 113.97 65.7 113.97C65.8631 113.976 66.024 113.93 66.16 113.84C66.3001 113.749 66.403 113.61 66.45 113.45C66.5243 113.225 66.5482 112.986 66.52 112.75C66.4746 112.843 66.4098 112.925 66.33 112.99C66.2411 113.054 66.1434 113.104 66.04 113.14C65.9172 113.157 65.7927 113.157 65.67 113.14C65.4463 113.145 65.2243 113.101 65.02 113.01C64.8384 112.921 64.6859 112.782 64.58 112.61C64.4721 112.421 64.4154 112.208 64.4154 111.99C64.4154 111.773 64.4721 111.559 64.58 111.37C64.6924 111.182 64.8552 111.03 65.05 110.93C65.2749 110.824 65.5215 110.773 65.77 110.78C66.0478 110.764 66.3235 110.836 66.5573 110.988C66.791 111.139 66.9706 111.36 67.07 111.62C67.1967 111.917 67.2581 112.237 67.25 112.56C67.2608 112.928 67.1997 113.295 67.07 113.64C66.9616 113.902 66.7769 114.125 66.54 114.28C66.3094 114.439 66.0397 114.533 65.76 114.55L65.73 114.54ZM65.8 112.61C65.901 112.612 66.0009 112.588 66.09 112.54C66.1826 112.504 66.265 112.445 66.33 112.37C66.3862 112.31 66.4183 112.232 66.42 112.15C66.4305 112.01 66.4065 111.869 66.35 111.74C66.3017 111.632 66.2258 111.539 66.13 111.47C66.0304 111.41 65.9162 111.379 65.8 111.38C65.6908 111.374 65.5826 111.402 65.49 111.46C65.401 111.513 65.3283 111.589 65.28 111.68C65.2265 111.785 65.1991 111.902 65.2 112.02C65.1965 112.101 65.2098 112.182 65.2391 112.258C65.2683 112.333 65.3129 112.402 65.37 112.46C65.4315 112.517 65.5041 112.56 65.5833 112.588C65.6624 112.615 65.7464 112.626 65.83 112.62L65.8 112.61ZM69.08 110.83C69.2726 110.826 69.4634 110.868 69.6371 110.951C69.8108 111.034 69.9625 111.157 70.08 111.31C70.3534 111.716 70.4836 112.202 70.45 112.69C70.4813 113.177 70.3551 113.661 70.09 114.07C69.9623 114.218 69.8042 114.337 69.6264 114.418C69.4487 114.5 69.2555 114.542 69.06 114.542C68.8644 114.542 68.6712 114.5 68.4935 114.418C68.3157 114.337 68.1576 114.218 68.03 114.07C67.7648 113.661 67.6386 113.177 67.67 112.69C67.6602 112.349 67.7179 112.009 67.84 111.69C67.936 111.438 68.1026 111.219 68.32 111.06C68.5523 110.903 68.8297 110.825 69.11 110.84L69.08 110.83ZM69.08 113.95C69.1784 113.955 69.2759 113.929 69.3597 113.878C69.4435 113.826 69.5098 113.75 69.55 113.66C69.6789 113.343 69.7337 113.001 69.71 112.66C69.7303 112.319 69.6756 111.978 69.55 111.66C69.5103 111.569 69.4444 111.492 69.3607 111.438C69.277 111.385 69.1792 111.358 69.08 111.36C68.9795 111.358 68.8807 111.386 68.7956 111.439C68.7104 111.492 68.6424 111.569 68.6 111.66C68.4786 111.979 68.4274 112.32 68.45 112.66C68.4252 113 68.4764 113.342 68.6 113.66C68.638 113.763 68.7079 113.852 68.7995 113.913C68.8912 113.974 68.9999 114.005 69.11 114L69.08 113.95ZM70.97 114.49V113.9H71.51V114.49H70.97Z" fill="#36536B"/>
<path fill-rule="evenodd" clip-rule="evenodd" d="M19.91 92.2301V90.7401L21.12 88.7401H20.35L19.56 90.1801L18.76 88.7401H18L19.21 90.7401V92.2301H19.91ZM22.54 92.2301C22.7682 92.2349 22.9933 92.176 23.19 92.0601C23.366 91.947 23.5077 91.7879 23.6 91.6001C23.6959 91.3827 23.7454 91.1477 23.7454 90.9101C23.7454 90.6725 23.6959 90.4375 23.6 90.2201C23.5152 90.0275 23.3717 89.8665 23.19 89.7601C22.9954 89.649 22.774 89.5937 22.55 89.6001C22.3249 89.5957 22.1032 89.6546 21.91 89.7701C21.7286 89.8798 21.5828 90.0395 21.49 90.2301C21.3914 90.4486 21.3405 90.6855 21.3405 90.9251C21.3405 91.1648 21.3914 91.4017 21.49 91.6201C21.5861 91.8058 21.7314 91.9615 21.91 92.0701C22.0981 92.1939 22.3153 92.2663 22.54 92.2801V92.2301ZM22.23 91.5801C22.27 91.6212 22.3185 91.6532 22.3719 91.6739C22.4254 91.6946 22.4827 91.7035 22.54 91.7001C22.6503 91.7024 22.7573 91.6631 22.84 91.5901C22.9164 91.5081 22.9714 91.4085 23 91.3001C23.0382 91.1704 23.0551 91.0353 23.05 90.9001C23.0653 90.7739 23.0653 90.6463 23.05 90.5201C23.0214 90.4147 22.9664 90.3183 22.89 90.2401C22.8487 90.2014 22.7999 90.1716 22.7465 90.1527C22.6932 90.1338 22.6365 90.1261 22.58 90.1301C22.4711 90.1251 22.3642 90.1608 22.28 90.2301C22.1985 90.3059 22.1396 90.4028 22.11 90.5101C22.0478 90.6667 22.0106 90.832 22 91.0001C21.9957 91.1287 22.0126 91.2571 22.05 91.3801C22.0864 91.4782 22.1486 91.5646 22.23 91.6301V91.5801ZM25.13 92.2301C25.2296 92.243 25.3304 92.243 25.43 92.2301C25.5321 92.2004 25.6249 92.1454 25.7 92.0701C25.7862 91.9754 25.8419 91.8569 25.86 91.7301L25.94 92.2301H26.47V89.7001H25.78V91.3501C25.7844 91.4069 25.7748 91.464 25.7522 91.5163C25.7295 91.5685 25.6945 91.6145 25.65 91.6501C25.5602 91.7244 25.4465 91.7635 25.33 91.7601C25.207 91.7666 25.0859 91.7274 24.99 91.6501C24.9193 91.57 24.8803 91.467 24.88 91.3601V89.7001H24.18V91.4501C24.1743 91.5719 24.202 91.6929 24.26 91.8001C24.3138 91.9016 24.3889 91.9903 24.48 92.0601C24.5685 92.1327 24.6705 92.1871 24.78 92.2201C24.8925 92.2595 25.0108 92.2798 25.13 92.2801V92.2301ZM27.75 90.7901V92.1801H27V89.7001H27.68V90.3001C27.7182 90.1785 27.7756 90.0637 27.85 89.9601C27.9203 89.863 28.0129 89.7841 28.12 89.7301C28.2289 89.6766 28.3487 89.6492 28.47 89.6501H28.58V90.3401H28.53H28.47C28.3539 90.3245 28.2361 90.3245 28.12 90.3401C28.0329 90.353 27.9505 90.3874 27.88 90.4401C27.8204 90.4823 27.7751 90.5416 27.75 90.6101C27.7349 90.6861 27.7349 90.7642 27.75 90.8401V90.7901ZM30.56 92.1801L30.85 91.3601H32.1L32.39 92.1801H33.09L31.84 88.6401H31.1L29.85 92.1801H30.56ZM31 90.7901H31.92L31.46 89.3801L31 90.7901ZM34.22 93.0001V91.8501L34.35 92.0201L34.51 92.1501C34.5717 92.1902 34.6391 92.2205 34.71 92.2401C34.7826 92.2552 34.8574 92.2552 34.93 92.2401C35.1172 92.2407 35.3009 92.1888 35.46 92.0901C35.6274 91.9916 35.7575 91.8404 35.83 91.6601C35.9262 91.4187 35.9705 91.1598 35.96 90.9001C35.9677 90.6513 35.9269 90.4034 35.84 90.1701C35.7674 90.0016 35.6497 89.8563 35.5 89.7501C35.3498 89.6575 35.1765 89.6089 35 89.6101C34.9203 89.6005 34.8397 89.6005 34.76 89.6101C34.6828 89.6297 34.6088 89.66 34.54 89.7001C34.413 89.7679 34.3061 89.8679 34.23 89.9901V89.7001H33.52V93.0001H34.22ZM34.46 91.6301C34.4998 91.6681 34.5469 91.6975 34.5985 91.7164C34.6502 91.7353 34.7051 91.7434 34.76 91.7401C34.8354 91.7413 34.9099 91.7247 34.9777 91.6917C35.0454 91.6587 35.1045 91.6102 35.15 91.5501C35.2523 91.3852 35.3044 91.1941 35.3 91.0001C35.3139 90.7988 35.2612 90.5985 35.15 90.4301C35.1094 90.3638 35.0519 90.3094 34.9834 90.2725C34.9148 90.2356 34.8378 90.2175 34.76 90.2201C34.6794 90.2156 34.5991 90.2338 34.5284 90.2727C34.4577 90.3116 34.3993 90.3696 34.36 90.4401C34.2634 90.6106 34.215 90.8042 34.22 91.0001C34.2196 91.1357 34.2399 91.2706 34.28 91.4001C34.3205 91.4931 34.3821 91.5753 34.46 91.6401V91.6301ZM37.13 93.0001V91.8501L37.26 92.0201C37.3066 92.0711 37.3605 92.1149 37.42 92.1501C37.4781 92.1901 37.5423 92.2205 37.61 92.2401C37.6859 92.2552 37.7641 92.2552 37.84 92.2401C38.0272 92.2407 38.2109 92.1888 38.37 92.0901C38.5318 91.9878 38.6577 91.8374 38.73 91.6601C38.8299 91.4196 38.8777 91.1605 38.87 90.9001C38.8799 90.6503 38.8356 90.4012 38.74 90.1701C38.6754 89.9969 38.556 89.8494 38.4 89.7501C38.2533 89.6578 38.0833 89.6092 37.91 89.6101C37.8304 89.5992 37.7496 89.5992 37.67 89.6101C37.5928 89.6297 37.5188 89.66 37.45 89.7001C37.3854 89.7367 37.325 89.7803 37.27 89.8301C37.2184 89.8762 37.1745 89.9302 37.14 89.9901V89.7001H36.44V93.0001H37.13ZM37.37 91.6301C37.4098 91.6681 37.4569 91.6975 37.5085 91.7164C37.5602 91.7353 37.6151 91.7434 37.67 91.7401C37.7439 91.7413 37.8171 91.7247 37.8832 91.6916C37.9494 91.6586 38.0066 91.61 38.05 91.5501C38.1516 91.3701 38.2051 91.1669 38.2051 90.9601C38.2051 90.7534 38.1516 90.5502 38.05 90.3701C38.0079 90.3051 37.9501 90.2518 37.8819 90.2151C37.8138 90.1784 37.7374 90.1595 37.66 90.1601C37.5781 90.156 37.4966 90.1743 37.4244 90.213C37.3521 90.2518 37.2918 90.3096 37.25 90.3801C37.1616 90.5534 37.1169 90.7457 37.12 90.9401C37.1196 91.0757 37.1399 91.2106 37.18 91.3401C37.2143 91.4558 37.28 91.5597 37.37 91.6401V91.6301Z" fill="#BA4270"/>
<path opacity="0.5" fill-rule="evenodd" clip-rule="evenodd" d="M88.55 92.1699C88.4139 92.2496 88.2575 92.2879 88.1 92.2799C87.9839 92.2952 87.8662 92.2952 87.75 92.2799L87.54 92.2199V91.7799L87.71 91.8499C87.7891 91.8676 87.871 91.8676 87.95 91.8499C88.11 91.8499 88.22 91.8499 88.27 91.7199C88.3412 91.5812 88.3724 91.4254 88.36 91.2699V88.6899H88.81V91.3899C88.8137 91.552 88.7935 91.7138 88.75 91.8699C88.7197 91.9899 88.6491 92.0958 88.55 92.1699V92.1699ZM90.82 92.1699C90.7149 92.2109 90.6029 92.2313 90.49 92.2299C90.3647 92.2254 90.2404 92.2052 90.12 92.1699C90.0122 92.1328 89.911 92.0788 89.82 92.0099C89.7291 91.9384 89.657 91.8457 89.61 91.7399C89.5565 91.624 89.5292 91.4977 89.53 91.3699V89.6999H90V91.3699C89.9971 91.4432 90.0089 91.5164 90.0346 91.5851C90.0604 91.6538 90.0996 91.7166 90.15 91.7699C90.2112 91.8237 90.2826 91.8647 90.3599 91.8905C90.4372 91.9162 90.5188 91.9263 90.6 91.9199C90.7622 91.9302 90.9224 91.8804 91.05 91.7799C91.1066 91.7244 91.1503 91.6571 91.178 91.5828C91.2056 91.5085 91.2166 91.429 91.21 91.3499V89.6999H91.66V92.2299H91.3V91.7399C91.2737 91.8551 91.2187 91.9618 91.14 92.0499C91.0552 92.1405 90.9426 92.2003 90.82 92.2199V92.1699ZM93.22 92.2299C93.3955 92.2367 93.5701 92.2024 93.73 92.1299C93.8624 92.0812 93.9773 91.9942 94.06 91.8799C94.1184 91.7928 94.1568 91.6938 94.1724 91.59C94.1879 91.4863 94.1803 91.3804 94.15 91.2799C94.1309 91.2101 94.0967 91.1453 94.05 91.0899C94.0066 91.0214 93.9485 90.9634 93.88 90.9199C93.7903 90.8649 93.6924 90.8244 93.59 90.7999L93.09 90.6699C92.9801 90.6444 92.8753 90.6005 92.78 90.5399C92.7458 90.5168 92.7178 90.4855 92.6986 90.4488C92.6794 90.4122 92.6696 90.3713 92.67 90.3299C92.6648 90.271 92.6761 90.2117 92.7026 90.1587C92.7291 90.1057 92.7697 90.0612 92.82 90.0299C92.9367 89.9574 93.0729 89.9225 93.21 89.9299C93.339 89.9248 93.466 89.9636 93.57 90.0399C93.6154 90.0745 93.6531 90.1181 93.6806 90.1681C93.7082 90.218 93.725 90.2731 93.73 90.3299H94.13C94.1316 90.2259 94.1089 90.123 94.0638 90.0292C94.0187 89.9355 93.9523 89.8536 93.87 89.7899C93.6776 89.6544 93.4451 89.5875 93.21 89.5999C93.0313 89.5924 92.8532 89.6266 92.69 89.6999C92.558 89.7496 92.4457 89.8408 92.37 89.9599C92.2975 90.0807 92.2594 90.2191 92.26 90.3599C92.2549 90.4416 92.2695 90.5233 92.3025 90.5981C92.3356 90.673 92.3862 90.7388 92.45 90.7899C92.5883 90.9055 92.7534 90.9845 92.93 91.0199L93.44 91.1499C93.5343 91.1679 93.6212 91.2131 93.69 91.2799C93.719 91.3083 93.7413 91.3427 93.7551 91.3808C93.769 91.4189 93.7741 91.4596 93.77 91.4999C93.7734 91.5573 93.7612 91.6145 93.7348 91.6655C93.7084 91.7165 93.6688 91.7595 93.62 91.7899C93.4967 91.8641 93.3537 91.8989 93.21 91.8899C93.1174 91.906 93.0227 91.906 92.93 91.8899C92.843 91.8639 92.7661 91.8115 92.71 91.7399C92.6492 91.6669 92.6049 91.5817 92.58 91.4899H92.18C92.1983 91.6535 92.2605 91.809 92.36 91.9399C92.4636 92.0517 92.5897 92.1404 92.73 92.1999C92.8879 92.2531 93.0534 92.2801 93.22 92.2799V92.2299ZM95.97 92.2299H95.74C95.603 92.2385 95.466 92.2145 95.34 92.1599C95.252 92.1139 95.1817 92.0401 95.14 91.9499C95.1177 91.8377 95.1177 91.7222 95.14 91.6099V89.9999H94.73V89.6999H95.15L95.26 88.9599H95.58V89.6999H96.15V89.9999H95.58V91.5999C95.5663 91.6659 95.5663 91.734 95.58 91.7999C95.5881 91.8191 95.6004 91.8363 95.616 91.8501C95.6316 91.864 95.65 91.8741 95.67 91.8799H95.86H96.13V92.1799L95.97 92.2299ZM98.38 92.2299V89.4399L100.25 92.2299H100.65V88.6899H100.2V91.4399L98.36 88.6899H97.94V92.2299H98.38ZM103.09 92.1099C102.904 92.2254 102.689 92.2845 102.47 92.2799C102.26 92.2852 102.053 92.2333 101.87 92.1299C101.69 92.0262 101.547 91.8689 101.46 91.6799C101.368 91.4581 101.32 91.2202 101.32 90.9799C101.32 90.7397 101.368 90.5017 101.46 90.2799C101.537 90.0915 101.67 89.931 101.84 89.8199C102.029 89.7031 102.248 89.644 102.47 89.6499C102.68 89.6447 102.887 89.6966 103.07 89.7999C103.243 89.9069 103.379 90.0638 103.46 90.2499C103.557 90.4773 103.605 90.7227 103.6 90.9699C103.607 91.2034 103.563 91.4356 103.47 91.6499C103.393 91.8384 103.261 91.9988 103.09 92.1099V92.1099ZM102.47 91.9199C102.325 91.9292 102.182 91.8827 102.07 91.7899C101.961 91.7026 101.88 91.584 101.84 91.4499C101.79 91.2915 101.767 91.126 101.77 90.9599C101.762 90.7863 101.79 90.6129 101.85 90.4499C101.887 90.3163 101.968 90.1994 102.081 90.1192C102.194 90.039 102.332 90.0004 102.47 90.0099C102.613 90.0049 102.754 90.047 102.87 90.1299C102.974 90.2247 103.05 90.3456 103.09 90.4799C103.136 90.6359 103.159 90.7974 103.16 90.9599C103.163 91.1333 103.136 91.3057 103.08 91.4699C103.041 91.6018 102.96 91.7175 102.85 91.7999C102.74 91.8807 102.606 91.9228 102.47 91.9199V91.9199ZM105.7 90.3599L105.16 92.2299H104.72L104 89.6999H104.41L104.98 91.6399L105.54 89.6999H105.88L106.46 91.6399L107 89.6999H107.42L106.67 92.2299H106.23L105.7 90.3599Z" fill="#36536B"/>
</g>
<defs>
<linearGradient id="paint0_linear" x1="63.52" y1="0" x2="63.52" y2="5.92" gradientUnits="userSpaceOnUse">
<stop stop-color="#454545"/>
<stop offset="0.23" stop-color="#999999"/>
<stop offset="1" stop-color="white"/>
</linearGradient>
<linearGradient id="paint1_linear" x1="125.8" y1="119.44" x2="121.22" y2="119.44" gradientUnits="userSpaceOnUse">
<stop stop-color="white" stop-opacity="0.01"/>
<stop offset="0.22" stop-color="#BABABA"/>
<stop offset="0.55" stop-color="white" stop-opacity="0.01"/>
<stop offset="1" stop-color="white" stop-opacity="0.01"/>
</linearGradient>
<linearGradient id="paint2_linear" x1="9.45581" y1="38993" x2="39.8676" y2="38993" gradientUnits="userSpaceOnUse">
<stop stop-color="white" stop-opacity="0.01"/>
<stop offset="0.22" stop-color="#BABABA"/>
<stop offset="0.55" stop-color="white" stop-opacity="0.01"/>
<stop offset="1" stop-color="white" stop-opacity="0.01"/>
</linearGradient>
<linearGradient id="paint3_linear" x1="63.5" y1="6" x2="63.5" y2="227.26" gradientUnits="userSpaceOnUse">
<stop stop-color="#9CB6CD"/>
<stop offset="0.42" stop-color="#9AB3CA"/>
<stop offset="0.72" stop-color="#557496"/>
<stop offset="1" stop-color="#475178"/>
</linearGradient>
<clipPath id="clip0">
<rect width="126.96" height="239.73" fill="white"/>
</clipPath>
</defs>
</svg>
